<?xml version="1.0" encoding="UTF-8"?>
<svg id="Layer_1" data-name="Layer 1" xmlns="http://www.w3.org/2000/svg" xmlns:xlink="http://www.w3.org/1999/xlink" viewBox="0 0 379.9 77">
  <defs>
    <style>
      .cls-1 {
        clip-path: url(#clippath);
      }

      .cls-2 {
        fill: none;
      }

      .cls-2, .cls-3, .cls-4, .cls-5, .cls-6, .cls-7, .cls-8, .cls-9, .cls-10, .cls-11, .cls-12, .cls-13, .cls-14, .cls-15, .cls-16, .cls-17, .cls-18, .cls-19 {
        stroke-width: 0px;
      }

      .cls-3 {
        fill: url(#linear-gradient);
      }

      .cls-20 {
        clip-path: url(#clippath-1);
      }

      .cls-4 {
        fill: url(#linear-gradient-4);
      }

      .cls-5 {
        fill: url(#linear-gradient-2);
      }

      .cls-6 {
        fill: url(#linear-gradient-3);
      }

      .cls-7 {
        fill: url(#linear-gradient-5);
      }

      .cls-8 {
        fill: #f7f8f9;
      }

      .cls-9 {
        fill: #f2f2f2;
      }

      .cls-10 {
        fill: #797979;
      }

      .cls-11 {
        fill: #a3a3a3;
      }

      .cls-12 {
        fill: #d1d1d1;
      }

      .cls-13 {
        fill: #c7c6c5;
      }

      .cls-14 {
        fill: #dbdada;
      }

      .cls-15 {
        fill: #b2b2b2;
      }

      .cls-16 {
        fill: #8a8a8a;
      }

      .cls-17 {
        fill: #99999a;
      }

      .cls-18 {
        fill: #e9e9e9;
      }

      .cls-19 {
        fill: #676767;
      }
    </style>
    <clipPath id="clippath">
      <rect class="cls-2" x="127.9" width="252" height="77"/>
    </clipPath>
    <clipPath id="clippath-1">
      <rect class="cls-2" x="170.98" y="-29.63" width="190.79" height="143.35"/>
    </clipPath>
    <linearGradient id="linear-gradient" x1="-881.44" y1="459.87" x2="-882.88" y2="458.28" gradientTransform="translate(55109.38 20558.06) scale(62.16 -44.71)" gradientUnits="userSpaceOnUse">
      <stop offset="0" stop-color="#d1d1d1"/>
      <stop offset=".34" stop-color="#e2e1e0"/>
      <stop offset=".49" stop-color="#e4e3e1"/>
      <stop offset=".58" stop-color="#f3f3f3"/>
      <stop offset=".69" stop-color="#cdcdcd"/>
      <stop offset=".87" stop-color="#e4e3e1"/>
      <stop offset="1" stop-color="#d1d1d1"/>
    </linearGradient>
    <linearGradient id="linear-gradient-2" x1="-872.63" y1="425.79" x2="-874.07" y2="424.2" gradientTransform="translate(33957.14 3389.91) scale(38.57 -7.86)" xlink:href="#linear-gradient"/>
    <linearGradient id="linear-gradient-3" x1="-865.69" y1="447.74" x2="-867.13" y2="446.15" gradientTransform="translate(26024.77 7524.17) scale(29.72 -16.76)" xlink:href="#linear-gradient"/>
    <linearGradient id="linear-gradient-4" x1="-780.32" y1="445.77" x2="-782.29" y2="445.16" gradientTransform="translate(6331.94 7026.32) scale(7.78 -15.69)" xlink:href="#linear-gradient"/>
    <linearGradient id="linear-gradient-5" x1="86.65" y1="81.34" x2="130.95" y2="-13.65" gradientTransform="matrix(1,0,0,1,0,0)" xlink:href="#linear-gradient"/>
  </defs>
  <g id="Group_3417564" data-name="Group 3417564">
    <g class="cls-1">
      <g id="Option_2" data-name="Option 2">
        <g id="Option_2-2" data-name="Option 2-2">
          <g id="Group_3417484" data-name="Group 3417484">
            <g class="cls-20">
              <g id="Group_3417483" data-name="Group 3417483">
                <path id="Path_3641619" data-name="Path 3641619" class="cls-8" d="M180.12,15.39c0,.2-.16.36-.36.36s-.36-.16-.36-.36.16-.36.36-.36.36.16.36.36h0"/>
                <path id="Path_3641620" data-name="Path 3641620" class="cls-19" d="M229.61,20.58c0,.43-.35.78-.78.78s-.78-.35-.78-.78.35-.78.78-.78.78.35.78.78h0"/>
                <path id="Path_3641623" data-name="Path 3641623" class="cls-9" d="M233.87,11.17c0,.6-.48,1.08-1.08,1.08s-1.08-.48-1.08-1.08.48-1.08,1.08-1.08,1.08.48,1.08,1.08h0"/>
                <path id="Path_3641625" data-name="Path 3641625" class="cls-8" d="M185.83,8.48c0,.23-.18.41-.41.41s-.41-.18-.41-.41.18-.41.41-.41.41.18.41.41h0"/>
                <path id="Path_3641626" data-name="Path 3641626" class="cls-10" d="M227.19,2.64c0,.76-.62,1.38-1.38,1.38-.76,0-1.38-.62-1.38-1.38s.62-1.38,1.38-1.38h0c.76,0,1.38.62,1.38,1.38"/>
                <path id="Path_3641628" data-name="Path 3641628" class="cls-17" d="M204.14,11.44c0,.36-.29.65-.65.65s-.65-.29-.65-.65.29-.65.65-.65c.36,0,.65.29.65.64h0"/>
                <path id="Path_3641629" data-name="Path 3641629" class="cls-18" d="M210.17,20.28c0,.46-.37.83-.83.83s-.83-.37-.83-.83.37-.83.83-.83c.46,0,.83.37.83.83"/>
                <path id="Path_3641630" data-name="Path 3641630" class="cls-10" d="M218.76,22.5c0,.53-.43.97-.97.97s-.97-.43-.97-.97.43-.97.97-.97.97.43.97.97h0"/>
                <path id="Path_3641631" data-name="Path 3641631" class="cls-12" d="M204.98,28.96c0,.33-.27.61-.61.61s-.61-.27-.61-.61.27-.61.61-.61.61.27.61.61h0"/>
                <path id="Path_3641632" data-name="Path 3641632" class="cls-14" d="M193.1,21.17c0,.2-.16.37-.37.37s-.37-.16-.37-.37c0-.2.16-.37.37-.37h0c.2,0,.37.16.37.37"/>
                <path id="Path_3641635" data-name="Path 3641635" class="cls-13" d="M253.69,3.91c0,.71-.57,1.28-1.28,1.28s-1.28-.57-1.28-1.28.57-1.28,1.28-1.28c.71,0,1.28.57,1.28,1.28h0"/>
                <path id="Path_3641636" data-name="Path 3641636" class="cls-10" d="M200.12,17.24c0,.76-.61,1.37-1.37,1.37s-1.37-.61-1.37-1.37c0-.76.61-1.37,1.37-1.37s1.37.61,1.37,1.37h0"/>
                <path id="Path_3641638" data-name="Path 3641638" class="cls-16" d="M218.15,8.86c0,.78-.63,1.42-1.42,1.42s-1.42-.63-1.42-1.42.63-1.42,1.42-1.42,1.42.63,1.42,1.42h0"/>
                <path id="Path_3641640" data-name="Path 3641640" class="cls-13" d="M243.31,29.54c0,.68-.55,1.24-1.24,1.24-.68,0-1.24-.55-1.24-1.24s.55-1.24,1.24-1.24h0c.68,0,1.24.55,1.24,1.24"/>
                <path id="Path_3641643" data-name="Path 3641643" class="cls-14" d="M249.67,18.96c0,.23-.18.41-.41.41-.23,0-.41-.18-.41-.41,0-.23.18-.41.41-.41h0c.22,0,.41.18.41.41"/>
                <path id="Path_3641646" data-name="Path 3641646" class="cls-11" d="M184.82,22.73c0,.44-.36.79-.79.79-.44,0-.8-.36-.8-.79,0-.44.36-.79.79-.79h0c.44,0,.79.36.8.79"/>
                <path id="Path_3641647" data-name="Path 3641647" class="cls-9" d="M239.51,20.08c0,.25-.21.46-.46.46s-.46-.21-.46-.46.21-.46.46-.46h0c.25,0,.46.21.46.46"/>
                <path id="Path_3641651" data-name="Path 3641651" class="cls-8" d="M237.35,1.83c0,.2-.17.37-.37.37-.2,0-.37-.17-.37-.37s.17-.37.37-.37h0c.2,0,.37.17.37.37"/>
                <path id="Path_3641654" data-name="Path 3641654" class="cls-9" d="M219.64,9.29c0,.51-.41.92-.92.92-.51,0-.92-.41-.92-.92,0-.51.41-.92.92-.92h0c.51,0,.92.41.92.92"/>
                <path id="Path_3641655" data-name="Path 3641655" class="cls-18" d="M196.27,36.34c0,.59-.48,1.08-1.08,1.08-.59,0-1.08-.48-1.08-1.08,0-.59.48-1.08,1.08-1.08.59,0,1.08.48,1.08,1.08h0"/>
                <path id="Path_3641656" data-name="Path 3641656" class="cls-14" d="M236.61,33.49c0,.77-.63,1.4-1.4,1.4-.77,0-1.4-.63-1.4-1.4s.63-1.4,1.4-1.4h0c.77,0,1.4.63,1.4,1.4"/>
                <path id="Path_3641657" data-name="Path 3641657" class="cls-15" d="M180.61,30.88c0,.29-.23.52-.52.52s-.52-.23-.52-.52c0-.29.23-.52.52-.52h0c.29,0,.52.23.52.52"/>
                <path id="Path_3641658" data-name="Path 3641658" class="cls-8" d="M189.46,18.81c0,.49-.4.88-.88.88s-.88-.4-.88-.88c0-.49.4-.88.88-.88s.88.4.88.88h0"/>
                <path id="Path_3641659" data-name="Path 3641659" class="cls-15" d="M204.77,12.27c0,.68-.55,1.23-1.23,1.23s-1.23-.55-1.23-1.23c0-.68.55-1.23,1.23-1.23s1.23.55,1.23,1.23h0"/>
                <path id="Path_3641660" data-name="Path 3641660" class="cls-18" d="M261.57,3.92c0,.57-.47,1.04-1.04,1.04-.57,0-1.04-.47-1.04-1.04,0-.57.47-1.04,1.04-1.04.57,0,1.04.46,1.04,1.04h0"/>
                <path id="Path_3641661" data-name="Path 3641661" class="cls-11" d="M209.52,33.27c0,.49-.39.88-.88.88-.49,0-.88-.39-.88-.88,0-.49.39-.88.88-.88h0c.49,0,.88.39.88.88"/>
                <path id="Path_3641662" data-name="Path 3641662" class="cls-16" d="M204.21,22.02c0,.36-.29.65-.65.65s-.65-.29-.65-.65.29-.65.65-.65h0c.36,0,.65.29.65.65"/>
                <path id="Path_3641663" data-name="Path 3641663" class="cls-19" d="M245.48,10.41c0,.6-.49,1.08-1.08,1.08-.6,0-1.08-.49-1.08-1.08,0-.6.48-1.08,1.08-1.08.6,0,1.08.48,1.08,1.08"/>
                <path id="Path_3641664" data-name="Path 3641664" class="cls-9" d="M254.56,11.62c0,.39-.32.71-.71.71-.39,0-.71-.32-.71-.71s.32-.71.71-.71.71.32.71.71h0"/>
                <path id="Path_3641666" data-name="Path 3641666" class="cls-10" d="M237.59,14.26c0,.54-.44.98-.98.98-.54,0-.98-.44-.98-.98s.44-.98.98-.98h0c.54,0,.98.44.98.98"/>
                <path id="Path_3641667" data-name="Path 3641667" class="cls-11" d="M246.78,17.36c0,.76-.62,1.38-1.38,1.38-.76,0-1.38-.62-1.38-1.38s.62-1.38,1.38-1.38h0c.76,0,1.38.62,1.38,1.38"/>
                <path id="Path_3641668" data-name="Path 3641668" class="cls-17" d="M199.76,3.49c0,.57-.47,1.04-1.04,1.04s-1.04-.47-1.04-1.04.47-1.04,1.04-1.04,1.04.47,1.04,1.04h0"/>
                <path id="Path_3641669" data-name="Path 3641669" class="cls-13" d="M215.89,22.21c0,.57-.46,1.03-1.03,1.03s-1.03-.46-1.03-1.03.46-1.03,1.03-1.03c.57,0,1.03.46,1.03,1.03"/>
                <path id="Path_3641671" data-name="Path 3641671" class="cls-12" d="M249.72,22.2c0,.49-.39.88-.88.88s-.88-.39-.88-.88c0-.49.39-.88.88-.88.49,0,.88.4.88.88"/>
                <path id="Path_3641672" data-name="Path 3641672" class="cls-9" d="M177.48,17.39c0,.23-.18.41-.41.41s-.41-.18-.41-.41c0-.23.18-.41.41-.41s.41.18.41.41h0"/>
                <path id="Path_3641675" data-name="Path 3641675" class="cls-16" d="M172.45,5.61c0,.41-.33.74-.73.74-.41,0-.74-.33-.74-.73s.33-.74.73-.74h0c.41,0,.73.33.73.73"/>
                <path id="Path_3641676" data-name="Path 3641676" class="cls-11" d="M217.26,30.67c0,.34-.27.61-.61.61s-.61-.27-.61-.61.27-.61.61-.61.61.27.61.61h0"/>
                <path id="Path_3641679" data-name="Path 3641679" class="cls-13" d="M193.09,26.67c0,.57-.46,1.03-1.03,1.03s-1.03-.46-1.03-1.03c0-.57.46-1.03,1.03-1.03h0c.57,0,1.03.46,1.03,1.03"/>
                <path id="Path_3641681" data-name="Path 3641681" class="cls-16" d="M236.94,27.32c0,.42-.34.76-.76.76s-.76-.34-.76-.76.34-.76.76-.76.76.34.76.76h0"/>
                <path id="Path_3641682" data-name="Path 3641682" class="cls-18" d="M228.29,37.93c0,.2-.17.37-.37.37-.2,0-.37-.17-.37-.37,0-.2.16-.37.37-.37.2,0,.37.17.37.37h0"/>
                <path id="Path_3641683" data-name="Path 3641683" class="cls-12" d="M188.09,8.44c0,.52-.42.94-.94.94-.52,0-.94-.42-.94-.94,0-.52.42-.94.94-.94h0c.52,0,.94.42.94.94"/>
                <path id="Path_3641684" data-name="Path 3641684" class="cls-19" d="M228.95,19.75c0,.68-.55,1.24-1.24,1.24s-1.24-.55-1.24-1.24c0-.68.55-1.24,1.24-1.24s1.24.55,1.24,1.24h0"/>
                <path id="Path_3641687" data-name="Path 3641687" class="cls-18" d="M212.88,3.7c0,.56-.45,1.01-1.01,1.01s-1.01-.45-1.01-1.01c0-.56.45-1.01,1.01-1.01s1.01.45,1.01,1.01h0"/>
                <path id="Path_3641689" data-name="Path 3641689" class="cls-13" d="M349.43,39.42c0,.29-.24.53-.53.53s-.53-.24-.53-.53.24-.53.53-.53h0c.29,0,.53.24.53.53"/>
                <path id="Path_3641690" data-name="Path 3641690" class="cls-15" d="M304.9,42.99c0,.23-.19.42-.42.42-.23,0-.42-.19-.42-.42s.19-.42.42-.42.42.19.42.42h0"/>
                <path id="Path_3641691" data-name="Path 3641691" class="cls-12" d="M289.1,36.88c0,.34-.28.62-.62.62s-.62-.28-.62-.62.28-.62.62-.62h0c.34,0,.62.28.62.62"/>
                <path id="Path_3641692" data-name="Path 3641692" class="cls-9" d="M289.88,66.56c0,.59-.48,1.07-1.07,1.07s-1.07-.48-1.07-1.07.48-1.07,1.07-1.07,1.07.48,1.07,1.07h0"/>
                <path id="Path_3641693" data-name="Path 3641693" class="cls-15" d="M309.87,59.02c0,.69-.56,1.26-1.26,1.26-.69,0-1.26-.56-1.26-1.26s.56-1.26,1.26-1.26h0c.69,0,1.26.56,1.26,1.26"/>
                <path id="Path_3641697" data-name="Path 3641697" class="cls-12" d="M356.53,50.64c0,.32-.26.58-.58.58-.32,0-.58-.26-.58-.58s.26-.58.58-.58h0c.32,0,.58.26.58.58"/>
                <path id="Path_3641698" data-name="Path 3641698" class="cls-12" d="M349.43,50.72c0,.52-.42.93-.93.93s-.93-.42-.93-.93.42-.93.93-.93h0c.52,0,.93.42.93.93"/>
                <path id="Path_3641699" data-name="Path 3641699" class="cls-19" d="M346.52,64.3c0,.23-.18.41-.41.41-.23,0-.41-.18-.41-.41s.18-.41.41-.41h0c.23,0,.41.18.41.41"/>
                <path id="Path_3641701" data-name="Path 3641701" class="cls-15" d="M289.93,58.11c0,.71-.58,1.29-1.29,1.29s-1.29-.58-1.29-1.29.58-1.29,1.29-1.29h0c.71,0,1.29.58,1.29,1.29"/>
                <path id="Path_3641703" data-name="Path 3641703" class="cls-12" d="M328.05,47.87c0,.69-.56,1.25-1.25,1.25s-1.25-.56-1.25-1.25.56-1.25,1.25-1.25c.69,0,1.25.56,1.25,1.25"/>
                <path id="Path_3641705" data-name="Path 3641705" class="cls-8" d="M327.7,61.23c0,.53-.43.96-.96.96s-.96-.43-.96-.96.43-.96.96-.96.96.43.96.96h0"/>
                <path id="Path_3641707" data-name="Path 3641707" class="cls-17" d="M305.03,70.15c0,.22-.18.4-.4.4s-.4-.18-.4-.4c0-.22.18-.4.4-.4h0c.22,0,.4.18.4.4"/>
                <path id="Path_3641709" data-name="Path 3641709" class="cls-10" d="M272.8,49.17c0,.21-.17.39-.39.39s-.39-.17-.39-.39.17-.39.39-.39h0c.21,0,.39.17.39.39"/>
                <path id="Path_3641710" data-name="Path 3641710" class="cls-16" d="M317.59,40.44c0,.4-.33.73-.73.73-.4,0-.73-.33-.73-.73s.33-.73.73-.73h0c.4,0,.73.33.73.73"/>
                <path id="Path_3641716" data-name="Path 3641716" class="cls-12" d="M296.79,53.22c0,.22-.18.4-.4.4s-.4-.18-.4-.4.18-.4.4-.4h0c.22,0,.4.18.4.4"/>
                <path id="Path_3641717" data-name="Path 3641717" class="cls-9" d="M319.54,67.37c0,.73-.59,1.33-1.33,1.33-.73,0-1.33-.59-1.33-1.33s.59-1.33,1.33-1.33h0c.73,0,1.33.59,1.33,1.33"/>
                <path id="Path_3641718" data-name="Path 3641718" class="cls-10" d="M317.53,53.19c0,.74-.6,1.34-1.34,1.34s-1.34-.6-1.34-1.34.6-1.34,1.34-1.34,1.34.6,1.34,1.34h0"/>
                <path id="Path_3641720" data-name="Path 3641720" class="cls-13" d="M340.61,47.93c0,.21-.17.38-.38.38s-.38-.17-.38-.38.17-.38.38-.38.38.17.38.38h0"/>
                <path id="Path_3641721" data-name="Path 3641721" class="cls-16" d="M278.23,69.42c0,.21-.17.39-.39.39s-.39-.17-.39-.39.17-.39.39-.39.39.17.39.39h0"/>
                <path id="Path_3641727" data-name="Path 3641727" class="cls-8" d="M298.34,63.6c0,.79-.64,1.42-1.42,1.42-.79,0-1.42-.64-1.42-1.42,0-.79.64-1.42,1.42-1.42h0c.79,0,1.42.64,1.42,1.42"/>
                <path id="Path_3641728" data-name="Path 3641728" class="cls-17" d="M316.82,73.97c0,.28-.22.5-.5.5s-.5-.22-.5-.5.22-.5.5-.5.5.22.5.5"/>
                <path id="Path_3641729" data-name="Path 3641729" class="cls-16" d="M338.62,35.8c0,.36-.29.65-.65.65s-.65-.29-.65-.65.29-.65.65-.65h0c.36,0,.65.29.65.65"/>
                <path id="Path_3641730" data-name="Path 3641730" class="cls-9" d="M284.82,74.61c0,.37-.3.68-.67.68-.37,0-.68-.3-.68-.67,0-.37.3-.68.67-.68h0c.37,0,.67.3.67.67"/>
                <path id="Path_3641733" data-name="Path 3641733" class="cls-19" d="M335.61,65.78c0,.34-.28.62-.62.62-.34,0-.62-.28-.62-.62s.28-.62.62-.62h0c.34,0,.62.28.62.62"/>
                <path id="Path_3641734" data-name="Path 3641734" class="cls-13" d="M285.17,28.88c0,.23-.19.42-.42.42s-.42-.19-.42-.42.19-.42.42-.42h0c.23,0,.42.19.42.42"/>
                <path id="Path_3641735" data-name="Path 3641735" class="cls-18" d="M304.18,31.45c0,.41-.33.75-.75.75-.41,0-.75-.33-.75-.75s.33-.75.75-.75c.41,0,.75.33.75.75"/>
                <path id="Path_3641737" data-name="Path 3641737" class="cls-17" d="M294.93,46.64c0,.61-.49,1.1-1.1,1.1s-1.1-.49-1.1-1.1.49-1.1,1.1-1.1,1.1.49,1.1,1.1h0"/>
                <path id="Path_3641738" data-name="Path 3641738" class="cls-19" d="M315.06,42.75c0,.27-.22.49-.49.49-.27,0-.49-.22-.49-.49,0-.27.22-.49.49-.49.27,0,.49.22.49.49h0"/>
                <path id="Path_3641740" data-name="Path 3641740" class="cls-13" d="M332.26,47.32c0,.44-.36.8-.8.8-.44,0-.8-.36-.8-.8s.36-.8.8-.8h0c.44,0,.8.36.8.8"/>
                <path id="Path_3641742" data-name="Path 3641742" class="cls-10" d="M361.77,63.08c0,.72-.59,1.31-1.31,1.31s-1.31-.59-1.31-1.31c0-.72.59-1.31,1.31-1.31s1.31.59,1.31,1.31h0"/>
                <path id="Path_3641744" data-name="Path 3641744" class="cls-19" d="M355.03,55.75c0,.29-.24.53-.53.53s-.53-.24-.53-.53.24-.53.53-.53.53.24.53.53h0"/>
                <path id="Path_3641745" data-name="Path 3641745" class="cls-15" d="M290.67,45.96c0,.4-.32.72-.72.72s-.72-.32-.72-.72.32-.72.72-.72h0c.4,0,.72.32.72.72"/>
                <path id="Path_3641746" data-name="Path 3641746" class="cls-19" d="M304.32,45.81c0,.35-.29.64-.64.64s-.64-.29-.64-.64.29-.64.64-.64h0c.35,0,.64.29.64.64"/>
                <path id="Path_3641747" data-name="Path 3641747" class="cls-10" d="M340.25,33.11c0,.65-.53,1.18-1.18,1.18s-1.18-.53-1.18-1.18.53-1.18,1.18-1.18h0c.65,0,1.18.53,1.18,1.18"/>
                <path id="Path_3641748" data-name="Path 3641748" class="cls-15" d="M284.86,63.62c0,.29-.24.53-.53.53s-.53-.24-.53-.53.24-.53.53-.53h0c.29,0,.53.24.53.53"/>
                <path id="Path_3641749" data-name="Path 3641749" class="cls-10" d="M295.64,71.87c0,.39-.31.7-.7.7-.39,0-.7-.31-.7-.7,0-.39.31-.7.7-.7h0c.39,0,.7.31.7.7"/>
                <path id="Path_3641751" data-name="Path 3641751" class="cls-19" d="M356.92,37.66c0,.45-.37.82-.82.82s-.82-.37-.82-.82c0-.45.37-.82.82-.82.45,0,.82.37.82.82"/>
                <path id="Path_3641756" data-name="Path 3641756" class="cls-16" d="M297.74,50.03c0,.7-.57,1.26-1.26,1.26s-1.26-.57-1.26-1.26.57-1.26,1.26-1.26,1.26.57,1.26,1.26h0"/>
                <path id="Path_3641757" data-name="Path 3641757" class="cls-17" d="M348.24,63.68c0,.25-.2.46-.46.46-.25,0-.46-.2-.46-.46,0-.25.2-.46.45-.46h0c.25,0,.45.2.45.46"/>
                <path id="Path_3641758" data-name="Path 3641758" class="cls-16" d="M346.12,42.22c0,.28-.23.51-.51.51s-.51-.23-.51-.51c0-.28.23-.51.51-.51h0c.28,0,.51.23.51.5h0"/>
                <path id="Path_3641759" data-name="Path 3641759" class="cls-10" d="M296.99,36.9c0,.23-.18.41-.41.41-.23,0-.41-.18-.41-.41,0-.23.18-.41.41-.41.22,0,.41.18.41.41h0"/>
                <path id="Path_3641760" data-name="Path 3641760" class="cls-13" d="M316.46,30.47c0,.29-.23.52-.52.52-.29,0-.52-.23-.52-.52s.23-.52.52-.52.52.23.52.52h0"/>
                <path id="Path_3641763" data-name="Path 3641763" class="cls-8" d="M319.23,64.61c0,.51-.41.92-.92.92s-.92-.41-.92-.92.41-.92.92-.92h0c.51,0,.92.41.92.92"/>
                <path id="Path_3641764" data-name="Path 3641764" class="cls-9" d="M336.42,57.33c0,.55-.44.99-.99.99-.55,0-.99-.44-.99-.99s.44-.99.99-.99h0c.55,0,.99.44.99.99"/>
                <path id="Path_3641765" data-name="Path 3641765" class="cls-13" d="M304.69,66.72c0,.3-.25.55-.55.55-.3,0-.55-.25-.55-.55s.25-.55.55-.55.55.25.55.55h0"/>
                <path id="Path_3641767" data-name="Path 3641767" class="cls-8" d="M329.99,37.34c0,.4-.32.72-.72.72-.4,0-.72-.32-.72-.72s.32-.72.72-.72.72.32.72.72h0"/>
                <path id="Path_3641769" data-name="Path 3641769" class="cls-9" d="M352.34,73.87c0,.29-.23.52-.52.52-.29,0-.52-.23-.52-.52s.23-.52.52-.52h0c.29,0,.52.23.52.52"/>
                <path id="Path_3641770" data-name="Path 3641770" class="cls-15" d="M332.01,66.87c0,.22-.18.4-.4.4s-.4-.18-.4-.4c0-.22.18-.4.4-.4h0c.22,0,.4.18.4.4"/>
                <path id="Path_3641772" data-name="Path 3641772" class="cls-16" d="M309.83,53.11c0,.3-.25.55-.55.55-.3,0-.55-.25-.55-.55s.25-.55.55-.55.55.25.55.55h0"/>
                <path id="Path_3641773" data-name="Path 3641773" class="cls-19" d="M319.76,56.21c0,.6-.49,1.09-1.09,1.09s-1.09-.49-1.09-1.09.49-1.09,1.09-1.09,1.09.49,1.09,1.09h0"/>
                <path id="Path_3641775" data-name="Path 3641775" class="cls-14" d="M303.61,44.08c0,.26-.21.46-.46.46-.26,0-.46-.21-.46-.46s.21-.46.46-.46h0c.26,0,.46.21.46.46"/>
                <path id="Path_3641777" data-name="Path 3641777" class="cls-12" d="M304.54,58.52c0,.29-.24.53-.53.53-.29,0-.53-.24-.53-.53s.24-.53.53-.53h0c.29,0,.53.24.53.53h0"/>
                <path id="Path_3641778" data-name="Path 3641778" class="cls-10" d="M291.14,71.09c0,.32-.26.59-.59.59s-.59-.26-.59-.59.26-.59.59-.59h0c.32,0,.59.26.59.59"/>
                <path id="Path_3641779" data-name="Path 3641779" class="cls-17" d="M296.05,46.19c0,.21-.17.37-.38.37s-.37-.17-.37-.38c0-.21.17-.37.37-.37.21,0,.37.17.38.37h0"/>
                <path id="Path_3641780" data-name="Path 3641780" class="cls-10" d="M311.62,50.72c0,.21-.17.38-.38.38-.21,0-.38-.17-.38-.38s.17-.38.38-.38.38.17.38.38h0"/>
                <path id="Path_3641781" data-name="Path 3641781" class="cls-15" d="M287.1,60.18c0,.61-.5,1.11-1.11,1.11s-1.11-.5-1.11-1.11.5-1.11,1.11-1.11h0c.61,0,1.11.5,1.11,1.11"/>
                <path id="Path_3641782" data-name="Path 3641782" class="cls-10" d="M307.88,71.84c0,.32-.26.58-.58.58s-.58-.26-.58-.58c0-.32.26-.58.58-.58s.58.26.58.58h0"/>
                <path id="Path_3641783" data-name="Path 3641783" class="cls-12" d="M290.01,58.98c0,.5-.4.9-.9.9s-.9-.4-.9-.9.4-.9.9-.9h0c.5,0,.9.4.9.9"/>
                <path id="Path_3641784" data-name="Path 3641784" class="cls-18" d="M276.65,57.15c0,.22-.18.4-.4.4s-.4-.18-.4-.4.18-.4.4-.4h0c.22,0,.4.18.4.4"/>
                <path id="Path_3641785" data-name="Path 3641785" class="cls-13" d="M281.04,68.03c0,.25-.21.46-.46.46s-.46-.21-.46-.46.21-.46.46-.46.46.21.46.46h0"/>
                <path id="Path_3641786" data-name="Path 3641786" class="cls-12" d="M300.83,59.98c0,.34-.27.61-.61.61s-.61-.27-.61-.61.27-.61.61-.61h0c.34,0,.61.27.61.61"/>
                <path id="Path_3641788" data-name="Path 3641788" class="cls-17" d="M310.84,57.41c0,.35-.28.63-.63.63s-.63-.28-.63-.63.28-.63.63-.63h0c.35,0,.63.28.63.63"/>
                <path id="Path_3641791" data-name="Path 3641791" class="cls-14" d="M286,73.53c0,.69-.56,1.25-1.26,1.25-.69,0-1.25-.56-1.25-1.26,0-.69.56-1.25,1.25-1.25.69,0,1.26.56,1.26,1.25h0"/>
                <path id="Path_3641795" data-name="Path 3641795" class="cls-8" d="M270.58,69.23c0,.28-.22.5-.5.5s-.5-.22-.5-.5.22-.5.5-.5.5.22.5.5"/>
                <path id="Path_3641797" data-name="Path 3641797" class="cls-13" d="M310.97,69.56c0,.51-.41.92-.92.92s-.92-.41-.92-.92.41-.92.92-.92h0c.51,0,.92.41.92.92"/>
                <path id="Path_3641798" data-name="Path 3641798" class="cls-18" d="M299.37,74.79c0,.46-.37.83-.84.83s-.83-.37-.83-.84.37-.83.84-.83h0c.46,0,.83.37.83.84"/>
                <path id="Path_3641801" data-name="Path 3641801" class="cls-17" d="M202.32,8.69c0,.74-.6,1.35-1.35,1.35s-1.35-.6-1.35-1.35.6-1.35,1.35-1.35,1.35.6,1.35,1.35h0"/>
                <path id="Path_3641802" data-name="Path 3641802" class="cls-9" d="M227.66,15.09c0,.24-.2.44-.44.44s-.44-.2-.44-.44.2-.44.44-.44c.24,0,.44.19.44.44h0"/>
                <path id="Path_3641803" data-name="Path 3641803" class="cls-11" d="M227.39,25.59c0,.34-.28.62-.62.62s-.62-.28-.62-.62.28-.62.62-.62h0c.34,0,.62.28.62.62"/>
                <path id="Path_3641804" data-name="Path 3641804" class="cls-9" d="M252.94,5.06c0,.43-.35.79-.79.79s-.79-.35-.79-.79c0-.43.35-.79.79-.79h0c.43,0,.79.35.79.79"/>
                <path id="Path_3641808" data-name="Path 3641808" class="cls-18" d="M203.78,28.27c0,.25-.21.46-.46.46s-.46-.21-.46-.46.21-.46.46-.46.46.21.46.46h0"/>
                <path id="Path_3641809" data-name="Path 3641809" class="cls-13" d="M218.98,32.4c0,.5-.41.91-.91.91s-.91-.41-.91-.91c0-.5.41-.91.91-.91.5,0,.91.41.91.91h0"/>
                <path id="Path_3641810" data-name="Path 3641810" class="cls-10" d="M237.65,27.51c0,.79-.64,1.44-1.43,1.44-.79,0-1.44-.64-1.44-1.43,0-.79.64-1.44,1.43-1.44h0c.79,0,1.43.64,1.43,1.43h0"/>
                <path id="Path_3641811" data-name="Path 3641811" class="cls-15" d="M224.91,8.24c0,.21-.17.39-.39.39s-.39-.17-.39-.39.17-.39.39-.39c.21,0,.39.17.39.39"/>
                <path id="Path_3641812" data-name="Path 3641812" class="cls-11" d="M215.18,15.25c0,.29-.24.53-.53.53s-.53-.24-.53-.53.24-.53.53-.53h0c.29,0,.53.24.53.53"/>
                <path id="Path_3641813" data-name="Path 3641813" class="cls-13" d="M241.57,3.88c0,.64-.52,1.15-1.15,1.15s-1.15-.52-1.15-1.15.52-1.15,1.15-1.15h0c.64,0,1.15.52,1.15,1.15"/>
                <path id="Path_3641814" data-name="Path 3641814" class="cls-17" d="M241.19,16.25c0,.44-.36.8-.8.8s-.8-.36-.8-.8c0-.44.36-.8.8-.8s.8.36.8.8h0"/>
                <path id="Path_3641815" data-name="Path 3641815" class="cls-9" d="M241.62,36.75c0,.41-.33.74-.74.74s-.74-.33-.74-.74.33-.74.74-.74h0c.41,0,.74.33.74.74"/>
                <path id="Path_3641816" data-name="Path 3641816" class="cls-9" d="M245.26,19.9c0,.35-.28.63-.63.63s-.63-.28-.63-.63c0-.35.28-.63.63-.63h0c.35,0,.63.28.63.63"/>
                <path id="Path_3641819" data-name="Path 3641819" class="cls-15" d="M214.99,2.35c0,.59-.47,1.06-1.06,1.06-.59,0-1.06-.47-1.06-1.06,0-.59.47-1.06,1.06-1.06h0c.59,0,1.06.47,1.06,1.06"/>
              </g>
            </g>
          </g>
        </g>
      </g>
    </g>
    <g id="Group_3417485" data-name="Group 3417485">
      <g id="Group_3258924" data-name="Group 3258924">
        <path id="Path_2922334" data-name="Path 2922334" class="cls-3" d="M238.41,20.32v38.07h55.52V20.32h-55.52M235.09,17h62.16v44.71h-62.16V17Z"/>
        <path id="Path_3494300" data-name="Path 3494300" class="cls-5" d="M246.71,45.37h1.57l1.87,3.38h.08l1.87-3.38h1.56l-2.78,4.79v2.85h-1.38v-2.85l-2.78-4.79ZM255.69,53.02v-7.64h4.97v1.16h-3.59v2.08h3.33v1.16h-3.33v2.09h3.61v1.16h-5ZM264.11,53.02h-1.48l2.69-7.64h1.71l2.7,7.65h-1.48l-2.04-6.08h-.06l-2.04,6.07ZM264.16,50.02h4.03v1.11h-4.03v-1.11ZM271.79,53.02v-7.64h2.87c.51-.02,1.02.09,1.48.31.38.19.7.49.91.86.21.39.32.84.31,1.28.01.45-.1.89-.31,1.27-.21.36-.53.66-.92.83-.47.21-.97.31-1.49.29h-2.04v-1.15h1.86c.29,0,.57-.04.84-.15.2-.08.38-.23.49-.42.11-.21.17-.45.16-.69,0-.24-.05-.48-.16-.7-.11-.19-.28-.35-.49-.44-.27-.11-.56-.16-.85-.15h-1.27v6.49h-1.38ZM275.74,49.55l1.89,3.47h-1.54l-1.86-3.46h1.51ZM283.84,47.47c-.02-.31-.19-.59-.44-.76-.3-.19-.65-.29-1-.27-.25,0-.51.04-.74.13-.19.07-.35.2-.47.35-.11.15-.17.33-.17.51,0,.15.03.29.11.41.08.12.18.22.3.3.13.08.27.15.42.2.15.05.31.1.47.14l.72.18c.29.07.56.16.83.27.26.11.5.26.72.43.21.17.38.39.51.63.13.27.19.57.19.87,0,.42-.11.83-.34,1.18-.25.36-.59.63-.99.8-.5.2-1.03.3-1.57.29-.53.01-1.06-.08-1.55-.28-.41-.16-.77-.44-1.02-.81-.26-.38-.39-.83-.4-1.29h1.36c.01.24.1.47.25.66.15.18.34.32.57.4.25.09.52.13.78.13.27,0,.54-.04.79-.14.21-.08.39-.21.54-.38.13-.16.2-.36.2-.57,0-.18-.06-.36-.17-.49-.13-.14-.3-.26-.48-.33-.23-.1-.47-.18-.72-.24l-.87-.22c-.55-.12-1.06-.37-1.49-.74-.37-.34-.57-.82-.55-1.32,0-.42.12-.84.37-1.18.26-.35.6-.62,1-.79.45-.19.94-.29,1.44-.28.49-.01.98.09,1.43.28.39.17.72.44.97.78.23.34.36.73.36,1.14h-1.33Z"/>
        <g id="Group_3258924-2" data-name="Group 3258924-2">
          <g id="Group_3258706" data-name="Group 3258706">
            <path id="Path_3494298" data-name="Path 3494298" class="cls-6" d="M263.37,42.49c-1.33.03-2.65-.32-3.79-1.01-1.09-.7-1.95-1.71-2.46-2.9-.61-1.43-.9-2.98-.86-4.54-.04-1.55.26-3.09.87-4.51.51-1.17,1.37-2.15,2.45-2.82,1.15-.67,2.46-1,3.78-.97,1.33-.03,2.64.3,3.79.97,1.09.67,1.94,1.66,2.46,2.83.61,1.42.9,2.96.86,4.5.04,1.56-.25,3.12-.86,4.56-.51,1.19-1.37,2.2-2.46,2.9-1.14.69-2.45,1.04-3.78,1ZM263.37,38.94c.79-.02,1.51-.48,1.86-1.18.56-1.16.81-2.44.72-3.72.02-.92-.09-1.83-.33-2.71-.16-.59-.47-1.13-.91-1.56-.37-.33-.84-.51-1.34-.51-.78.01-1.49.46-1.85,1.15-.56,1.13-.81,2.38-.73,3.63-.03.94.08,1.87.32,2.78.15.61.47,1.17.92,1.61.37.34.84.52,1.34.52ZM278.87,42.49c-1.33.03-2.65-.32-3.79-1.01-1.09-.7-1.95-1.71-2.46-2.9-.61-1.43-.9-2.98-.86-4.54-.04-1.55.26-3.09.87-4.51.51-1.17,1.37-2.15,2.45-2.82,1.15-.67,2.46-1,3.78-.97,1.33-.03,2.64.3,3.79.97,1.09.67,1.94,1.66,2.46,2.83.61,1.42.9,2.96.86,4.5.04,1.57-.26,3.12-.87,4.56-.51,1.19-1.37,2.2-2.46,2.9-1.14.69-2.45,1.03-3.78,1h0ZM278.87,38.94c.79-.02,1.51-.48,1.86-1.18.56-1.16.81-2.44.72-3.72.02-.92-.09-1.83-.33-2.71-.16-.59-.47-1.13-.91-1.56-.37-.33-.84-.51-1.34-.51-.78.01-1.49.46-1.85,1.15-.56,1.13-.81,2.38-.73,3.63-.03.94.08,1.87.32,2.78.15.61.47,1.17.92,1.61.36.34.84.52,1.34.52h0Z"/>
            <path id="Path_3494299" data-name="Path 3494299" class="cls-4" d="M253.94,26.35v15.69h-4.26v-11.77h-.09l-3.43,2.05v-3.61l3.86-2.36h3.92Z"/>
          </g>
        </g>
      </g>
      <g id="wordmark-white">
        <g id="Group_3417529" data-name="Group 3417529">
          <rect id="Rectangle_26693" data-name="Rectangle 26693" class="cls-2" y="17" width="221.81" height="44.18"/>
          <path class="cls-7" d="M188.61,45.67h0c0-.61.49-1.11,1.1-1.11.61,0,1.1.49,1.1,1.1h0c0,.61-.49,1.11-1.1,1.11-.61,0-1.1-.49-1.1-1.1h0ZM190.68,45.66h0c0-.54-.44-.98-.98-.98-.54,0-.97.44-.97.98h0c0,.54.44.98.98.98.54,0,.97-.44.97-.98ZM189.28,45.08h.51c.25,0,.43.12.43.35,0,.16-.1.3-.26.34l.3.42h-.26l-.27-.39h-.23v.39h-.21v-1.12ZM189.77,45.64c.15,0,.23-.08.23-.18s-.08-.18-.23-.18h-.27v.37h.27ZM30.81,44.42h1.24l-.04,10.87h-1.21v-10.87ZM37.62,44.42h1.16l6.85,8.69v-8.69h1.2v10.87h-.96l-7.03-8.89-.03,8.9h-1.17v-10.88ZM55.19,45.57h-3.64v-1.14h8.55v1.13h-3.65v9.74h-1.24v-9.74ZM64.82,44.38h7.86v1.12h-6.62v3.7s5.93.02,5.93.02v1.11s-5.94,0-5.94,0v3.8s6.71.03,6.71.03v1.1s-7.94,0-7.94,0v-10.88ZM77.64,44.42h4.35c1.26-.13,2.52.27,3.46,1.11.48.57.76,1.28.8,2.02h0c.08,1.71-1.23,3.18-2.94,3.3l3.34,4.44h-1.52l-3.16-4.22h-3.09l-.02,4.22h-1.23v-10.87ZM81.91,49.98c2.34,0,3.1-1.06,3.12-2.38h0c-.16-1.08-.64-2.06-3.07-2.06l-3.1.02v4.4l3.05.02ZM91.3,44.42h1.17l6.85,8.73v-8.73h1.2v10.87h-.99l-7.01-8.89v8.9h-1.21l-.02-10.88ZM110.03,44.34h1.15l4.96,10.95h-1.32l-1.25-2.86h-5.94s-1.29,2.86-1.29,2.86h-1.26l4.96-10.95ZM113.06,51.3l-2.46-5.52-2.49,5.52h4.95ZM122.17,45.55h-3.64s0-1.13,0-1.13h8.55v1.14h-3.65v9.73h-1.24v-9.74ZM131.9,44.42h1.23v10.87h-1.23v-10.87ZM138.25,49.89v-.03c-.06-3.04,2.36-5.56,5.4-5.62.02,0,.04,0,.06,0,3-.11,5.51,2.23,5.62,5.23,0,.12,0,.24,0,.36h0c.1,3.06-2.3,5.62-5.36,5.72-3.06.1-5.62-2.3-5.72-5.36,0-.1,0-.19,0-.29h0ZM148.08,49.87v-.03c.1-2.37-1.75-4.37-4.12-4.47-.05,0-.1,0-.15,0-2.35-.01-4.26,1.88-4.28,4.23,0,.08,0,.16,0,.24v.03c-.08,1.99,1.2,3.78,3.11,4.35,2.29.63,4.66-.71,5.29-3,.12-.44.17-.89.15-1.34h0ZM154.35,44.42h1.15l6.85,8.71v-8.71h1.21v10.87h-.99l-7.02-8.9v8.9h-1.2v-10.87ZM173.09,44.34h1.15l4.95,10.95h-1.32l-1.29-2.88h-5.9s-1.3,2.88-1.3,2.88h-1.25l4.97-10.95ZM176.12,51.29l-2.48-5.52-2.47,5.53,4.96-.02ZM183.75,44.42h1.22v9.74s6.13,0,6.13,0v1.12h-7.36v-10.87ZM12.24,26.77h-5.29v-3.36h14.42v3.36h-5.3v13.22h-3.82v-13.22ZM22.78,31.74v-.05c0-4.71,3.9-8.57,9.27-8.57s9.22,3.81,9.22,8.53v.05c0,4.71-3.9,8.58-9.27,8.58s-9.22-3.81-9.22-8.53ZM37.27,31.74v-.05c.03-2.85-2.25-5.18-5.1-5.21-.06,0-.11,0-.17,0-2.8-.08-5.14,2.13-5.22,4.93,0,.08,0,.16,0,.24v.05c-.03,2.85,2.25,5.18,5.1,5.21.06,0,.11,0,.17,0,2.8.08,5.14-2.13,5.22-4.93,0-.08,0-.16,0-.24ZM49.53,23.28h3.53l7.46,16.7h-4l-1.59-3.72h-7.35l-1.59,3.72h-3.9l7.45-16.7ZM53.55,33.04l-2.31-5.38-2.31,5.38h4.62ZM61.75,37.57l2.26-2.58c1.44,1.26,3.28,1.97,5.19,2.01,1.57,0,2.51-.59,2.51-1.56v-.05c0-.92-.6-1.4-3.5-2.11-3.5-.85-5.77-1.78-5.77-5.07v-.04c0-3.01,2.54-5,6.09-5,2.33-.04,4.61.7,6.46,2.11l-1.99,2.75c-1.32-.97-2.89-1.54-4.52-1.63-1.47,0-2.24.64-2.24,1.45v.05c0,1.09.75,1.44,3.75,2.18,3.53.88,5.52,2.08,5.52,4.97v.05c0,3.29-2.63,5.14-6.39,5.14-2.7.02-5.32-.92-7.39-2.66ZM82.53,26.77h-5.29v-3.36h14.42v3.36h-5.29v13.22h-3.83v-13.22ZM94.59,23.4h4.13l4.57,7.01,4.57-7.01h4.12v16.58h-3.8v-10.83l-4.9,7.08h-.1l-4.85-7.01v10.76h-3.75v-16.58ZM122.13,23.28h3.53l7.46,16.7h-4l-1.59-3.72h-7.36l-1.59,3.72h-3.9l7.45-16.7ZM126.15,33.04l-2.31-5.38-2.31,5.38h4.62ZM134.35,37.57l2.26-2.58c1.44,1.26,3.28,1.97,5.2,2.01,1.57,0,2.51-.59,2.51-1.56v-.05c0-.92-.6-1.4-3.5-2.11-3.5-.85-5.77-1.78-5.77-5.07v-.04c0-3.01,2.54-5,6.09-5,2.33-.04,4.6.7,6.46,2.11l-1.99,2.75c-1.32-.97-2.89-1.54-4.52-1.63-1.47,0-2.24.64-2.24,1.45v.05c0,1.09.74,1.44,3.75,2.18,3.53.88,5.52,2.08,5.52,4.97v.05c0,3.29-2.64,5.14-6.39,5.14-2.7.02-5.32-.92-7.39-2.66ZM155.13,26.77h-5.29v-3.36h14.42v3.36h-5.29v13.22h-3.83v-13.22ZM167.19,23.4h13.12v3.24h-9.32v3.36h8.2v3.24h-8.2v3.48h9.44v3.25h-13.24v-16.58ZM183.84,23.4h7.96c1.84-.12,3.66.49,5.07,1.68,1,1,1.55,2.37,1.49,3.79v.05c.08,2.36-1.46,4.48-3.73,5.14l4.25,5.92h-4.47l-3.73-5.31h-3.01v5.31h-3.83v-16.58ZM191.54,31.46c1.86,0,2.93-.95,2.93-2.34v-.05c0-1.56-1.14-2.37-3.01-2.37h-3.8v4.76h3.87ZM200.62,37.57l2.26-2.58c1.44,1.26,3.28,1.97,5.2,2.01,1.57,0,2.51-.59,2.51-1.56v-.05c0-.92-.6-1.4-3.5-2.11-3.5-.85-5.77-1.78-5.77-5.07v-.04c0-3.01,2.54-5,6.09-5,2.33-.04,4.61.7,6.46,2.11l-1.99,2.75c-1.32-.97-2.89-1.54-4.52-1.63-1.47,0-2.24.64-2.24,1.45v.05c0,1.09.74,1.44,3.75,2.18,3.53.88,5.52,2.08,5.52,4.97v.05c0,3.29-2.64,5.14-6.39,5.14-2.7.02-5.32-.92-7.39-2.66Z"/>
        </g>
      </g>
    </g>
  </g>
</svg>