<?xml version="1.0" encoding="UTF-8"?>
<svg id="Layer_1" data-name="Layer 1" xmlns="http://www.w3.org/2000/svg" xmlns:xlink="http://www.w3.org/1999/xlink" viewBox="0 0 377 150">
  <defs>
    <style>
      .cls-1 {
        clip-path: url(#clippath);
      }

      .cls-2 {
        fill: none;
      }

      .cls-2, .cls-3, .cls-4, .cls-5, .cls-6, .cls-7, .cls-8, .cls-9, .cls-10, .cls-11, .cls-12, .cls-13, .cls-14, .cls-15, .cls-16, .cls-17, .cls-18, .cls-19, .cls-20, .cls-21, .cls-22, .cls-23, .cls-24, .cls-25, .cls-26, .cls-27, .cls-28, .cls-29, .cls-30, .cls-31, .cls-32, .cls-33, .cls-34, .cls-35, .cls-36, .cls-37, .cls-38, .cls-39, .cls-40, .cls-41, .cls-42, .cls-43, .cls-44, .cls-45, .cls-46, .cls-47, .cls-48, .cls-49, .cls-50, .cls-51, .cls-52, .cls-53, .cls-54, .cls-55, .cls-56, .cls-57, .cls-58, .cls-59, .cls-60 {
        stroke-width: 0px;
      }

      .cls-3 {
        fill: url(#linear-gradient);
      }

      .cls-4 {
        fill: url(#linear-gradient-38);
      }

      .cls-5 {
        fill: url(#linear-gradient-33);
      }

      .cls-6 {
        fill: url(#linear-gradient-29);
      }

      .cls-7 {
        fill: url(#linear-gradient-32);
      }

      .cls-8 {
        fill: url(#linear-gradient-30);
      }

      .cls-9 {
        fill: url(#linear-gradient-31);
      }

      .cls-10 {
        fill: url(#linear-gradient-36);
      }

      .cls-11 {
        fill: url(#linear-gradient-39);
      }

      .cls-12 {
        fill: url(#linear-gradient-34);
      }

      .cls-13 {
        fill: url(#linear-gradient-37);
      }

      .cls-14 {
        fill: url(#linear-gradient-35);
      }

      .cls-15 {
        fill: url(#linear-gradient-28);
      }

      .cls-16 {
        fill: url(#linear-gradient-25);
      }

      .cls-17 {
        fill: url(#linear-gradient-11);
      }

      .cls-18 {
        fill: url(#linear-gradient-12);
      }

      .cls-19 {
        fill: url(#linear-gradient-13);
      }

      .cls-20 {
        fill: url(#linear-gradient-10);
      }

      .cls-21 {
        fill: url(#linear-gradient-17);
      }

      .cls-22 {
        fill: url(#linear-gradient-16);
      }

      .cls-23 {
        fill: url(#linear-gradient-19);
      }

      .cls-24 {
        fill: url(#linear-gradient-15);
      }

      .cls-25 {
        fill: url(#linear-gradient-23);
      }

      .cls-26 {
        fill: url(#linear-gradient-21);
      }

      .cls-27 {
        fill: url(#linear-gradient-18);
      }

      .cls-28 {
        fill: url(#linear-gradient-14);
      }

      .cls-29 {
        fill: url(#linear-gradient-22);
      }

      .cls-30 {
        fill: url(#linear-gradient-20);
      }

      .cls-31 {
        fill: url(#linear-gradient-27);
      }

      .cls-32 {
        fill: url(#linear-gradient-24);
      }

      .cls-33 {
        fill: url(#linear-gradient-26);
      }

      .cls-34 {
        fill: url(#linear-gradient-40);
      }

      .cls-35 {
        fill: url(#linear-gradient-41);
      }

      .cls-61 {
        clip-path: url(#clippath-1);
      }

      .cls-62 {
        clip-path: url(#clippath-2);
      }

      .cls-36 {
        fill: url(#linear-gradient-4);
      }

      .cls-37 {
        fill: url(#linear-gradient-2);
      }

      .cls-38 {
        fill: url(#linear-gradient-3);
      }

      .cls-39 {
        fill: url(#linear-gradient-8);
      }

      .cls-40 {
        fill: url(#linear-gradient-9);
      }

      .cls-41 {
        fill: url(#linear-gradient-7);
      }

      .cls-42 {
        fill: url(#linear-gradient-5);
      }

      .cls-43 {
        fill: url(#linear-gradient-6);
      }

      .cls-44 {
        fill: #f7f8f9;
      }

      .cls-45 {
        fill: #f2f2f2;
      }

      .cls-46 {
        fill: #772433;
      }

      .cls-47 {
        fill: #797979;
      }

      .cls-48 {
        fill: #a3a3a3;
      }

      .cls-49 {
        fill: #064165;
      }

      .cls-50 {
        fill: #d1d1d1;
      }

      .cls-51 {
        fill: #c7c6c5;
      }

      .cls-52 {
        fill: #dbdada;
      }

      .cls-53 {
        fill: #b2b2b2;
      }

      .cls-54 {
        fill: #8a8a8a;
      }

      .cls-55 {
        fill: #99999a;
      }

      .cls-56 {
        fill: #fdf16e;
      }

      .cls-57 {
        fill: #fff;
      }

      .cls-58 {
        fill: #f0de74;
      }

      .cls-59 {
        fill: #e9e9e9;
      }

      .cls-60 {
        fill: #676767;
      }
    </style>
    <clipPath id="clippath">
      <rect class="cls-2" width="377" height="150"/>
    </clipPath>
    <clipPath id="clippath-1">
      <rect class="cls-2" x="-47" width="456" height="150"/>
    </clipPath>
    <clipPath id="clippath-2">
      <rect class="cls-2" x="31.13" y="-49.03" width="344.81" height="259.07"/>
    </clipPath>
    <linearGradient id="linear-gradient" x1="-496" y1="287.25" x2="-496.94" y2="286.2" gradientTransform="translate(55976.62 23242.41) scale(112.34 -80.8)" gradientUnits="userSpaceOnUse">
      <stop offset="0" stop-color="#d1d1d1"/>
      <stop offset=".34" stop-color="#e2e1e0"/>
      <stop offset=".49" stop-color="#e4e3e1"/>
      <stop offset=".58" stop-color="#f3f3f3"/>
      <stop offset=".69" stop-color="#cdcdcd"/>
      <stop offset=".87" stop-color="#e4e3e1"/>
      <stop offset="1" stop-color="#d1d1d1"/>
    </linearGradient>
    <linearGradient id="linear-gradient-2" x1="219.83" y1="72.39" x2="185.72" y2="110.93" gradientUnits="userSpaceOnUse">
      <stop offset="0" stop-color="#d1d1d1"/>
      <stop offset=".11" stop-color="#f2f2f2"/>
      <stop offset=".34" stop-color="#e2e1e0"/>
      <stop offset=".38" stop-color="#d6d6d6"/>
      <stop offset=".49" stop-color="#e4e3e1"/>
      <stop offset=".58" stop-color="#f3f3f3"/>
      <stop offset=".69" stop-color="#cdcdcd"/>
      <stop offset=".85" stop-color="#f0f0ef"/>
      <stop offset=".92" stop-color="#e4e3e1"/>
      <stop offset="1" stop-color="#d1d1d1"/>
    </linearGradient>
    <linearGradient id="linear-gradient-3" x1="222.27" y1="42.45" x2="182.23" y2="87.71" xlink:href="#linear-gradient-2"/>
    <linearGradient id="linear-gradient-4" x1="-478.34" y1="261.51" x2="-473.25" y2="261.51" gradientTransform="translate(9028.45 4267.03) scale(18.92 -15.89)" gradientUnits="userSpaceOnUse">
      <stop offset="0" stop-color="#fff"/>
      <stop offset="1" stop-color="#064165"/>
    </linearGradient>
    <linearGradient id="linear-gradient-5" x1="-488.51" y1="251.16" x2="-485.55" y2="251.16" gradientTransform="translate(15887 3116.44) scale(32.56 -11.95)" xlink:href="#linear-gradient-4"/>
    <linearGradient id="linear-gradient-6" x1="45834.59" y1="-15289.6" x2="53834.59" y2="-15289.6" gradientTransform="translate(-479.4 -426.02) scale(0 -.03)" xlink:href="#linear-gradient-4"/>
    <linearGradient id="linear-gradient-7" x1="-479.2" y1="271.51" x2="-474.57" y2="271.51" gradientTransform="translate(9947.48 6435.14) scale(20.8 -23.32)" xlink:href="#linear-gradient-4"/>
    <linearGradient id="linear-gradient-8" x1="-480.73" y1="265.92" x2="-475.67" y2="265.92" gradientTransform="translate(9123.72 5012.07) scale(19.02 -18.48)" xlink:href="#linear-gradient-4"/>
    <linearGradient id="linear-gradient-9" x1="-463.42" y1="240.57" x2="-455.54" y2="240.57" gradientTransform="translate(5641.28 2383.92) scale(12.22 -9.53)" xlink:href="#linear-gradient-4"/>
    <linearGradient id="linear-gradient-10" x1="-472.2" y1="267.13" x2="-465.94" y2="267.13" gradientTransform="translate(7242.99 5278.13) scale(15.38 -19.35)" xlink:href="#linear-gradient-4"/>
    <linearGradient id="linear-gradient-11" x1="-483.63" y1="251.5" x2="-479.62" y2="251.5" gradientTransform="translate(11600.79 3144.53) scale(24.03 -12.05)" xlink:href="#linear-gradient-4"/>
    <linearGradient id="linear-gradient-12" x1="-476.8" y1="128.99" x2="-470.72" y2="128.99" gradientTransform="translate(7531.24 480.97) scale(15.84 -3.04)" xlink:href="#linear-gradient-4"/>
    <linearGradient id="linear-gradient-13" x1="-470.4" y1="247.5" x2="-462.94" y2="247.5" gradientTransform="translate(6054.43 2764.44) scale(12.91 -10.98)" xlink:href="#linear-gradient-4"/>
    <linearGradient id="linear-gradient-14" x1="-478.39" y1="270.62" x2="-472.72" y2="270.62" gradientTransform="translate(8112.23 6105.5) scale(17 -22.38)" xlink:href="#linear-gradient-4"/>
    <linearGradient id="linear-gradient-15" x1="-485.6" y1="269.81" x2="-482.04" y2="269.81" gradientTransform="translate(13110.65 5879.8) scale(27.04 -21.6)" xlink:href="#linear-gradient-4"/>
    <linearGradient id="linear-gradient-16" x1="-446.64" y1="220.2" x2="-433.38" y2="220.2" gradientTransform="translate(3221.83 1546.8) scale(7.26 -6.86)" xlink:href="#linear-gradient-4"/>
    <linearGradient id="linear-gradient-17" x1="-464.43" y1="151.89" x2="-455.94" y2="151.89" gradientTransform="translate(5249.57 625.89) scale(11.35 -3.54)" xlink:href="#linear-gradient-4"/>
    <linearGradient id="linear-gradient-18" x1="-364.18" y1="-572.73" x2="-333.43" y2="-572.73" gradientTransform="translate(1120.38 -266.96) scale(3.13 -.58)" xlink:href="#linear-gradient-4"/>
    <linearGradient id="linear-gradient-19" x1="-465.51" y1="142.08" x2="-457.45" y2="142.08" gradientTransform="translate(5540.6 531.28) scale(11.94 -3.31)" xlink:href="#linear-gradient-4"/>
    <linearGradient id="linear-gradient-20" x1="-453.77" y1="128.83" x2="-443.04" y2="128.83" gradientTransform="translate(4046.81 420.75) scale(8.96 -3.04)" xlink:href="#linear-gradient-4"/>
    <linearGradient id="linear-gradient-21" x1="-474.83" y1="259.88" x2="-469.3" y2="259.88" gradientTransform="translate(8251.65 3976.14) scale(17.42 -15.1)" xlink:href="#linear-gradient-4"/>
    <linearGradient id="linear-gradient-22" x1="-470.87" y1="137.14" x2="-464.54" y2="137.14" gradientTransform="translate(7137.89 500.62) scale(15.2 -3.2)" xlink:href="#linear-gradient-4"/>
    <linearGradient id="linear-gradient-23" x1="-472.68" y1="224.55" x2="-466.17" y2="224.55" gradientTransform="translate(6968.76 1670.29) scale(14.79 -7.3)" xlink:href="#linear-gradient-4"/>
    <linearGradient id="linear-gradient-24" x1="-474.7" y1="247.85" x2="-468.53" y2="247.85" gradientTransform="translate(7385.89 2778.43) scale(15.6 -11.07)" xlink:href="#linear-gradient-4"/>
    <linearGradient id="linear-gradient-25" x1="-473.24" y1="248.93" x2="-467.26" y2="248.93" gradientTransform="translate(7589.71 2868.36) scale(16.08 -11.34)" xlink:href="#linear-gradient-4"/>
    <linearGradient id="linear-gradient-26" x1="-198.08" y1="-1574.55" x2="-126.78" y2="-1574.55" gradientTransform="translate(247.57 -333.22) scale(1.35 -.27)" xlink:href="#linear-gradient-4"/>
    <linearGradient id="linear-gradient-27" x1="-480.39" y1="240.63" x2="-475.88" y2="240.63" gradientTransform="translate(10220.22 2328.98) scale(21.32 -9.54)" xlink:href="#linear-gradient-4"/>
    <linearGradient id="linear-gradient-28" x1="-465.68" y1="244.49" x2="-457.16" y2="244.49" gradientTransform="translate(5241.84 2553.94) scale(11.3 -10.3)" xlink:href="#linear-gradient-4"/>
    <linearGradient id="linear-gradient-29" x1="-479.02" y1="240.47" x2="-473.75" y2="240.47" gradientTransform="translate(8722.83 2379.74) scale(18.25 -9.51)" xlink:href="#linear-gradient-4"/>
    <linearGradient id="linear-gradient-30" x1="-477.38" y1="253.06" x2="-471.62" y2="253.06" gradientTransform="translate(7966.13 3271.79) scale(16.73 -12.52)" xlink:href="#linear-gradient-4"/>
    <linearGradient id="linear-gradient-31" x1="-485.41" y1="269.36" x2="-481.88" y2="269.36" gradientTransform="translate(13215.41 5804.34) scale(27.27 -21.19)" xlink:href="#linear-gradient-4"/>
    <linearGradient id="linear-gradient-32" x1="-479.14" y1="117.76" x2="-473.87" y2="117.76" gradientTransform="translate(8744.02 423.74) scale(18.29 -2.85)" xlink:href="#linear-gradient-4"/>
    <linearGradient id="linear-gradient-33" x1="-482.98" y1="266.82" x2="-478.72" y2="266.82" gradientTransform="translate(10891.25 5201.78) scale(22.59 -19.12)" xlink:href="#linear-gradient-4"/>
    <linearGradient id="linear-gradient-34" x1="-476.12" y1="262.57" x2="-470.06" y2="262.57" gradientTransform="translate(7541.94 4371.33) scale(15.88 -16.44)" xlink:href="#linear-gradient-4"/>
    <linearGradient id="linear-gradient-35" x1="-471.22" y1="248.27" x2="-463.71" y2="248.27" gradientTransform="translate(6018.61 2831.56) scale(12.81 -11.17)" xlink:href="#linear-gradient-4"/>
    <linearGradient id="linear-gradient-36" x1="-472.23" y1="229.66" x2="-465.74" y2="229.66" gradientTransform="translate(6991.79 1847.18) scale(14.85 -7.89)" xlink:href="#linear-gradient-4"/>
    <linearGradient id="linear-gradient-37" x1="-480.99" y1="265.63" x2="-476.56" y2="265.63" gradientTransform="translate(10419.64 4906.68) scale(21.7 -18.29)" xlink:href="#linear-gradient-4"/>
    <linearGradient id="linear-gradient-38" x1="-474.97" y1="228.71" x2="-469.27" y2="228.71" gradientTransform="translate(8000.96 1833.84) scale(16.89 -7.77)" xlink:href="#linear-gradient-4"/>
    <linearGradient id="linear-gradient-39" x1="-479.21" y1="237.57" x2="-474.12" y2="237.57" gradientTransform="translate(9038.23 2182.39) scale(18.9 -9.01)" xlink:href="#linear-gradient-4"/>
    <linearGradient id="linear-gradient-40" x1="-471.24" y1="260.58" x2="-464.81" y2="260.58" gradientTransform="translate(7031.78 4115.25) scale(14.96 -15.43)" xlink:href="#linear-gradient-4"/>
    <linearGradient id="linear-gradient-41" x1="-475.88" y1="125.86" x2="-470.4" y2="125.86" gradientTransform="translate(8334.77 437.43) scale(17.56 -2.99)" xlink:href="#linear-gradient-4"/>
  </defs>
  <g class="cls-1">
    <g id="Mask_Group_633039" data-name="Mask Group 633039">
      <g id="Group_3417429" data-name="Group 3417429">
        <g id="Group_3417397" data-name="Group 3417397">
          <g class="cls-61">
            <g id="Option_2" data-name="Option 2">
              <g id="Option_2-2" data-name="Option 2-2">
                <g id="Group_2947978" data-name="Group 2947978">
                  <g class="cls-62">
                    <g id="Group_2947977" data-name="Group 2947977">
                      <path id="Path_3312280" data-name="Path 3312280" class="cls-44" d="M47.66,32.32c0,.36-.29.65-.65.65s-.65-.29-.65-.65.29-.65.65-.65h0c.36,0,.65.29.65.65"/>
                      <path id="Path_3312281" data-name="Path 3312281" class="cls-60" d="M137.09,41.71c0,.77-.63,1.4-1.4,1.4-.77,0-1.4-.63-1.4-1.4,0-.77.63-1.4,1.4-1.4s1.4.63,1.4,1.4h0"/>
                      <path id="Path_3312284" data-name="Path 3312284" class="cls-45" d="M144.8,24.7c0,1.08-.88,1.96-1.96,1.96-1.08,0-1.96-.88-1.96-1.96,0-1.08.88-1.96,1.96-1.96s1.96.88,1.96,1.96h0"/>
                      <path id="Path_3312286" data-name="Path 3312286" class="cls-44" d="M57.97,19.85c0,.41-.33.74-.74.74s-.74-.33-.74-.74c0-.41.33-.74.74-.74.41,0,.74.33.74.74h0"/>
                      <path id="Path_3312287" data-name="Path 3312287" class="cls-47" d="M132.72,6.54c0,1.37-1.11,2.49-2.49,2.49-1.37,0-2.49-1.11-2.49-2.49,0-1.37,1.11-2.49,2.49-2.49h0c1.37,0,2.49,1.11,2.49,2.49h0"/>
                      <path id="Path_3312289" data-name="Path 3312289" class="cls-55" d="M91.06,25.19c0,.65-.52,1.17-1.17,1.17s-1.17-.52-1.17-1.17.52-1.17,1.17-1.17h0c.65,0,1.17.52,1.17,1.17h0"/>
                      <path id="Path_3312290" data-name="Path 3312290" class="cls-59" d="M101.97,41.17c0,.83-.67,1.5-1.5,1.5s-1.5-.67-1.5-1.5.67-1.5,1.5-1.5,1.5.67,1.5,1.5"/>
                      <path id="Path_3312291" data-name="Path 3312291" class="cls-47" d="M117.48,45.19c0,.96-.78,1.75-1.75,1.75-.96,0-1.75-.78-1.75-1.75,0-.96.78-1.75,1.75-1.75s1.75.78,1.75,1.75h0"/>
                      <path id="Path_3312292" data-name="Path 3312292" class="cls-50" d="M92.58,56.85c0,.6-.5,1.09-1.1,1.09-.6,0-1.09-.5-1.09-1.1,0-.6.49-1.09,1.09-1.09.61,0,1.1.49,1.1,1.1"/>
                      <path id="Path_3312293" data-name="Path 3312293" class="cls-52" d="M71.11,42.78c0,.37-.3.66-.66.66-.37,0-.66-.3-.66-.66,0-.37.3-.66.66-.66s.66.3.66.66h0"/>
                      <path id="Path_3312295" data-name="Path 3312295" class="cls-50" d="M147.58,1.53c0,.43-.35.77-.77.77s-.77-.35-.77-.77.35-.77.77-.77h0c.43,0,.77.35.77.77"/>
                      <path id="Path_3312296" data-name="Path 3312296" class="cls-51" d="M180.61,8.85c0,1.28-1.04,2.32-2.32,2.32s-2.32-1.04-2.32-2.32,1.04-2.32,2.32-2.32h0c1.28,0,2.32,1.04,2.32,2.32"/>
                      <path id="Path_3312297" data-name="Path 3312297" class="cls-47" d="M83.8,35.68c0,1.37-1.11,2.48-2.48,2.48-1.37,0-2.48-1.11-2.48-2.48s1.11-2.48,2.48-2.48,2.48,1.11,2.48,2.48h0"/>
                      <path id="Path_3312298" data-name="Path 3312298" class="cls-45" d="M85.2,4.48c0,1.1-.9,2-2,2s-2-.9-2-2,.9-2,2-2,2,.9,2,2"/>
                      <path id="Path_3312299" data-name="Path 3312299" class="cls-54" d="M116.39,20.53c0,1.41-1.14,2.56-2.56,2.56s-2.56-1.14-2.56-2.56,1.14-2.56,2.56-2.56h0c1.41,0,2.56,1.15,2.56,2.56"/>
                      <path id="Path_3312301" data-name="Path 3312301" class="cls-51" d="M161.86,57.9c0,1.24-1,2.24-2.24,2.24-1.24,0-2.24-1-2.24-2.24s1-2.24,2.24-2.24h0c1.24,0,2.24,1,2.24,2.24h0"/>
                      <path id="Path_3312304" data-name="Path 3312304" class="cls-52" d="M173.34,38.78c0,.41-.33.74-.74.74-.41,0-.74-.33-.74-.74s.33-.74.74-.74h0c.41,0,.74.33.74.74"/>
                      <path id="Path_3312306" data-name="Path 3312306" class="cls-55" d="M46.45,1.62c0,.55-.44.99-.99.99s-.99-.44-.99-.99c0-.55.44-.99.99-.99s.99.44.99.99h0"/>
                      <path id="Path_3312307" data-name="Path 3312307" class="cls-48" d="M56.15,45.6c0,.79-.64,1.44-1.44,1.44s-1.44-.64-1.44-1.44c0-.79.64-1.44,1.44-1.44h0c.79,0,1.44.64,1.44,1.44"/>
                      <path id="Path_3312308" data-name="Path 3312308" class="cls-45" d="M154.99,40.8c0,.46-.37.83-.83.83-.46,0-.83-.37-.83-.83s.37-.83.83-.83.83.37.83.83h0"/>
                      <path id="Path_3312309" data-name="Path 3312309" class="cls-54" d="M109.26,2.58c0,1.14-.92,2.07-2.07,2.07s-2.07-.92-2.07-2.07c0-1.14.92-2.07,2.07-2.07s2.07.92,2.07,2.07h0"/>
                      <path id="Path_3312312" data-name="Path 3312312" class="cls-44" d="M151.09,7.82c0,.37-.3.67-.67.67s-.67-.3-.67-.67.3-.67.67-.67h0c.37,0,.67.3.67.67"/>
                      <path id="Path_3312315" data-name="Path 3312315" class="cls-45" d="M119.08,21.31c0,.92-.75,1.67-1.67,1.67s-1.67-.75-1.67-1.67.75-1.67,1.67-1.67c.92,0,1.66.74,1.67,1.66h0"/>
                      <path id="Path_3312316" data-name="Path 3312316" class="cls-59" d="M76.85,70.2c0,1.08-.87,1.95-1.95,1.95s-1.95-.87-1.95-1.95c0-1.07.87-1.95,1.95-1.95,1.08,0,1.95.87,1.95,1.95h0"/>
                      <path id="Path_3312317" data-name="Path 3312317" class="cls-52" d="M149.74,65.03c0,1.4-1.14,2.54-2.54,2.53-1.4,0-2.54-1.14-2.54-2.54,0-1.4,1.14-2.53,2.54-2.53,1.4,0,2.54,1.14,2.54,2.54h0"/>
                      <path id="Path_3312318" data-name="Path 3312318" class="cls-53" d="M48.54,60.33c0,.52-.42.94-.94.94s-.94-.42-.94-.94c0-.52.42-.94.94-.94h0c.52,0,.94.42.94.94h0"/>
                      <path id="Path_3312319" data-name="Path 3312319" class="cls-44" d="M64.53,38.51c0,.88-.72,1.6-1.6,1.6-.88,0-1.6-.72-1.6-1.6s.72-1.6,1.6-1.6h0c.88,0,1.6.72,1.6,1.6"/>
                      <path id="Path_3312320" data-name="Path 3312320" class="cls-53" d="M92.21,24.27c0,1.23-1,2.22-2.22,2.22s-2.22-1-2.22-2.22c0-1.23,1-2.22,2.22-2.22h0c1.23,0,2.22,1,2.22,2.22"/>
                      <path id="Path_3312321" data-name="Path 3312321" class="cls-59" d="M194.85,8.87c0,1.04-.84,1.88-1.88,1.88s-1.88-.84-1.88-1.88.84-1.88,1.88-1.88,1.88.84,1.88,1.88h0"/>
                      <path id="Path_3312322" data-name="Path 3312322" class="cls-48" d="M100.79,64.65c0,.88-.71,1.59-1.59,1.59-.88,0-1.59-.71-1.59-1.59s.71-1.59,1.59-1.59h0c.88,0,1.59.71,1.59,1.59"/>
                      <path id="Path_3312323" data-name="Path 3312323" class="cls-54" d="M91.18,44.32c0,.65-.53,1.18-1.18,1.18s-1.18-.53-1.18-1.18.53-1.18,1.18-1.18h0c.65,0,1.18.53,1.18,1.18"/>
                      <path id="Path_3312324" data-name="Path 3312324" class="cls-60" d="M165.78,23.33c0,1.08-.88,1.96-1.96,1.96-1.08,0-1.96-.88-1.96-1.96,0-1.08.88-1.95,1.96-1.96,1.08,0,1.96.88,1.96,1.96h0"/>
                      <path id="Path_3312325" data-name="Path 3312325" class="cls-45" d="M182.18,25.51c0,.7-.57,1.28-1.27,1.28-.7,0-1.28-.57-1.28-1.27,0-.7.57-1.28,1.27-1.28h0c.7,0,1.27.57,1.27,1.27h0"/>
                      <path id="Path_3312327" data-name="Path 3312327" class="cls-47" d="M151.51,30.29c0,.98-.79,1.77-1.77,1.77-.98,0-1.77-.79-1.77-1.77s.79-1.77,1.77-1.77,1.77.79,1.77,1.77h0"/>
                      <path id="Path_3312328" data-name="Path 3312328" class="cls-48" d="M168.13,35.88c0,1.37-1.11,2.49-2.49,2.49s-2.49-1.11-2.49-2.49,1.11-2.49,2.49-2.49,2.49,1.11,2.49,2.49h0"/>
                      <path id="Path_3312329" data-name="Path 3312329" class="cls-55" d="M83.15,8.08c0,1.04-.84,1.88-1.88,1.88s-1.88-.84-1.88-1.88c0-1.04.84-1.88,1.88-1.88,1.04,0,1.88.84,1.88,1.88"/>
                      <path id="Path_3312330" data-name="Path 3312330" class="cls-51" d="M112.3,44.66c0,1.03-.83,1.86-1.86,1.86-1.03,0-1.86-.83-1.86-1.86,0-1.03.83-1.86,1.86-1.86h0c1.03,0,1.86.83,1.86,1.86"/>
                      <path id="Path_3312332" data-name="Path 3312332" class="cls-50" d="M173.44,44.64c0,.88-.71,1.59-1.6,1.59-.88,0-1.59-.71-1.59-1.6,0-.88.71-1.59,1.59-1.59.88,0,1.6.71,1.6,1.6h0"/>
                      <path id="Path_3312333" data-name="Path 3312333" class="cls-45" d="M42.88,35.94c0,.41-.33.74-.74.74s-.74-.33-.74-.74c0-.41.33-.74.74-.74h0c.41,0,.74.33.74.74"/>
                      <path id="Path_3312334" data-name="Path 3312334" class="cls-51" d="M170.82-1.3c0,.84-.69,1.52-1.53,1.52-.84,0-1.52-.69-1.52-1.53,0-.84.68-1.52,1.53-1.52.84,0,1.53.68,1.53,1.53h0"/>
                      <path id="Path_3312336" data-name="Path 3312336" class="cls-54" d="M33.79,14.66c0,.73-.59,1.33-1.33,1.33-.73,0-1.33-.59-1.33-1.33,0-.73.59-1.33,1.33-1.33h0c.73,0,1.33.59,1.33,1.33"/>
                      <path id="Path_3312337" data-name="Path 3312337" class="cls-48" d="M114.77,59.95c0,.61-.49,1.1-1.1,1.1-.61,0-1.1-.49-1.1-1.1,0-.61.49-1.1,1.1-1.1h0c.61,0,1.1.49,1.1,1.1"/>
                      <path id="Path_3312340" data-name="Path 3312340" class="cls-51" d="M71.1,52.72c0,1.03-.84,1.87-1.87,1.87s-1.87-.84-1.87-1.87c0-1.03.84-1.87,1.87-1.87h0c1.03,0,1.87.84,1.87,1.87"/>
                      <path id="Path_3312342" data-name="Path 3312342" class="cls-54" d="M150.34,53.9c0,.76-.62,1.38-1.38,1.38-.76,0-1.38-.62-1.38-1.38,0-.76.62-1.38,1.38-1.38h0c.76,0,1.38.62,1.38,1.38h0"/>
                      <path id="Path_3312343" data-name="Path 3312343" class="cls-59" d="M134.72,73.07c0,.37-.3.67-.67.67s-.67-.3-.67-.67.3-.67.67-.67.67.3.67.67h0"/>
                      <path id="Path_3312344" data-name="Path 3312344" class="cls-50" d="M62.05,17.34c0,.94-.76,1.7-1.7,1.7s-1.7-.76-1.7-1.7c0-.94.76-1.7,1.7-1.7h0c.94,0,1.7.76,1.7,1.7"/>
                      <path id="Path_3312345" data-name="Path 3312345" class="cls-60" d="M135.89,40.21c0,1.23-1,2.24-2.24,2.24s-2.24-1-2.24-2.24,1-2.24,2.24-2.24h0c1.23,0,2.23,1,2.23,2.23h0"/>
                      <path id="Path_3312348" data-name="Path 3312348" class="cls-59" d="M106.86,8.47c0,1.01-.82,1.82-1.83,1.82s-1.82-.82-1.82-1.82.82-1.83,1.83-1.83h0c1.01,0,1.82.82,1.82,1.83"/>
                      <path id="Path_3312349" data-name="Path 3312349" class="cls-59" d="M225.43,145.13c0,1.29-1.04,2.33-2.33,2.33s-2.33-1.04-2.33-2.33,1.04-2.33,2.33-2.33h0c1.29,0,2.33,1.04,2.33,2.33"/>
                      <path id="Path_3312350" data-name="Path 3312350" class="cls-51" d="M353.63,75.75c0,.53-.43.96-.96.96-.53,0-.96-.43-.96-.96s.43-.96.96-.96h0c.53,0,.96.43.96.96h0"/>
                      <path id="Path_3312351" data-name="Path 3312351" class="cls-53" d="M273.17,82.21c0,.42-.34.77-.77.77-.42,0-.77-.34-.77-.77s.34-.77.77-.77h0c.42,0,.77.34.77.76h0"/>
                      <path id="Path_3312352" data-name="Path 3312352" class="cls-50" d="M244.61,71.16c0,.62-.51,1.13-1.13,1.13s-1.13-.51-1.13-1.13.51-1.13,1.13-1.13,1.13.51,1.13,1.13h0"/>
                      <path id="Path_3312353" data-name="Path 3312353" class="cls-45" d="M246.02,124.81c0,1.07-.87,1.93-1.93,1.93s-1.93-.87-1.93-1.93.87-1.93,1.93-1.93h0c1.07,0,1.93.87,1.93,1.93"/>
                      <path id="Path_3312354" data-name="Path 3312354" class="cls-53" d="M282.15,111.18c0,1.26-1.02,2.27-2.27,2.27-1.26,0-2.27-1.02-2.27-2.27s1.02-2.27,2.27-2.27,2.27,1.02,2.27,2.27h0"/>
                      <path id="Path_3312356" data-name="Path 3312356" class="cls-55" d="M255.5,146.08c0,.44-.36.8-.8.8-.44,0-.8-.36-.8-.8,0-.44.36-.8.8-.8s.8.36.8.8h0"/>
                      <path id="Path_3312358" data-name="Path 3312358" class="cls-50" d="M366.47,96.04c0,.58-.47,1.04-1.04,1.04s-1.04-.47-1.04-1.04.47-1.04,1.04-1.04h0c.58,0,1.04.47,1.04,1.04"/>
                      <path id="Path_3312359" data-name="Path 3312359" class="cls-50" d="M353.64,96.19c0,.93-.76,1.69-1.69,1.69-.93,0-1.69-.76-1.69-1.69,0-.93.76-1.69,1.69-1.69.93,0,1.69.76,1.69,1.69h0"/>
                      <path id="Path_3312360" data-name="Path 3312360" class="cls-60" d="M348.37,120.72c0,.41-.33.74-.74.74s-.74-.33-.74-.74c0-.41.33-.74.74-.74s.74.33.74.74h0"/>
                      <path id="Path_3312362" data-name="Path 3312362" class="cls-53" d="M246.11,109.53c0,1.29-1.05,2.33-2.34,2.33-1.29,0-2.33-1.05-2.33-2.34,0-1.29,1.05-2.33,2.33-2.33,1.29,0,2.33,1.04,2.33,2.33h0"/>
                      <path id="Path_3312364" data-name="Path 3312364" class="cls-50" d="M315,91.03c0,1.24-1.01,2.25-2.25,2.25s-2.25-1.01-2.25-2.25,1.01-2.25,2.25-2.25c1.25,0,2.25,1.01,2.26,2.25"/>
                      <path id="Path_3312366" data-name="Path 3312366" class="cls-44" d="M314.36,115.18c0,.96-.77,1.73-1.73,1.73-.96,0-1.73-.77-1.73-1.73s.77-1.73,1.73-1.73,1.73.77,1.73,1.73h0"/>
                      <path id="Path_3312368" data-name="Path 3312368" class="cls-55" d="M273.39,131.29c0,.4-.33.73-.73.73-.4,0-.73-.33-.73-.73s.33-.73.73-.73h0c.4,0,.73.33.73.73"/>
                      <path id="Path_3312371" data-name="Path 3312371" class="cls-54" d="M296.1,77.6c0,.73-.59,1.32-1.32,1.32s-1.32-.59-1.32-1.32.59-1.32,1.32-1.32c.73,0,1.31.59,1.32,1.32"/>
                      <path id="Path_3312377" data-name="Path 3312377" class="cls-50" d="M258.5,100.7c0,.4-.32.72-.72.72-.4,0-.72-.32-.72-.72,0-.4.32-.72.72-.72.4,0,.72.32.72.72h0"/>
                      <path id="Path_3312378" data-name="Path 3312378" class="cls-45" d="M299.61,126.26c0,1.33-1.07,2.4-2.4,2.4s-2.4-1.07-2.4-2.4c0-1.33,1.07-2.4,2.4-2.4h0c1.33,0,2.4,1.07,2.4,2.4"/>
                      <path id="Path_3312379" data-name="Path 3312379" class="cls-47" d="M295.98,100.64c0,1.33-1.08,2.42-2.42,2.41-1.33,0-2.42-1.08-2.42-2.42,0-1.33,1.08-2.41,2.42-2.41,1.33,0,2.42,1.08,2.42,2.42"/>
                      <path id="Path_3312381" data-name="Path 3312381" class="cls-51" d="M337.7,91.13c0,.38-.3.68-.68.68s-.68-.3-.68-.68.3-.68.68-.68h0c.38,0,.68.31.68.68"/>
                      <path id="Path_3312382" data-name="Path 3312382" class="cls-54" d="M224.96,129.98c0,.39-.31.7-.7.7-.39,0-.7-.31-.7-.7,0-.39.31-.7.7-.7h0c.39,0,.7.31.7.7"/>
                      <path id="Path_3312388" data-name="Path 3312388" class="cls-44" d="M261.31,119.45c0,1.42-1.15,2.57-2.57,2.57s-2.57-1.15-2.57-2.57,1.15-2.57,2.57-2.57,2.57,1.15,2.57,2.57h0"/>
                      <path id="Path_3312389" data-name="Path 3312389" class="cls-55" d="M294.7,141.21c0,.5-.41.91-.91.91-.5,0-.91-.41-.91-.91s.41-.91.91-.91c.5,0,.91.41.91.91h0"/>
                      <path id="Path_3312390" data-name="Path 3312390" class="cls-54" d="M334.11,69.22c0,.65-.53,1.18-1.18,1.18s-1.18-.53-1.18-1.18.53-1.18,1.18-1.18h0c.65,0,1.18.53,1.18,1.18"/>
                      <path id="Path_3312391" data-name="Path 3312391" class="cls-45" d="M236.87,139.36c0,.67-.55,1.22-1.22,1.22s-1.22-.55-1.22-1.22.55-1.22,1.22-1.22h0c.67,0,1.22.54,1.22,1.22h0"/>
                      <path id="Path_3312394" data-name="Path 3312394" class="cls-60" d="M328.67,123.4c0,.62-.5,1.12-1.12,1.12s-1.12-.5-1.12-1.12.5-1.12,1.12-1.12,1.12.5,1.12,1.12h0"/>
                      <path id="Path_3312395" data-name="Path 3312395" class="cls-51" d="M237.51,56.71c0,.42-.34.76-.76.76-.42,0-.76-.34-.76-.76,0-.42.34-.76.76-.76.42,0,.76.34.76.76h0"/>
                      <path id="Path_3312396" data-name="Path 3312396" class="cls-59" d="M271.85,61.36c0,.75-.6,1.35-1.35,1.35-.75,0-1.35-.6-1.35-1.35,0-.75.6-1.35,1.35-1.35h0c.75,0,1.35.6,1.35,1.35"/>
                      <path id="Path_3312398" data-name="Path 3312398" class="cls-55" d="M255.15,88.81c0,1.1-.89,1.99-1.99,1.99s-1.99-.89-1.99-1.99.89-1.99,1.99-1.99h0c1.1,0,1.99.89,1.99,1.99"/>
                      <path id="Path_3312399" data-name="Path 3312399" class="cls-60" d="M291.52,81.77c0,.49-.4.89-.89.89s-.89-.4-.89-.89.4-.89.89-.89.89.4.89.89h0"/>
                      <path id="Path_3312401" data-name="Path 3312401" class="cls-51" d="M322.61,90.04c0,.8-.65,1.44-1.44,1.44s-1.44-.65-1.44-1.44c0-.8.65-1.44,1.44-1.44h0c.8,0,1.44.65,1.44,1.44"/>
                      <path id="Path_3312403" data-name="Path 3312403" class="cls-47" d="M375.94,118.52c0,1.3-1.06,2.36-2.36,2.36s-2.36-1.06-2.36-2.36,1.06-2.36,2.36-2.36h0c1.3,0,2.36,1.06,2.36,2.36"/>
                      <path id="Path_3312405" data-name="Path 3312405" class="cls-60" d="M363.76,105.28c0,.53-.43.96-.96.96s-.96-.43-.96-.96.43-.96.96-.96.96.43.96.96h0"/>
                      <path id="Path_3312406" data-name="Path 3312406" class="cls-53" d="M247.44,87.58c0,.72-.58,1.3-1.3,1.3-.72,0-1.3-.58-1.3-1.3,0-.72.58-1.3,1.3-1.3s1.3.58,1.3,1.3h0"/>
                      <path id="Path_3312407" data-name="Path 3312407" class="cls-60" d="M272.11,87.3c0,.64-.52,1.16-1.16,1.16-.64,0-1.16-.52-1.16-1.16s.52-1.16,1.16-1.16,1.16.52,1.16,1.16h0"/>
                      <path id="Path_3312408" data-name="Path 3312408" class="cls-47" d="M337.05,64.35c0,1.18-.95,2.13-2.13,2.13-1.18,0-2.13-.95-2.13-2.13s.95-2.13,2.13-2.13c1.18,0,2.13.95,2.13,2.13"/>
                      <path id="Path_3312409" data-name="Path 3312409" class="cls-53" d="M236.95,119.49c0,.53-.43.96-.96.96s-.96-.43-.96-.96.43-.96.96-.96.96.43.96.96h0"/>
                      <path id="Path_3312410" data-name="Path 3312410" class="cls-47" d="M256.42,137.41c0,.7-.57,1.27-1.27,1.27s-1.27-.57-1.27-1.27.57-1.27,1.27-1.27,1.27.57,1.27,1.27h0"/>
                      <path id="Path_3312412" data-name="Path 3312412" class="cls-60" d="M367.17,72.58c0,.82-.66,1.48-1.48,1.48-.82,0-1.48-.66-1.48-1.48s.66-1.48,1.48-1.48h0c.82,0,1.48.66,1.48,1.48"/>
                      <path id="Path_3312413" data-name="Path 3312413" class="cls-48" d="M237.33,146.41c0,1.43-1.16,2.59-2.59,2.59-1.43,0-2.59-1.16-2.59-2.59,0-1.43,1.16-2.59,2.59-2.59,1.43,0,2.59,1.16,2.59,2.59"/>
                      <path id="Path_3312415" data-name="Path 3312415" class="cls-48" d="M274.87,146.47c0,1.07-.87,1.94-1.93,1.94-1.07,0-1.94-.87-1.94-1.93,0-1.07.87-1.94,1.93-1.94h0c1.07,0,1.93.87,1.93,1.93"/>
                      <path id="Path_3312417" data-name="Path 3312417" class="cls-54" d="M260.22,94.94c0,1.26-1.02,2.28-2.28,2.28-1.26,0-2.28-1.02-2.28-2.28,0-1.26,1.02-2.28,2.28-2.28,1.26,0,2.28,1.02,2.28,2.28h0"/>
                      <path id="Path_3312418" data-name="Path 3312418" class="cls-55" d="M351.49,119.59c0,.45-.37.82-.82.82s-.82-.37-.82-.82.37-.82.82-.82h0c.45,0,.82.37.82.82"/>
                      <path id="Path_3312419" data-name="Path 3312419" class="cls-54" d="M347.66,80.81c0,.5-.41.91-.91.92-.5,0-.91-.41-.92-.91s.41-.91.91-.92h0c.5,0,.91.41.91.91"/>
                      <path id="Path_3312420" data-name="Path 3312420" class="cls-47" d="M258.87,71.2c0,.41-.33.74-.74.74s-.74-.33-.74-.74.33-.74.74-.74h0c.41,0,.74.33.74.74h0"/>
                      <path id="Path_3312421" data-name="Path 3312421" class="cls-51" d="M294.06,59.58c0,.52-.42.94-.95.94s-.95-.42-.95-.94.42-.94.95-.94c.52,0,.94.42.95.94h0"/>
                      <path id="Path_3312423" data-name="Path 3312423" class="cls-55" d="M311.57,145.22c0,1.12-.91,2.03-2.03,2.03-1.12,0-2.03-.91-2.03-2.03s.91-2.03,2.03-2.03h0c1.12,0,2.03.91,2.03,2.03"/>
                      <path id="Path_3312424" data-name="Path 3312424" class="cls-44" d="M299.05,121.27c0,.91-.74,1.65-1.65,1.65s-1.65-.74-1.65-1.65.74-1.65,1.65-1.65h0c.91,0,1.65.74,1.65,1.65"/>
                      <path id="Path_3312425" data-name="Path 3312425" class="cls-45" d="M330.12,108.13c0,.99-.8,1.79-1.79,1.79s-1.79-.8-1.79-1.79c0-.99.8-1.79,1.79-1.79.99,0,1.79.8,1.79,1.79"/>
                      <path id="Path_3312426" data-name="Path 3312426" class="cls-51" d="M272.79,125.09c0,.55-.44.99-.99.99s-.99-.44-.99-.99.44-.99.99-.99h0c.55,0,.99.44.99.99"/>
                      <path id="Path_3312428" data-name="Path 3312428" class="cls-44" d="M318.5,72.01c0,.71-.58,1.29-1.29,1.29s-1.29-.58-1.29-1.29c0-.71.58-1.29,1.29-1.29.71,0,1.29.58,1.29,1.29h0"/>
                      <path id="Path_3312430" data-name="Path 3312430" class="cls-45" d="M358.9,138.01c0,.52-.42.94-.94.94s-.94-.42-.94-.94.42-.94.94-.94h0c.52,0,.94.42.94.94h0"/>
                      <path id="Path_3312431" data-name="Path 3312431" class="cls-53" d="M322.16,125.36c0,.4-.33.73-.73.73-.4,0-.73-.33-.73-.73,0-.4.33-.73.73-.73.4,0,.73.33.73.73h0"/>
                      <path id="Path_3312433" data-name="Path 3312433" class="cls-54" d="M282.08,100.49c0,.55-.44.99-.99.99s-.99-.44-.99-.99.44-.99.99-.99h0c.55,0,.99.44.99.99h0"/>
                      <path id="Path_3312434" data-name="Path 3312434" class="cls-60" d="M300.01,106.11c0,1.09-.88,1.96-1.96,1.96-1.09,0-1.96-.88-1.96-1.96s.88-1.96,1.96-1.96c1.09,0,1.97.88,1.97,1.96"/>
                      <path id="Path_3312435" data-name="Path 3312435" class="cls-59" d="M304.25,143.86c0,.97-.78,1.75-1.75,1.75s-1.75-.78-1.75-1.75.78-1.75,1.75-1.75h0c.97,0,1.75.78,1.75,1.75"/>
                      <path id="Path_3312436" data-name="Path 3312436" class="cls-52" d="M270.82,84.18c0,.46-.38.84-.84.84-.46,0-.84-.38-.84-.84s.38-.84.84-.84.84.38.84.84h0"/>
                      <path id="Path_3312437" data-name="Path 3312437" class="cls-45" d="M260.3,147.41c0,.85-.69,1.54-1.54,1.54s-1.54-.69-1.54-1.54.69-1.54,1.54-1.54c.85,0,1.54.69,1.54,1.54h0"/>
                      <path id="Path_3312438" data-name="Path 3312438" class="cls-50" d="M272.51,110.27c0,.53-.43.96-.96.96s-.96-.43-.96-.96.43-.96.96-.96c.53,0,.96.43.96.96h0"/>
                      <path id="Path_3312439" data-name="Path 3312439" class="cls-47" d="M248.29,132.99c0,.59-.47,1.06-1.06,1.06s-1.06-.47-1.06-1.06.47-1.06,1.06-1.06h0c.58,0,1.06.47,1.06,1.06"/>
                      <path id="Path_3312440" data-name="Path 3312440" class="cls-55" d="M257.17,87.99c0,.37-.3.68-.68.68s-.68-.3-.68-.68.3-.68.68-.68c.37,0,.68.3.68.68h0"/>
                      <path id="Path_3312441" data-name="Path 3312441" class="cls-47" d="M285.31,96.19c0,.38-.31.69-.69.69s-.69-.31-.69-.69c0-.38.31-.69.69-.69.38,0,.69.31.69.69"/>
                      <path id="Path_3312442" data-name="Path 3312442" class="cls-53" d="M240.99,113.28c0,1.11-.9,2.01-2.01,2.01s-2.01-.9-2.01-2.01.9-2.01,2.01-2.01c1.11,0,2.01.9,2.01,2.01"/>
                      <path id="Path_3312443" data-name="Path 3312443" class="cls-47" d="M278.54,134.36c0,.58-.47,1.05-1.05,1.05s-1.05-.47-1.05-1.05.47-1.05,1.05-1.05h0c.58,0,1.05.47,1.05,1.05"/>
                      <path id="Path_3312444" data-name="Path 3312444" class="cls-50" d="M246.24,111.1c0,.89-.72,1.62-1.62,1.62-.89,0-1.62-.72-1.62-1.62,0-.89.72-1.62,1.62-1.62h0c.89,0,1.62.72,1.62,1.62"/>
                      <path id="Path_3312445" data-name="Path 3312445" class="cls-59" d="M222.12,107.79c0,.4-.33.73-.73.73s-.73-.33-.73-.73.33-.73.73-.73c.4,0,.73.33.73.73h0"/>
                      <path id="Path_3312446" data-name="Path 3312446" class="cls-51" d="M230.05,127.47c0,.46-.37.83-.83.83s-.83-.37-.83-.83c0-.46.37-.83.83-.83.46,0,.83.37.83.83h0"/>
                      <path id="Path_3312447" data-name="Path 3312447" class="cls-50" d="M265.81,112.92c0,.61-.5,1.1-1.11,1.1-.61,0-1.1-.5-1.1-1.11,0-.61.49-1.1,1.1-1.1.61,0,1.11.5,1.11,1.11"/>
                      <path id="Path_3312449" data-name="Path 3312449" class="cls-55" d="M283.88,108.28c0,.63-.51,1.14-1.14,1.14s-1.14-.51-1.14-1.14.51-1.14,1.14-1.14h0c.63,0,1.14.51,1.14,1.14"/>
                      <path id="Path_3312452" data-name="Path 3312452" class="cls-52" d="M239.01,137.4c0,1.25-1.01,2.27-2.27,2.27s-2.27-1.01-2.27-2.27,1.01-2.27,2.27-2.27h0c1.25,0,2.27,1.02,2.27,2.27"/>
                      <path id="Path_3312456" data-name="Path 3312456" class="cls-44" d="M211.14,129.63c0,.5-.4.9-.9.9s-.9-.4-.9-.9.4-.9.9-.9h0c.5,0,.9.4.9.9"/>
                      <path id="Path_3312458" data-name="Path 3312458" class="cls-51" d="M284.14,130.22c0,.92-.75,1.67-1.67,1.67s-1.67-.75-1.67-1.67.75-1.67,1.67-1.67h0c.92,0,1.67.75,1.67,1.67"/>
                      <path id="Path_3312459" data-name="Path 3312459" class="cls-59" d="M263.16,142.68c0,.83-.68,1.51-1.51,1.51-.83,0-1.51-.68-1.51-1.51,0-.83.67-1.51,1.51-1.51.83,0,1.51.68,1.51,1.51h0"/>
                      <path id="Path_3312462" data-name="Path 3312462" class="cls-55" d="M87.77,17.79c0,1.34-1.09,2.43-2.43,2.44-1.34,0-2.44-1.09-2.44-2.43,0-1.34,1.09-2.44,2.43-2.44h0c1.34,0,2.43,1.09,2.44,2.43h0"/>
                      <path id="Path_3312463" data-name="Path 3312463" class="cls-45" d="M133.58,31.8c0,.44-.35.79-.79.79s-.79-.35-.79-.79.35-.79.79-.79c.44,0,.79.35.79.79h0"/>
                      <path id="Path_3312464" data-name="Path 3312464" class="cls-48" d="M133.09,50.77c0,.61-.5,1.11-1.11,1.11s-1.11-.5-1.11-1.11.5-1.11,1.11-1.11h0c.61,0,1.11.5,1.11,1.11h0"/>
                      <path id="Path_3312465" data-name="Path 3312465" class="cls-45" d="M179.25,13.66c0,.78-.64,1.42-1.42,1.42-.78,0-1.42-.64-1.42-1.42s.64-1.42,1.42-1.42h0c.78,0,1.42.64,1.42,1.42"/>
                      <path id="Path_3312469" data-name="Path 3312469" class="cls-59" d="M90.42,55.62c0,.46-.37.83-.83.83s-.83-.37-.83-.83.37-.83.83-.83c.46,0,.83.37.83.83"/>
                      <path id="Path_3312470" data-name="Path 3312470" class="cls-51" d="M117.89,63.07c0,.91-.74,1.65-1.65,1.65s-1.65-.74-1.65-1.65c0-.91.74-1.65,1.65-1.65.91,0,1.65.74,1.65,1.65h0"/>
                      <path id="Path_3312471" data-name="Path 3312471" class="cls-47" d="M151.63,54.24c0,1.43-1.16,2.59-2.59,2.59-1.43,0-2.59-1.16-2.59-2.59s1.16-2.59,2.59-2.59h0c1.43,0,2.59,1.16,2.59,2.59"/>
                      <path id="Path_3312472" data-name="Path 3312472" class="cls-53" d="M128.6,19.4c0,.39-.31.7-.7.7s-.7-.31-.7-.7.31-.7.7-.7h0c.39,0,.7.31.7.7"/>
                      <path id="Path_3312473" data-name="Path 3312473" class="cls-48" d="M111.02,32.08c0,.53-.43.97-.96.97s-.97-.43-.97-.96.43-.97.96-.97h0c.53,0,.96.43.96.96"/>
                      <path id="Path_3312474" data-name="Path 3312474" class="cls-51" d="M158.7,8.79c0,1.15-.93,2.09-2.09,2.09-1.15,0-2.09-.93-2.09-2.09s.93-2.09,2.09-2.09h0c1.15,0,2.09.93,2.09,2.09"/>
                      <path id="Path_3312475" data-name="Path 3312475" class="cls-55" d="M158.02,33.9c0,.79-.65,1.44-1.44,1.44-.79,0-1.44-.65-1.44-1.44,0-.79.64-1.44,1.44-1.44.8,0,1.44.64,1.44,1.44h0"/>
                      <path id="Path_3312476" data-name="Path 3312476" class="cls-45" d="M158.8,70.93c0,.74-.6,1.34-1.34,1.34-.74,0-1.34-.6-1.34-1.34,0-.74.6-1.34,1.34-1.34h0c.74,0,1.34.6,1.34,1.34"/>
                      <path id="Path_3312477" data-name="Path 3312477" class="cls-45" d="M165.39,40.47c0,.63-.51,1.14-1.14,1.14s-1.14-.51-1.14-1.14.51-1.14,1.14-1.14h0c.63,0,1.14.51,1.14,1.14h0"/>
                      <path id="Path_3312480" data-name="Path 3312480" class="cls-53" d="M110.67,6.03c0,1.06-.86,1.92-1.92,1.92s-1.92-.86-1.92-1.92.86-1.92,1.92-1.92h0c1.06,0,1.92.86,1.92,1.92h0"/>
                    </g>
                  </g>
                </g>
              </g>
            </g>
          </g>
        </g>
        <g id="Group_3417398" data-name="Group 3417398">
          <g id="Group_3258924" data-name="Group 3258924">
            <path id="Path_2922334" data-name="Path 2922334" class="cls-3" d="M153,40.6v68.8h100.34V40.6h-100.34M147,34.6h112.34v80.8h-112.34V34.6Z"/>
            <path class="cls-37" d="M186.73,97.59h6.54v2.1h-9.04v-13.82h8.99v2.1h-6.48v3.75h6.02v2.1h-6.02v3.77ZM174.34,91.99h-.13l-3.38-6.11h-2.83l5.02,8.66v5.15h2.5v-5.15l5.03-8.66h-2.83l-3.38,6.11ZM220.88,94.2l3,5.49h-2.79l-2.72-5.07h-2.54v5.07h-2.5v-13.82h5.18c.92-.03,1.84.16,2.67.55.69.34,1.26.88,1.64,1.55.38.71.58,1.51.56,2.32.02.8-.17,1.6-.56,2.3-.39.66-.96,1.18-1.66,1.5-.09.04-.19.07-.28.11ZM215.83,92.55h2.3c.52.02,1.04-.07,1.53-.26.37-.15.68-.42.88-.76.2-.38.3-.81.29-1.24.01-.44-.09-.87-.29-1.26-.2-.36-.51-.64-.88-.8-.49-.2-1.01-.29-1.53-.27h-2.29v4.59ZM204.74,85.87l4.87,13.82h-2.67l-1.14-3.41h-5.2l-1.14,3.41h-2.67l4.87-13.82h3.09ZM205.11,94.27l-1.87-5.57h-.11l-1.87,5.57h3.85ZM237.36,94.25c-.22-.44-.53-.83-.91-1.14-.39-.32-.83-.58-1.3-.78-.49-.21-.99-.37-1.51-.49l-1.3-.32c-.29-.07-.57-.15-.84-.25-.27-.09-.52-.22-.76-.37-.22-.14-.4-.32-.54-.54-.14-.23-.21-.49-.2-.75,0-.33.1-.66.3-.92.22-.29.52-.51.86-.64.43-.17.88-.25,1.34-.24.64-.03,1.27.14,1.81.49.46.32.75.82.79,1.38h2.41c0-.74-.23-1.46-.65-2.07-.44-.62-1.05-1.1-1.74-1.41-.81-.35-1.69-.53-2.58-.51-.89-.02-1.78.16-2.6.51-.72.31-1.35.8-1.82,1.43-.45.62-.68,1.37-.66,2.14-.04.9.32,1.77.99,2.38.78.66,1.71,1.11,2.7,1.33l1.57.4c.44.11.88.25,1.3.43.33.13.63.33.87.59.21.25.32.57.32.89,0,.38-.13.74-.36,1.03-.26.31-.59.55-.97.69-.46.17-.94.26-1.43.25-.48,0-.96-.07-1.41-.24-.4-.14-.75-.39-1.02-.72-.27-.34-.43-.76-.45-1.2h-2.46c0,.83.26,1.64.72,2.34.46.65,1.1,1.16,1.85,1.46.89.35,1.84.52,2.8.5.97.03,1.93-.15,2.83-.52.72-.3,1.35-.8,1.8-1.44.42-.63.64-1.38.62-2.14.01-.54-.1-1.08-.34-1.57Z"/>
            <path class="cls-38" d="M209.4,57.24c-.93-2.11-2.48-3.89-4.45-5.11-2.07-1.21-4.45-1.82-6.85-1.75-2.4-.06-4.76.54-6.84,1.75-1.96,1.21-3.5,2.99-4.43,5.1-1.1,2.57-1.64,5.35-1.57,8.15-.08,2.82.45,5.62,1.55,8.21.93,2.15,2.48,3.97,4.45,5.24,2.06,1.25,4.43,1.89,6.84,1.84,2.41.06,4.78-.57,6.84-1.82,1.97-1.26,3.51-3.09,4.44-5.23,1.1-2.6,1.64-5.41,1.56-8.24.09-2.79-.44-5.57-1.55-8.14ZM201.47,72.11c-.64,1.28-1.93,2.1-3.36,2.14h0c-.9,0-1.77-.33-2.43-.94-.81-.8-1.38-1.8-1.66-2.9-.44-1.64-.63-3.33-.58-5.02.02-2.99.46-5.18,1.32-6.56.65-1.25,1.93-2.05,3.34-2.07.89,0,1.75.32,2.41.92.8.77,1.37,1.75,1.65,2.82.44,1.59.64,3.25.6,4.9,0,3.06-.42,5.3-1.3,6.73ZM237.41,57.24c-.93-2.11-2.48-3.89-4.45-5.11-2.07-1.21-4.45-1.82-6.85-1.75-2.4-.06-4.77.54-6.84,1.75-1.96,1.21-3.5,2.99-4.43,5.1-1.1,2.57-1.64,5.35-1.57,8.15-.08,2.82.45,5.62,1.55,8.21.93,2.15,2.48,3.97,4.45,5.24,2.06,1.25,4.43,1.89,6.84,1.84h0c2.41.06,4.78-.57,6.84-1.82,1.97-1.26,3.51-3.09,4.44-5.23,1.11-2.6,1.64-5.41,1.56-8.24.09-2.79-.44-5.57-1.55-8.14ZM229.47,72.11c-.64,1.28-1.93,2.1-3.36,2.14h0c-.9,0-1.77-.33-2.43-.94-.81-.8-1.38-1.8-1.66-2.9-.44-1.64-.63-3.33-.58-5.02.02-2.99.46-5.18,1.32-6.56.65-1.25,1.93-2.05,3.34-2.07.89,0,1.75.32,2.41.92.8.77,1.37,1.75,1.65,2.82.44,1.59.64,3.25.6,4.9,0,3.06-.42,5.3-1.3,6.73ZM173.98,51.51h7.09v28.36h-7.7v-21.27h-.17l-6.2,3.71v-6.54l6.98-4.26Z"/>
          </g>
          <g id="globe-color">
            <g id="Group_3417422" data-name="Group 3417422">
              <path id="Path_3640439" data-name="Path 3640439" class="cls-46" d="M111.49,61.35c-7.54-27.25-35.74-43.23-62.99-35.68-17.34,4.8-30.89,18.35-35.68,35.68H.5v27.58h12.39c7.69,27.21,35.98,43.02,63.19,35.33,17.12-4.84,30.49-18.22,35.33-35.33h12.52v-27.58h-12.44ZM121.99,87.05h-12.18c-.01.06-.03.12-.04.17-6.76,26.25-33.52,42.04-59.77,35.28-.11-.03-.21-.06-.32-.08-12.62-3.31-23.38-11.55-29.86-22.86-2.27-3.91-3.99-8.12-5.12-12.5H2.39v-23.82h12.15c.09-.36.18-.73.27-1.09,3.31-12.66,11.53-23.48,22.83-30.06,23.25-13.69,53.19-5.94,66.88,17.31.08.14.16.28.24.41,2.43,4.19,4.23,8.71,5.35,13.42h11.87v23.82Z"/>
              <path id="Path_3640440" data-name="Path 3640440" class="cls-2" d="M80.11,40.72c-3-.3-5.97-.82-8.89-1.54h0c-2.5-.61-4.95-1.36-7.36-2.26-.77,1.11-1.54,2.32-2.3,3.6,2.83.64,5.76,1.37,8.71,2.2,3.5.99,6.93,2.07,10.19,3.21,0-.4-.02-.8-.04-1.19-.06-1.4-.17-2.75-.32-4.01Z"/>
              <path id="Path_3640441" data-name="Path 3640441" class="cls-2" d="M37.95,51.59h0c1.91,1.06,3.98,2.08,6.33,3.14,2.49,1.12,5.13,2.2,7.84,3.22,1.59-4.39,3.43-8.68,5.53-12.85.62-1.22,1.29-2.46,2-3.69-3.93-.71-7.77-1.25-11.43-1.59h0c-.51-.05-1.04-.1-1.74-.15-3.35,3.59-6.21,7.6-8.53,11.93Z"/>
              <path id="Path_3640442" data-name="Path 3640442" class="cls-2" d="M56.77,33.38c-.46-.32-.91-.66-1.33-1.02-2.72,1.64-5.24,3.59-7.5,5.81l.25.03.28.03c3.8.46,7.68,1.12,11.87,2.02l.05-.09c.2-.33.39-.65.59-.97.59-.94,1.2-1.85,1.8-2.7-.54-.22-.98-.4-1.4-.59-1.61-.7-3.15-1.55-4.62-2.52Z"/>
              <path id="Path_3640443" data-name="Path 3640443" class="cls-2" d="M34.69,58.59c1.65.15,3.44.35,5.47.62,3.49.49,7.04,1.11,10.85,1.91.19-.55.37-1.1.56-1.64-2.77-.95-5.44-1.96-7.93-3h0c-2.51-1.07-4.67-2.09-6.61-3.12-.84,1.68-1.63,3.44-2.35,5.24Z"/>
              <path id="Path_3640444" data-name="Path 3640444" class="cls-2" d="M91.19,50.19c.85.38,1.71.78,2.54,1.18l-.03-.12c-.06-.24-.12-.48-.2-.72-1-3.57-2.5-6.99-4.45-10.14-.79.23-1.6.37-2.42.44-1.73.14-3.48.14-5.21,0-.19-.01-.38-.03-.57-.05h-.04c.16,1.68.25,3.48.26,5.36,3.54,1.26,6.95,2.63,10.11,4.05Z"/>
              <path id="Path_3640445" data-name="Path 3640445" class="cls-2" d="M64.57,119.63c4.85-1.88,9.25-4.76,12.92-8.45.09-.08.17-.17.26-.26l.06-.06c-.88-.06-1.77-.14-2.64-.22-3.48-.33-7.12-.83-10.83-1.48-1.27,2.23-2.7,4.35-4.29,6.36-1.28,1.66-2.8,3.13-4.5,4.36-.56.38-1.15.7-1.77.96.75.14,1.5.26,2.24.36.46,0,.9-.01,1.33-.04,2.47-.16,4.91-.68,7.23-1.55Z"/>
              <path id="Path_3640446" data-name="Path 3640446" class="cls-2" d="M44.32,111.56c-.38-2.18-.62-4.38-.7-6.59,0-.19-.01-.38-.02-.57,0-.1,0-.2,0-.31-4.05-1.27-7.74-2.61-11.28-4.09l-.24-.1-.2-.08c1.29,4.57,3.47,8.84,6.4,12.57,1.54,1.92,3.35,3.61,5.38,5.01h0c.61.41,1.24.8,1.88,1.15.57.22,1.14.42,1.72.62-.39-.5-.74-1.04-1.03-1.6-.92-1.9-1.57-3.92-1.9-6Z"/>
              <path id="Path_3640447" data-name="Path 3640447" class="cls-2" d="M52.74,120.19c.85-.23,1.66-.6,2.39-1.1,1.65-1.14,3.12-2.52,4.37-4.08,1.37-1.66,2.62-3.42,3.75-5.25.11-.18.23-.36.34-.55l.09-.15c-3.37-.61-6.83-1.35-10.3-2.21-2.95-.74-5.85-1.54-8.62-2.38.03,2.21.21,4.42.54,6.61.27,1.98.82,3.9,1.65,5.72.55,1.29,1.49,2.37,2.68,3.1.22.06.44.12.66.18.36.1.73.19,1.09.27.46.01.92-.04,1.36-.16Z"/>
              <path id="Path_3640448" data-name="Path 3640448" class="cls-2" d="M37.39,113.36c-3.39-4.14-5.88-8.95-7.3-14.1l-.04-.16-.03-.1c-2.65-1.18-5.21-2.53-7.68-4.05-1.13-.71-2.21-1.48-3.25-2.31.81,1.97,1.75,3.87,2.81,5.71,4.26,7.41,10.48,13.51,17.99,17.61-.89-.81-1.72-1.67-2.5-2.59Z"/>
              <path id="Path_3640449" data-name="Path 3640449" class="cls-2" d="M86.22,110.97c-2.55.12-5.11.1-7.65-.06l-.22.23c-.12.13-.24.26-.37.39-3.68,3.81-8.11,6.82-13.02,8.82h0c-1.37.53-2.78.95-4.21,1.26,8.76.27,17.42-1.96,24.97-6.41,2.71-1.58,5.25-3.43,7.59-5.52-.52.21-1.06.39-1.6.53-1.8.44-3.64.69-5.49.76Z"/>
              <path id="Path_3640450" data-name="Path 3640450" class="cls-2" d="M102.72,89.98c-2.07.34-4.16.51-6.26.5-1.65,0-3.33-.03-5.15-.13-.98,2.58-2.13,5.09-3.42,7.53.58.35,1.09.66,1.54.95,1.57.98,3.04,2.11,4.39,3.38.68.64,1.27,1.37,1.76,2.16.49.75.7,1.64.59,2.53,4.96-5.25,8.64-11.57,10.74-18.48-.36.27-.75.5-1.16.68-.97.41-1.99.71-3.03.89Z"/>
              <path id="Path_3640451" data-name="Path 3640451" class="cls-2" d="M80.49,38.12c.11.66.2,1.37.29,2.22h.06c.17.03.35.05.53.07,1.71.18,3.43.22,5.14.1.8-.06,1.6-.19,2.38-.41-.74-1.16-1.55-2.26-2.43-3.31-1.59-1.9-3.45-3.56-5.52-4.92-.56-.36-1.14-.7-1.77-1.04-.5-.2-1.03-.39-1.59-.58.45.57.84,1.19,1.16,1.84.88,1.91,1.47,3.94,1.76,6.02Z"/>
              <path id="Path_3640452" data-name="Path 3640452" class="cls-2" d="M65.48,34.72c-.32.4-.66.84-1.02,1.35,2.25.91,4.54,1.7,6.88,2.36,2.86.82,5.78,1.44,8.73,1.83-.09-.71-.19-1.35-.3-1.95-.31-1.98-.91-3.9-1.78-5.71-.66-1.56-1.96-2.76-3.56-3.3-.77-.17-1.57-.14-2.33.09-.84.26-1.64.65-2.35,1.17-1.61,1.18-3.04,2.58-4.25,4.16Z"/>
              <path id="Path_3640453" data-name="Path 3640453" class="cls-2" d="M87.34,97.94l.05-.1c-2.63-1.49-5.34-2.82-8.13-3.98-2.12-.89-4.35-1.74-6.84-2.62l-.04.11c-.03.08-.06.16-.09.24-1.52,4.29-3.29,8.5-5.29,12.59-.73,1.47-1.47,2.88-2.21,4.19,3.61.74,6.95,1.28,10.19,1.67,1.04.12,2.13.23,3.31.32,3.49-3.62,6.48-7.7,8.88-12.12.05-.1.1-.2.15-.3Z"/>
              <path id="Path_3640454" data-name="Path 3640454" class="cls-2" d="M87.14,36.36c.9,1.11,1.73,2.28,2.47,3.5.23-.09.45-.21.66-.35.4-.24.7-.61.84-1.05.06-.27.06-.55-.02-.82-2.25-1.77-4.66-3.32-7.2-4.65,1.17,1.03,2.26,2.15,3.24,3.37Z"/>
              <path id="Path_3640455" data-name="Path 3640455" class="cls-2" d="M73.49,88.14c-.28.83-.57,1.68-.9,2.59,2.53.97,4.84,1.93,7.06,2.93,2.68,1.19,5.3,2.52,7.84,3.99,1.26-2.37,2.38-4.82,3.35-7.32-2.22-.13-4.54-.34-6.9-.62-3.37-.4-6.88-.92-10.46-1.56Z"/>
              <path id="Path_3640456" data-name="Path 3640456" class="cls-2" d="M87.7,98.26l-.08.14c-2.33,4.35-5.22,8.39-8.58,12.01,2.29.18,4.6.22,6.89.13,1.83-.06,3.65-.3,5.43-.72.89-.21,1.75-.54,2.55-.98,1.52-.62,2.25-2.36,1.63-3.88-.1-.26-.24-.5-.42-.71-.48-.78-1.07-1.49-1.74-2.11-1.34-1.24-2.8-2.35-4.37-3.31-.39-.25-.78-.48-1.24-.75l-.1.19Z"/>
              <path id="Path_3640457" data-name="Path 3640457" class="cls-36" d="M51.39,120.35c.46.01.92-.04,1.36-.16.85-.23,1.66-.6,2.39-1.1,1.65-1.14,3.12-2.52,4.37-4.08,1.37-1.66,2.62-3.42,3.75-5.25.11-.18.23-.36.34-.55l.09-.15c-3.37-.61-6.83-1.35-10.3-2.21-2.95-.74-5.85-1.54-8.62-2.38.03,2.21.21,4.42.54,6.61.27,1.98.82,3.9,1.65,5.72.55,1.29,1.49,2.37,2.68,3.1.22.06.44.12.66.18.36.09.73.18,1.09.27Z"/>
              <path id="Path_3640458" data-name="Path 3640458" class="cls-42" d="M85.72,115.2c2.71-1.58,5.25-3.43,7.59-5.52-.52.21-1.06.39-1.6.53-1.8.44-3.64.69-5.49.76-2.55.12-5.11.1-7.65-.06l-.22.23c-.12.13-.24.26-.37.39-3.68,3.81-8.11,6.82-13.02,8.82h0c-1.37.53-2.78.95-4.21,1.26,8.76.27,17.42-1.96,24.97-6.41Z"/>
              <path id="Path_3640459" data-name="Path 3640459" class="cls-43" d="M17.03,63.19v.03s0,0,0,0c0-.01,0-.02,0-.03Z"/>
              <path id="Path_3640460" data-name="Path 3640460" class="cls-41" d="M39.89,115.95c-.89-.81-1.72-1.67-2.5-2.58-3.39-4.14-5.88-8.95-7.3-14.1l-.04-.16-.03-.1c-2.65-1.18-5.21-2.53-7.68-4.05-1.13-.71-2.21-1.48-3.25-2.31.81,1.97,1.75,3.87,2.81,5.71,4.26,7.41,10.48,13.51,17.99,17.6Z"/>
              <path id="Path_3640461" data-name="Path 3640461" class="cls-39" d="M105.75,89.1c-.97.41-1.99.7-3.03.88-2.07.34-4.16.51-6.26.5-1.65,0-3.33-.03-5.15-.13-.98,2.58-2.13,5.09-3.42,7.53.58.35,1.09.66,1.54.95,1.57.98,3.04,2.11,4.39,3.38.68.64,1.27,1.37,1.76,2.16.49.75.7,1.64.59,2.53,4.96-5.25,8.64-11.57,10.74-18.48-.36.27-.75.5-1.16.68Z"/>
              <path id="Path_3640462" data-name="Path 3640462" class="cls-40" d="M17.57,88c.44.71.97,1.36,1.58,1.93,1.29,1.21,2.71,2.3,4.21,3.23,1.95,1.24,3.97,2.38,6.05,3.4-.71-3.13-1.16-6.32-1.32-9.53h-10.89c.05.17.1.34.15.51.07.15.14.3.23.45Z"/>
              <path id="Path_3640463" data-name="Path 3640463" class="cls-20" d="M46.22,117.56c-.92-1.9-1.56-3.92-1.9-6-.38-2.18-.62-4.38-.7-6.59,0-.19-.01-.38-.02-.57,0-.1,0-.2,0-.31-4.05-1.27-7.74-2.61-11.28-4.09l-.24-.1-.2-.08c1.29,4.57,3.47,8.84,6.4,12.57,1.54,1.92,3.35,3.61,5.38,5.01h0c.61.41,1.24.8,1.88,1.15.57.22,1.14.42,1.72.62-.4-.5-.74-1.04-1.04-1.6Z"/>
              <path id="Path_3640464" data-name="Path 3640464" class="cls-17" d="M57.34,121.18c2.47-.16,4.91-.68,7.23-1.55,4.85-1.88,9.25-4.76,12.92-8.45.09-.08.17-.17.26-.26l.06-.06c-.88-.06-1.77-.14-2.64-.22-3.48-.33-7.12-.83-10.83-1.48-1.27,2.23-2.7,4.35-4.29,6.36-1.28,1.66-2.8,3.13-4.5,4.36-.56.38-1.15.7-1.77.96.75.14,1.5.26,2.24.36.46,0,.9-.01,1.32-.04Z"/>
              <path id="Path_3640465" data-name="Path 3640465" class="cls-18" d="M92.48,87.05c-.32.96-.65,1.92-1.01,2.88,1.67.11,3.21.16,4.71.16,2.08.02,4.16-.14,6.21-.48,1.03-.16,2.03-.45,2.98-.85.48-.2.92-.47,1.32-.8.2-.17.38-.37.52-.58.03-.11.06-.21.09-.32h-14.83Z"/>
              <path id="Path_3640466" data-name="Path 3640466" class="cls-58" d="M109.54,87.05h-2.23c-.03.11-.06.22-.09.32-.1.35-.2.7-.31,1.05-2.1,6.91-5.78,13.23-10.74,18.48-.91.96-1.87,1.89-2.86,2.78-2.34,2.08-4.88,3.93-7.59,5.51-8.94,5.29-19.4,7.41-29.7,6.02-.75-.1-1.5-.22-2.25-.36-.8-.15-1.59-.31-2.39-.5-.36-.09-.73-.18-1.09-.27-.22-.06-.44-.12-.66-.18-.81-.23-1.6-.47-2.39-.74-.58-.2-1.15-.4-1.72-.62-9.97-3.8-18.32-10.94-23.62-20.2-1.06-1.84-2-3.75-2.81-5.71-.68-1.65-1.27-3.35-1.75-5.07-.05-.17-.1-.34-.15-.51h-2.5c1.13,4.38,2.85,8.59,5.12,12.5,13.43,23.38,43.26,31.44,66.63,18.01.16-.09.33-.19.49-.28,11.31-6.58,19.52-17.4,22.83-30.06.01-.06.03-.11.04-.17h-.27Z"/>
              <path id="Path_3640467" data-name="Path 3640467" class="cls-19" d="M91.19,50.19c.85.38,1.71.78,2.54,1.18l-.03-.12c-.06-.24-.12-.48-.2-.72-1-3.57-2.5-6.99-4.45-10.14-.79.23-1.6.37-2.42.44-1.73.14-3.48.14-5.21,0-.19-.01-.38-.03-.57-.05h-.04c.16,1.68.25,3.48.26,5.36,3.54,1.26,6.95,2.63,10.11,4.05Z"/>
              <path id="Path_3640468" data-name="Path 3640468" class="cls-28" d="M91.4,38.59c-.15.48-.47.89-.9,1.16-.23.15-.47.28-.72.38,1.9,3.23,3.36,6.71,4.33,10.33.09.33.17.67.26,1l.06.25c2.26,1.1,4.46,2.33,6.59,3.67,1.58.98,3.06,2.11,4.42,3.38.49.47.94.98,1.34,1.53-2.51-7.82-7.01-14.86-13.06-20.42-.26-.24-.53-.48-.8-.71l-.23-.2c-.39-.34-.79-.67-1.2-.99l-.06-.05c.04.23.03.47-.03.69Z"/>
              <path id="Path_3640469" data-name="Path 3640469" class="cls-24" d="M60.92,41.63c-.74,1.32-1.46,2.7-2.22,4.22-1.97,4.05-3.71,8.21-5.21,12.45-.01.03-.02.06-.03.1v.03c3.68,1.34,7.55,2.59,11.49,3.69,1.42.39,2.8.76,4.16,1.11h10.06c.61-3.92,1.02-7.87,1.23-11.83.08-1.57.11-3.19.09-4.8-3.34-1.07-6.82-2.06-10.63-3.01-2.96-.73-5.97-1.39-8.92-1.95Z"/>
              <path id="Path_3640470" data-name="Path 3640470" class="cls-22" d="M87.14,36.36c.9,1.11,1.73,2.28,2.47,3.5.23-.09.45-.21.66-.35.4-.24.7-.61.84-1.05.06-.27.06-.55-.02-.82-1.93-1.51-3.98-2.87-6.12-4.06l-.21-.12c-.16-.09-.32-.17-.47-.25-.13-.07-.26-.14-.39-.21,1.17,1.03,2.25,2.15,3.24,3.36Z"/>
              <path id="Path_3640471" data-name="Path 3640471" class="cls-21" d="M73.08,88.07c-1.74-.31-3.49-.65-5.26-1.02h-6.08c3.65,1.1,7.16,2.28,10.47,3.54.29-.81.58-1.64.87-2.51Z"/>
              <path id="Path_3640472" data-name="Path 3640472" class="cls-27" d="M51.83,63.23h3.13c-.99-.2-1.97-.39-2.95-.58-.06.19-.12.38-.18.58Z"/>
              <path id="Path_3640473" data-name="Path 3640473" class="cls-23" d="M64.36,63.23c-4.05-1.02-7.8-2.11-11.43-3.31l-.09.25c-.15.41-.29.83-.43,1.24,2.52.54,5.06,1.15,7.68,1.82h4.26Z"/>
              <path id="Path_3640474" data-name="Path 3640474" class="cls-30" d="M54.68,29.76c.19.36.43.69.71.98h0l.02.02c1.39-.75,2.83-1.4,4.31-1.95,1.22-.44,2.46-.8,3.73-1.07-.36,0-.72-.02-1.07-.02-2.55,0-5.1.21-7.62.64-.11.12-.2.27-.24.43-.06.33,0,.68.17.97Z"/>
              <path id="Path_3640475" data-name="Path 3640475" class="cls-26" d="M27.55,58.24c1.66,0,3.4.06,5.32.2.8-2.03,1.69-4.02,2.66-5.92-.69-.39-1.31-.75-1.89-1.12-1.63-1-3.17-2.16-4.57-3.46-.75-.69-1.39-1.48-1.93-2.34-.21-.36-.39-.74-.53-1.13-3.75,4.46-6.63,9.58-8.5,15.1.98-.39,2-.67,3.04-.84,2.12-.34,4.26-.5,6.41-.49Z"/>
              <path id="Path_3640476" data-name="Path 3640476" class="cls-29" d="M31.18,63.23c.32-1.04.68-2.07,1.05-3.09-1.4-.07-2.79-.1-4.11-.1h-.57c-2.03,0-4.06.16-6.06.5-.95.16-1.89.43-2.78.81-.59.23-1.11.62-1.49,1.13-.03.1-.06.2-.08.29-.04.15-.07.29-.11.44v.03h14.15Z"/>
              <path id="Path_3640477" data-name="Path 3640477" class="cls-25" d="M67.15,28.41c-2.45.22-4.86.79-7.15,1.7-1.2.47-2.38,1.02-3.51,1.64.26.2.53.41.82.61,1.41.96,2.89,1.8,4.43,2.51.5.24,1.05.49,1.66.75.51-.7.99-1.29,1.44-1.83,1.32-1.64,2.88-3.09,4.62-4.28.57-.37,1.18-.68,1.81-.93-.43-.08-.85-.16-1.28-.23-.95-.04-1.9-.03-2.85.05Z"/>
              <path id="Path_3640478" data-name="Path 3640478" class="cls-32" d="M72.09,29.39c-.84.26-1.64.65-2.35,1.17-1.61,1.18-3.04,2.58-4.26,4.16-.32.4-.66.84-1.02,1.35,2.25.91,4.54,1.7,6.88,2.36,2.86.82,5.78,1.44,8.73,1.83-.09-.71-.19-1.35-.3-1.95-.31-1.98-.91-3.9-1.78-5.71-.62-1.39-1.72-2.52-3.11-3.16-.2-.06-.39-.11-.59-.17h0l-.12-.03c-.69-.11-1.4-.06-2.07.14Z"/>
              <path id="Path_3640479" data-name="Path 3640479" class="cls-16" d="M28.83,44.46c.44.71.97,1.36,1.59,1.94,1.3,1.22,2.72,2.3,4.23,3.24.56.36,1.15.72,1.81,1.11l.03-.06c2.2-4.02,4.87-7.77,7.95-11.16-2.37-.14-4.74-.16-7.11-.04-1.78.07-3.55.31-5.28.73-.8.19-1.58.49-2.3.88-.45.43-.88.88-1.31,1.33-.02.04-.03.09-.04.13-.12.67.04,1.36.43,1.91Z"/>
              <path id="Path_3640480" data-name="Path 3640480" class="cls-33" d="M73.41,87.05h-1.35c.42.09.84.18,1.26.27.03-.09.06-.18.09-.27Z"/>
              <path id="Path_3640481" data-name="Path 3640481" class="cls-31" d="M45.93,37.97l.18-.19c.1-.1.19-.2.29-.3,2.41-2.37,5.1-4.44,8.01-6.16-.24-.28-.44-.59-.61-.91-.13-.26-.23-.53-.28-.82-.06-.33-.05-.67.03-1h0c-5.18,1.01-10.14,2.89-14.69,5.57-2.01,1.18-3.94,2.5-5.76,3.96,1.38-.23,2.77-.37,4.16-.43,2.89-.1,5.79-.01,8.67.27Z"/>
              <path id="Path_3640482" data-name="Path 3640482" class="cls-15" d="M80.49,38.12c.11.66.2,1.37.29,2.22h.06c.17.03.35.05.53.07,1.71.18,3.43.22,5.14.1.8-.06,1.6-.19,2.38-.41-.74-1.16-1.55-2.26-2.43-3.31-1.59-1.9-3.45-3.56-5.52-4.92-.53-.34-1.08-.67-1.67-.98-.55-.21-1.11-.42-1.67-.61.45.56.83,1.18,1.14,1.82.87,1.91,1.47,3.94,1.76,6.02Z"/>
              <path id="Path_3640483" data-name="Path 3640483" class="cls-6" d="M73.49,88.14c-.28.83-.57,1.68-.9,2.59,2.53.97,4.84,1.93,7.06,2.93,2.68,1.19,5.3,2.52,7.84,3.99,1.26-2.37,2.38-4.82,3.35-7.32-2.22-.13-4.54-.34-6.9-.62-3.37-.4-6.88-.92-10.46-1.56Z"/>
              <path id="Path_3640484" data-name="Path 3640484" class="cls-8" d="M87.7,98.26l-.08.14c-2.33,4.35-5.22,8.39-8.58,12.01,2.29.18,4.6.22,6.89.13,1.83-.06,3.65-.3,5.43-.72.89-.21,1.75-.54,2.55-.98,1.52-.62,2.25-2.36,1.63-3.88-.1-.26-.24-.5-.42-.71-.48-.78-1.07-1.49-1.74-2.11-1.34-1.24-2.8-2.35-4.37-3.31-.39-.25-.78-.48-1.24-.75l-.1.19Z"/>
              <path id="Path_3640485" data-name="Path 3640485" class="cls-9" d="M72.02,91.09c-4.23-1.47-8.68-2.78-13.6-4.01l-.15-.04h-12.13c-.62,3.94-1.02,7.56-1.22,11-.1,1.73-.15,3.31-.16,4.84,2.86.98,5.81,1.9,8.77,2.73,3.65,1.02,7.23,1.9,10.65,2.61.84-1.42,1.62-2.87,2.34-4.29,2.09-4.17,3.93-8.46,5.51-12.85Z"/>
              <path id="Path_3640486" data-name="Path 3640486" class="cls-7" d="M73.73,87.4c3.53.72,6.81,1.29,10.03,1.74,2.77.37,5.07.61,7.25.76.36-.95.69-1.9,1.01-2.85h-18.18c-.04.12-.07.23-.11.35Z"/>
              <path id="Path_3640487" data-name="Path 3640487" class="cls-5" d="M87.34,97.94l.05-.1c-2.63-1.49-5.34-2.82-8.13-3.98-2.12-.89-4.35-1.74-6.84-2.62l-.04.11c-.03.08-.06.16-.09.24-1.52,4.29-3.29,8.5-5.29,12.59-.73,1.47-1.47,2.88-2.21,4.19,3.61.74,6.95,1.28,10.19,1.67,1.04.12,2.13.23,3.31.32,3.49-3.62,6.48-7.7,8.88-12.12.05-.1.1-.2.15-.3Z"/>
              <path id="Path_3640488" data-name="Path 3640488" class="cls-12" d="M90.78,50.37c-3.06-1.28-6.23-2.45-9.69-3.58,0,1.42-.05,2.93-.14,4.64-.24,3.95-.68,7.89-1.33,11.8h15.88c-.15-3.88-.7-7.73-1.67-11.49-.95-.45-1.96-.9-3.05-1.37Z"/>
              <path id="Path_3640489" data-name="Path 3640489" class="cls-14" d="M104.98,58.67c-1.35-1.25-2.82-2.36-4.39-3.32-1.96-1.22-3.99-2.32-6.08-3.3.87,3.67,1.36,7.41,1.47,11.17h11.32c.11-.86-.09-1.73-.57-2.45-.49-.78-1.07-1.49-1.75-2.11Z"/>
              <path id="Path_3640490" data-name="Path 3640490" class="cls-10" d="M48.47,38.22c3.8.46,7.68,1.12,11.87,2.02l.05-.09c.2-.33.39-.65.59-.97.59-.94,1.2-1.85,1.8-2.7-.54-.22-.98-.4-1.4-.59-1.61-.7-3.16-1.54-4.62-2.52-.46-.32-.91-.66-1.33-1.02-2.72,1.64-5.24,3.59-7.5,5.81l.25.03.28.03Z"/>
              <path id="Path_3640491" data-name="Path 3640491" class="cls-13" d="M52.12,57.94c1.59-4.39,3.43-8.68,5.53-12.85.62-1.22,1.29-2.46,2-3.69-3.93-.71-7.77-1.25-11.43-1.59h0c-.51-.05-1.04-.1-1.74-.15-3.35,3.59-6.21,7.61-8.53,11.94h0c1.91,1.06,3.98,2.08,6.33,3.14,2.49,1.12,5.13,2.2,7.84,3.22Z"/>
              <path id="Path_3640492" data-name="Path 3640492" class="cls-4" d="M51.01,61.12c.19-.55.37-1.1.56-1.64-2.77-.95-5.44-1.96-7.93-3h0c-2.51-1.07-4.67-2.09-6.61-3.12-.84,1.68-1.63,3.44-2.35,5.24,1.65.15,3.44.35,5.47.62,3.49.49,7.05,1.11,10.85,1.91Z"/>
              <path id="Path_3640493" data-name="Path 3640493" class="cls-11" d="M70.28,42.71c3.5.99,6.93,2.07,10.19,3.21,0-.4-.02-.8-.04-1.19-.06-1.4-.17-2.75-.32-4.01-3-.3-5.97-.82-8.89-1.54h0c-2.5-.61-4.95-1.36-7.36-2.26-.77,1.11-1.54,2.32-2.3,3.6,2.84.64,5.77,1.38,8.71,2.2Z"/>
              <path id="Path_3640494" data-name="Path 3640494" class="cls-34" d="M31.24,97.46c.53.25,1.09.51,1.71.79,3.35,1.51,6.92,2.93,10.6,4.23-.01-1.46.01-2.9.08-4.29.17-3.58.54-7.32,1.1-11.14h-14.96c.15,3.51.65,7,1.48,10.41Z"/>
              <path id="Path_3640495" data-name="Path 3640495" class="cls-35" d="M50.59,62.39c-3.75-.67-7.26-1.2-10.71-1.6-2-.24-3.96-.42-5.83-.55-.37.99-.71,1.99-1.02,2.99h17.29c.09-.28.18-.56.27-.83Z"/>
              <path id="Path_3640496" data-name="Path 3640496" class="cls-57" d="M84.3,33.21c.16.08.32.17.47.25-.16-.09-.32-.17-.47-.25Z"/>
              <path id="Path_3640497" data-name="Path 3640497" class="cls-57" d="M89.63,36.54h-.01s.01,0,.01,0Z"/>
              <path id="Path_3640498" data-name="Path 3640498" class="cls-56" d="M91.43,37.9h0l.07.05-.07-.05Z"/>
              <path id="Path_3640499" data-name="Path 3640499" class="cls-56" d="M83.9,32.99h0c.13.08.26.15.39.21-.13-.07-.26-.14-.4-.21Z"/>
              <path id="Path_3640500" data-name="Path 3640500" class="cls-56" d="M84.77,33.46l.21.12-.21-.12Z"/>
              <g id="Group_3417417" data-name="Group 3417417">
                <path id="Path_3640501" data-name="Path 3640501" class="cls-2" d="M74.28,29.28l-.12-.03c-.69-.11-1.4-.06-2.07.14-.84.26-1.64.65-2.35,1.17-1.61,1.18-3.04,2.58-4.26,4.16-.32.4-.66.84-1.02,1.35,2.25.91,4.54,1.7,6.88,2.36,2.86.82,5.78,1.44,8.73,1.83-.09-.71-.19-1.35-.3-1.95-.31-1.98-.91-3.9-1.78-5.71-.62-1.39-1.72-2.52-3.11-3.16-.2-.06-.39-.11-.59-.17h0Z"/>
                <path id="Path_3640502" data-name="Path 3640502" class="cls-2" d="M73.08,88.07c-1.74-.31-3.49-.65-5.26-1.02h-6.08c3.65,1.1,7.16,2.28,10.47,3.54.29-.81.58-1.64.87-2.51Z"/>
                <path id="Path_3640503" data-name="Path 3640503" class="cls-2" d="M91.19,50.19c.85.38,1.71.78,2.54,1.18l-.03-.12c-.06-.24-.12-.48-.2-.72-1-3.57-2.5-6.99-4.45-10.14-.79.23-1.6.37-2.42.44-1.73.14-3.48.14-5.21,0-.19-.01-.38-.03-.57-.05h-.04c.16,1.68.25,3.48.26,5.36,3.54,1.26,6.95,2.63,10.11,4.05Z"/>
                <path id="Path_3640504" data-name="Path 3640504" class="cls-2" d="M60.92,41.63c-.74,1.32-1.46,2.7-2.22,4.22-1.97,4.05-3.71,8.21-5.21,12.45-.01.03-.02.06-.03.1v.03c3.68,1.34,7.55,2.59,11.49,3.69,1.42.39,2.8.76,4.16,1.11h10.06c.61-3.92,1.02-7.87,1.23-11.83.08-1.57.11-3.19.09-4.8-3.34-1.07-6.82-2.06-10.63-3.01-2.96-.73-5.97-1.39-8.92-1.95Z"/>
                <path id="Path_3640505" data-name="Path 3640505" class="cls-2" d="M51.83,63.23h3.13c-.99-.2-1.97-.39-2.95-.58-.06.19-.12.38-.18.58Z"/>
                <path id="Path_3640506" data-name="Path 3640506" class="cls-2" d="M64.36,63.23c-4.05-1.02-7.8-2.11-11.43-3.31l-.09.25c-.15.41-.29.83-.43,1.24,2.52.54,5.06,1.15,7.68,1.82h4.26Z"/>
                <path id="Path_3640507" data-name="Path 3640507" class="cls-2" d="M84.77,33.46c-.16-.09-.32-.17-.47-.25-.13-.07-.27-.14-.4-.21h0c1.17,1.03,2.25,2.16,3.24,3.37.9,1.11,1.73,2.28,2.47,3.5.23-.09.45-.21.66-.35.4-.24.7-.61.84-1.05.06-.27.06-.55-.02-.82h0c-1.93-1.52-3.97-2.88-6.12-4.07l-.21-.12Z"/>
                <path id="Path_3640508" data-name="Path 3640508" class="cls-2" d="M67.16,28.41c-2.45.22-4.86.79-7.15,1.7-1.2.47-2.38,1.02-3.51,1.64.26.2.53.41.82.61,1.41.96,2.89,1.8,4.43,2.51.5.24,1.05.49,1.66.75.51-.7.99-1.29,1.44-1.83,1.32-1.64,2.88-3.09,4.62-4.28.57-.37,1.18-.68,1.81-.93-.43-.08-.85-.16-1.28-.23-.95-.04-1.9-.03-2.85.05Z"/>
                <path id="Path_3640509" data-name="Path 3640509" class="cls-2" d="M78.73,32.11c.88,1.91,1.47,3.94,1.76,6.01.11.66.2,1.37.29,2.22h.06c.17.03.35.05.53.07,1.71.18,3.43.22,5.14.1.8-.06,1.6-.19,2.38-.41-.74-1.16-1.55-2.26-2.43-3.31-1.59-1.9-3.45-3.56-5.52-4.92-.53-.34-1.08-.67-1.67-.98-.55-.21-1.11-.42-1.67-.61.45.56.83,1.18,1.14,1.83Z"/>
                <path id="Path_3640510" data-name="Path 3640510" class="cls-2" d="M21.14,58.72c2.12-.34,4.26-.5,6.41-.48,1.66,0,3.4.06,5.32.2.8-2.03,1.69-4.02,2.66-5.92-.69-.39-1.31-.75-1.89-1.12-1.63-1-3.17-2.16-4.57-3.46-.75-.69-1.39-1.48-1.93-2.34-.21-.36-.39-.74-.53-1.13-3.75,4.46-6.63,9.58-8.5,15.1.98-.39,1.99-.67,3.03-.84Z"/>
                <path id="Path_3640511" data-name="Path 3640511" class="cls-2" d="M28.44,42.42s-.03.09-.04.13c-.12.67.04,1.36.43,1.91.44.71.97,1.36,1.59,1.94,1.3,1.22,2.72,2.3,4.23,3.24.56.36,1.15.72,1.81,1.11l.03-.06c2.2-4.02,4.87-7.77,7.95-11.16-2.37-.14-4.74-.16-7.11-.04-1.78.07-3.55.31-5.28.73-.8.19-1.58.49-2.3.88-.45.43-.89.88-1.31,1.33Z"/>
                <path id="Path_3640512" data-name="Path 3640512" class="cls-2" d="M33.1,38.13c1.38-.23,2.77-.37,4.16-.43,2.89-.1,5.79-.01,8.67.27l.18-.19c.1-.1.19-.2.29-.3,2.41-2.37,5.1-4.44,8.01-6.16-.24-.28-.44-.59-.61-.91-.13-.26-.23-.53-.28-.82-.06-.33-.05-.67.03-1h0c-5.18,1.01-10.14,2.89-14.69,5.57-2.01,1.18-3.94,2.51-5.76,3.97Z"/>
                <path id="Path_3640513" data-name="Path 3640513" class="cls-2" d="M17.03,63.19v.03s14.15,0,14.15,0c.32-1.04.68-2.07,1.05-3.09-1.4-.07-2.79-.1-4.11-.1h-.57c-2.03,0-4.06.16-6.06.5-.95.16-1.89.43-2.78.81-.59.23-1.11.62-1.49,1.13-.03.1-.06.2-.08.29-.04.14-.07.29-.11.43Z"/>
                <path id="Path_3640514" data-name="Path 3640514" class="cls-2" d="M54.76,28.36c-.11.12-.2.27-.24.43-.06.33,0,.68.17.97.19.36.43.69.71.98h0l.02.02c1.39-.75,2.83-1.4,4.31-1.95,1.22-.44,2.46-.8,3.73-1.07-.36,0-.72-.02-1.07-.02-2.55,0-5.1.21-7.62.64Z"/>
                <path id="Path_3640515" data-name="Path 3640515" class="cls-2" d="M87.7,98.26l-.08.14c-2.33,4.35-5.22,8.39-8.58,12.01,2.29.18,4.6.22,6.89.13,1.83-.06,3.65-.3,5.43-.72.89-.21,1.75-.54,2.55-.98,1.52-.62,2.25-2.36,1.63-3.88-.1-.26-.24-.5-.42-.71-.48-.78-1.07-1.49-1.74-2.11-1.34-1.24-2.8-2.35-4.37-3.31-.39-.25-.78-.48-1.24-.75l-.1.19Z"/>
                <path id="Path_3640516" data-name="Path 3640516" class="cls-2" d="M31.24,97.46c.53.25,1.09.51,1.71.79,3.35,1.51,6.92,2.93,10.6,4.23-.01-1.46.01-2.9.08-4.29.17-3.58.54-7.32,1.1-11.14h-14.96c.15,3.51.65,7,1.48,10.41Z"/>
                <path id="Path_3640517" data-name="Path 3640517" class="cls-2" d="M87.34,97.94l.05-.1c-2.63-1.49-5.34-2.82-8.13-3.98-2.12-.89-4.35-1.74-6.84-2.62l-.04.11c-.03.08-.06.16-.09.24-1.52,4.29-3.29,8.5-5.29,12.59-.73,1.47-1.47,2.88-2.21,4.19,3.61.74,6.95,1.28,10.19,1.67,1.04.12,2.13.23,3.31.32,3.49-3.62,6.48-7.7,8.88-12.12.05-.1.1-.2.15-.3Z"/>
                <path id="Path_3640518" data-name="Path 3640518" class="cls-2" d="M73.73,87.4c3.53.72,6.81,1.29,10.03,1.74,2.77.37,5.07.61,7.25.76.36-.95.69-1.9,1.01-2.85h-18.18c-.04.12-.07.23-.11.35Z"/>
                <path id="Path_3640519" data-name="Path 3640519" class="cls-2" d="M72.02,91.09c-4.23-1.47-8.68-2.78-13.6-4.01l-.15-.04h-12.13c-.62,3.94-1.02,7.56-1.22,11-.1,1.73-.15,3.31-.16,4.84,2.86.98,5.81,1.9,8.77,2.73,3.65,1.02,7.23,1.9,10.65,2.61.84-1.42,1.62-2.87,2.34-4.29,2.09-4.17,3.93-8.46,5.51-12.85Z"/>
                <path id="Path_3640520" data-name="Path 3640520" class="cls-2" d="M73.49,88.14c-.28.83-.57,1.68-.9,2.59,2.53.97,4.84,1.93,7.06,2.93,2.68,1.19,5.3,2.52,7.84,3.99,1.26-2.37,2.38-4.82,3.35-7.32-2.22-.13-4.54-.34-6.9-.62-3.37-.4-6.88-.92-10.46-1.56Z"/>
                <path id="Path_3640521" data-name="Path 3640521" class="cls-2" d="M73.41,87.05h-1.35c.42.09.84.18,1.26.27.03-.09.06-.18.09-.27Z"/>
                <path id="Path_3640522" data-name="Path 3640522" class="cls-2" d="M90.78,50.37c-3.06-1.28-6.23-2.45-9.69-3.58,0,1.42-.05,2.93-.14,4.64-.24,3.95-.68,7.89-1.33,11.8h15.88c-.15-3.88-.7-7.73-1.67-11.49-.95-.45-1.96-.9-3.05-1.37Z"/>
                <path id="Path_3640523" data-name="Path 3640523" class="cls-2" d="M104.98,58.67c-1.35-1.25-2.82-2.36-4.39-3.32-1.96-1.22-3.99-2.32-6.08-3.3.87,3.67,1.36,7.41,1.47,11.17h11.32c.11-.86-.09-1.73-.57-2.45-.49-.78-1.07-1.49-1.75-2.11Z"/>
                <path id="Path_3640524" data-name="Path 3640524" class="cls-2" d="M48.47,38.22c3.8.46,7.68,1.12,11.87,2.02l.05-.09c.2-.33.39-.65.59-.97.59-.94,1.2-1.85,1.8-2.7-.54-.22-.98-.4-1.4-.59-1.61-.7-3.16-1.54-4.62-2.52-.46-.32-.91-.66-1.33-1.02-2.72,1.64-5.24,3.59-7.5,5.81l.25.03.28.03Z"/>
                <path id="Path_3640525" data-name="Path 3640525" class="cls-2" d="M52.13,57.94c1.59-4.39,3.43-8.68,5.53-12.85.62-1.22,1.29-2.46,2-3.69-3.93-.71-7.77-1.25-11.43-1.59h0c-.51-.05-1.04-.1-1.74-.15-3.35,3.59-6.21,7.61-8.53,11.94h0c1.91,1.06,3.98,2.08,6.33,3.14,2.49,1.12,5.13,2.2,7.84,3.22Z"/>
                <path id="Path_3640526" data-name="Path 3640526" class="cls-2" d="M51.01,61.12c.19-.55.37-1.1.56-1.64-2.77-.95-5.44-1.96-7.93-3h0c-2.51-1.07-4.67-2.09-6.61-3.12-.84,1.68-1.63,3.44-2.35,5.24,1.65.15,3.44.35,5.47.62,3.49.49,7.05,1.11,10.85,1.91Z"/>
                <path id="Path_3640527" data-name="Path 3640527" class="cls-2" d="M50.59,62.39c-3.75-.67-7.26-1.2-10.71-1.6-2-.24-3.96-.42-5.83-.55-.37.99-.71,1.99-1.02,2.99h17.29c.09-.28.18-.56.27-.83Z"/>
                <path id="Path_3640528" data-name="Path 3640528" class="cls-2" d="M70.28,42.71c3.5.99,6.93,2.07,10.19,3.21,0-.4-.02-.8-.04-1.19-.06-1.4-.17-2.75-.32-4.01-3-.3-5.97-.82-8.89-1.54h0c-2.5-.61-4.95-1.36-7.36-2.26-.77,1.11-1.54,2.32-2.3,3.6,2.84.64,5.77,1.38,8.71,2.2Z"/>
                <path id="Path_3640529" data-name="Path 3640529" class="cls-57" d="M110.11,63.23h-2.49c-.25-.99-.53-1.97-.84-2.94-.4-.55-.85-1.06-1.34-1.53-1.36-1.27-2.84-2.4-4.42-3.38-2.13-1.34-4.33-2.57-6.59-3.67l-.06-.25c-.08-.33-.17-.67-.25-1-.97-3.62-2.43-7.09-4.33-10.33.25-.1.49-.23.72-.38.43-.26.75-.67.9-1.16.06-.23.07-.46.03-.69-.11-.09-.22-.17-.33-.26h0c.08.27.08.55.02.82-.14.44-.44.82-.84,1.05-.21.14-.43.25-.66.34-.74-1.22-1.57-2.39-2.47-3.5-.98-1.21-2.07-2.33-3.24-3.36-1.51-.78-3.06-1.49-4.65-2.1.6.32,1.14.64,1.67.98,2.07,1.36,3.93,3.02,5.53,4.92.88,1.05,1.7,2.15,2.43,3.31-.78.21-1.57.35-2.38.41-1.71.12-3.44.08-5.14-.1-.18-.02-.35-.04-.53-.06h-.06c-.09-.86-.18-1.57-.29-2.23-.29-2.08-.89-4.11-1.76-6.01-.31-.65-.7-1.26-1.14-1.82-.89-.31-1.8-.59-2.71-.84,1.38.64,2.49,1.76,3.11,3.16.87,1.81,1.47,3.73,1.78,5.71.11.61.21,1.25.3,1.95-2.95-.4-5.87-1.01-8.73-1.83-2.33-.66-4.63-1.44-6.88-2.36.37-.5.7-.94,1.03-1.35,1.21-1.58,2.65-2.99,4.26-4.16.72-.51,1.51-.91,2.35-1.17.67-.2,1.38-.25,2.07-.14-.96-.25-1.92-.47-2.88-.66-.63.25-1.24.56-1.81.93-1.74,1.19-3.3,2.64-4.62,4.28-.45.54-.92,1.14-1.44,1.83-.62-.27-1.16-.51-1.66-.75-1.54-.71-3.03-1.55-4.44-2.51-.29-.2-.57-.41-.82-.61,1.13-.62,2.3-1.17,3.51-1.64,2.29-.91,4.7-1.48,7.15-1.7.95-.08,1.9-.09,2.85-.05-2.17-.36-4.36-.57-6.55-.62-1.27.27-2.51.63-3.73,1.07-1.48.55-2.92,1.2-4.31,1.95l-.02-.02h0c-.28-.29-.52-.62-.71-.98-.17-.29-.23-.64-.17-.97.05-.16.13-.31.24-.43-.4.07-.81.15-1.21.22h0c-.08.34-.09.68-.03,1.01.06.28.15.56.28.82.17.33.38.63.61.91-2.91,1.72-5.6,3.78-8.01,6.16-.1.1-.19.2-.29.3l-.19.19c-2.88-.29-5.78-.38-8.67-.27-1.39.06-2.78.2-4.16.43-1.17.93-2.28,1.92-3.35,2.96.72-.39,1.5-.69,2.3-.88,1.73-.42,3.5-.66,5.28-.73,2.37-.11,4.74-.1,7.11.04-3.09,3.39-5.75,7.14-7.95,11.16l-.03.06c-.66-.39-1.25-.75-1.81-1.11-1.51-.94-2.93-2.03-4.23-3.24-.61-.57-1.14-1.23-1.59-1.94-.39-.55-.55-1.24-.43-1.91.01-.04.02-.09.04-.13-.63.67-1.24,1.35-1.83,2.05.14.4.31.77.53,1.13.54.86,1.19,1.65,1.93,2.34,1.41,1.3,2.94,2.46,4.57,3.46.58.36,1.2.73,1.89,1.12-.96,1.9-1.86,3.88-2.66,5.92-1.93-.14-3.67-.2-5.32-.2-2.15-.02-4.29.14-6.41.48-1.04.17-2.06.45-3.03.84-.32.95-.62,1.92-.88,2.9.38-.51.89-.9,1.49-1.13.89-.38,1.82-.65,2.78-.81,2-.34,4.03-.51,6.06-.5h.57c1.33,0,2.71.03,4.11.1-.37,1.02-.72,2.06-1.05,3.09H2.39v23.83h25.7c.17,3.21.61,6.4,1.33,9.53-2.08-1.03-4.1-2.16-6.05-3.4-1.51-.94-2.92-2.02-4.21-3.23-.61-.57-1.14-1.22-1.58-1.93-.08-.14-.16-.29-.23-.45.49,1.72,1.07,3.41,1.75,5.07,1.04.83,2.12,1.61,3.25,2.31,2.47,1.52,5.03,2.87,7.67,4.05l.03.1.04.17c1.42,5.16,3.91,9.96,7.3,14.11.78.91,1.61,1.78,2.5,2.58,1.82.99,3.7,1.86,5.64,2.59-.65-.35-1.27-.73-1.88-1.15h0c-2.03-1.4-3.84-3.09-5.38-5.01-2.93-3.73-5.11-8-6.4-12.57l.2.08.24.1c3.54,1.49,7.23,2.82,11.28,4.09,0,.1,0,.2,0,.31,0,.19.01.38.02.57.08,2.21.32,4.41.7,6.59.34,2.08.98,4.1,1.9,6,.29.56.64,1.1,1.03,1.6.79.27,1.58.51,2.39.74-1.2-.73-2.13-1.81-2.68-3.1-.82-1.82-1.37-3.75-1.65-5.72-.33-2.19-.51-4.4-.54-6.61,2.77.84,5.67,1.64,8.62,2.38,3.47.85,6.93,1.6,10.3,2.21l-.09.15c-.11.18-.22.37-.34.55-1.13,1.84-2.38,3.59-3.75,5.25-1.25,1.57-2.72,2.94-4.37,4.08-.73.5-1.54.87-2.39,1.1-.44.12-.9.17-1.36.16.79.19,1.59.36,2.38.5.62-.26,1.21-.58,1.77-.95,1.7-1.23,3.22-2.7,4.5-4.36,1.59-2.01,3.02-4.13,4.28-6.36,3.71.65,7.35,1.15,10.83,1.48.87.08,1.75.15,2.64.22l-.06.06c-.08.09-.17.17-.25.26-3.67,3.69-8.07,6.57-12.92,8.45-2.32.87-4.76,1.39-7.23,1.55-.42.03-.87.04-1.33.04,1.57.21,3.15.34,4.73.39,1.43-.31,2.84-.73,4.21-1.26h0c4.9-2,9.34-5.01,13.02-8.82.13-.13.25-.26.37-.39.07-.08.15-.15.22-.23,2.55.16,5.1.19,7.65.06,1.85-.07,3.69-.33,5.49-.76.54-.14,1.08-.32,1.6-.53,1-.89,1.95-1.81,2.86-2.78.11-.89-.1-1.78-.59-2.53-.49-.8-1.08-1.53-1.76-2.17-1.35-1.27-2.82-2.4-4.39-3.38-.45-.29-.96-.6-1.54-.95,1.29-2.44,2.44-4.95,3.42-7.53,1.82.1,3.5.14,5.15.13,2.1.01,4.19-.16,6.26-.5,1.04-.18,2.06-.47,3.03-.88.41-.18.8-.41,1.16-.68.11-.35.21-.7.31-1.05-.15.22-.32.41-.52.58-.4.33-.84.6-1.32.8-.96.4-1.96.69-2.99.85-2.05.33-4.13.49-6.21.48-1.5,0-3.04-.05-4.71-.16.36-.96.69-1.92,1.01-2.88h29.51v-23.82h-11.87ZM80.87,40.78c.19.02.38.03.57.05,1.73.14,3.48.14,5.21,0,.82-.07,1.63-.22,2.42-.44,1.95,3.15,3.45,6.56,4.45,10.14.07.24.14.49.2.72l.03.12c-.84-.4-1.69-.8-2.54-1.18-3.17-1.42-6.57-2.79-10.11-4.05,0-1.88-.09-3.68-.26-5.36h.03ZM80.4,51.39c-.2,3.96-.61,7.91-1.23,11.83h-10.05c-1.36-.34-2.74-.71-4.16-1.1-3.94-1.11-7.81-2.35-11.5-3.69v-.03s.03-.06.04-.1c1.5-4.24,3.24-8.4,5.21-12.45.75-1.52,1.48-2.9,2.22-4.22,2.96.56,5.96,1.22,8.93,1.95,3.81.95,7.29,1.94,10.63,3.01.02,1.61,0,3.22-.09,4.8ZM52.41,61.41c.14-.42.28-.83.43-1.24l.09-.24c3.63,1.2,7.37,2.28,11.43,3.31h-4.26c-2.62-.67-5.17-1.27-7.69-1.82ZM54.96,63.23h-3.13c.06-.19.12-.38.18-.58.97.18,1.96.37,2.95.58h0ZM67.81,87.05c1.77.37,3.52.71,5.26,1.02-.3.88-.58,1.7-.87,2.51-3.31-1.26-6.83-2.44-10.47-3.54h6.08ZM72.06,87.05h1.35c-.03.09-.06.18-.09.27-.42-.09-.84-.18-1.26-.27ZM63.86,36.91c2.41.9,4.86,1.66,7.36,2.26h0c2.92.73,5.89,1.25,8.89,1.55.15,1.26.26,2.61.32,4.01.01.4.03.79.04,1.19-3.26-1.15-6.68-2.23-10.19-3.21-2.95-.82-5.88-1.56-8.71-2.2.75-1.28,1.52-2.49,2.3-3.6h0ZM55.44,32.35c.42.37.87.71,1.33,1.02,1.46.97,3.01,1.81,4.62,2.51.42.18.87.37,1.4.59-.61.86-1.21,1.77-1.8,2.7-.2.32-.4.64-.59.97l-.05.09c-4.19-.9-8.07-1.56-11.87-2.02l-.28-.03-.25-.03c2.26-2.22,4.78-4.17,7.5-5.81ZM37.95,51.59c2.31-4.33,5.18-8.34,8.53-11.94.7.06,1.24.1,1.74.15h0c3.66.35,7.51.88,11.44,1.59-.71,1.23-1.38,2.47-2,3.69-2.1,4.17-3.95,8.46-5.53,12.85-2.71-1.01-5.35-2.1-7.84-3.22-2.35-1.05-4.42-2.08-6.33-3.13h0ZM37.03,53.35c1.94,1.03,4.11,2.05,6.62,3.12h0c2.49,1.04,5.15,2.05,7.92,3-.19.55-.38,1.09-.56,1.64-3.81-.8-7.36-1.42-10.85-1.91-2.03-.27-3.82-.47-5.47-.62.72-1.8,1.51-3.56,2.35-5.24h0ZM34.05,60.24c1.87.13,3.83.31,5.83.55,3.45.4,6.95.93,10.71,1.6-.09.28-.18.56-.27.83h-17.29c.32-1,.66-1.99,1.02-2.98ZM43.63,98.19c-.06,1.39-.09,2.83-.08,4.29-3.69-1.3-7.25-2.72-10.6-4.22-.62-.28-1.18-.54-1.71-.79-.83-3.42-1.32-6.9-1.48-10.41h14.97c-.56,3.83-.93,7.57-1.1,11.14ZM64.17,108.24c-3.42-.71-7-1.6-10.65-2.61-2.96-.83-5.91-1.75-8.77-2.73,0-1.53.06-3.11.16-4.84.2-3.44.6-7.07,1.22-11h12.14l.15.04c4.92,1.23,9.37,2.54,13.6,4.01-1.58,4.39-3.42,8.68-5.51,12.85-.72,1.43-1.5,2.87-2.34,4.3ZM78.3,110.35c-1.19-.1-2.27-.2-3.31-.32-3.25-.39-6.58-.93-10.19-1.67.73-1.31,1.48-2.72,2.21-4.19,2-4.09,3.77-8.3,5.29-12.59.03-.08.06-.16.09-.24l.04-.11c2.49.87,4.73,1.73,6.84,2.62,2.79,1.17,5.5,2.5,8.13,3.98l-.05.1c-.05.1-.1.2-.15.29-2.4,4.42-5.39,8.5-8.88,12.12ZM89.03,98.82c1.56.96,3.02,2.06,4.37,3.31.67.62,1.26,1.33,1.74,2.11,1.02,1.29.79,3.16-.5,4.18-.22.17-.46.31-.71.41-.8.44-1.66.77-2.56.98-1.78.42-3.6.66-5.43.72-2.3.09-4.6.05-6.89-.13,3.36-3.62,6.24-7.66,8.58-12.01l.07-.14.1-.19c.46.27.85.5,1.24.75ZM87.49,97.65c-2.54-1.47-5.15-2.81-7.84-3.99-2.22-1-4.53-1.96-7.06-2.92.32-.91.62-1.76.89-2.59,3.57.64,7.09,1.17,10.46,1.56,2.36.28,4.68.49,6.9.62-.97,2.51-2.09,4.95-3.35,7.32ZM91.01,89.9c-2.18-.15-4.49-.39-7.25-.76-3.22-.45-6.5-1.02-10.03-1.74.04-.12.07-.23.11-.35h18.18c-.32.95-.65,1.9-1.01,2.85ZM79.61,63.23c.64-3.91,1.09-7.85,1.33-11.8.09-1.7.14-3.22.14-4.64,3.46,1.13,6.63,2.3,9.69,3.58,1.1.47,2.1.92,3.06,1.37.96,3.76,1.52,7.61,1.66,11.49h-15.89ZM107.29,63.23h-11.31c-.11-3.76-.6-7.51-1.47-11.17,2.09.98,4.12,2.08,6.08,3.3,1.57.96,3.04,2.07,4.39,3.32.67.62,1.26,1.33,1.75,2.11.48.72.68,1.59.57,2.44h0Z"/>
                <path id="Path_3640530" data-name="Path 3640530" class="cls-58" d="M104.76,49.81c-13.46-23.38-43.32-31.43-66.71-17.97-.14.08-.28.16-.41.24-11.3,6.59-19.52,17.4-22.83,30.06-.1.36-.19.73-.27,1.09h2.49v-.03c.04-.15.08-.29.12-.44.03-.1.06-.2.08-.29.27-.98.56-1.95.88-2.9,1.87-5.52,4.75-10.64,8.5-15.1.59-.7,1.2-1.38,1.83-2.05.43-.45.87-.9,1.31-1.33,1.07-1.04,2.18-2.02,3.35-2.96,1.82-1.46,3.75-2.78,5.76-3.96,4.55-2.67,9.51-4.56,14.69-5.58.4-.08.8-.16,1.21-.22,2.52-.42,5.07-.64,7.62-.64.36,0,.72,0,1.07.02,2.2.05,4.38.26,6.55.62.43.07.86.15,1.28.23.96.19,1.92.41,2.88.66l.12.03h0c.2.05.4.11.59.16.92.25,1.82.53,2.71.84.56.19,1.12.4,1.67.61,1.59.61,3.14,1.32,4.65,2.1h0c.13.06.27.14.4.21.16.08.32.17.47.25l.21.12c2.14,1.19,4.19,2.55,6.12,4.07.11.09.22.17.33.26h0l.07.05c.4.33.81.66,1.2.99l.22.2c.27.23.53.47.8.71,6.05,5.56,10.55,12.6,13.06,20.42.31.97.6,1.96.84,2.94h2.49c-1.12-4.71-2.92-9.23-5.35-13.42Z"/>
              </g>
              <g id="Group_3417421" data-name="Group 3417421">
                <g id="Group_3417418" data-name="Group 3417418">
                  <path id="Path_3640531" data-name="Path 3640531" class="cls-46" d="M104.04,78.4h0c0-.33.27-.59.59-.59s.59.27.59.59h0c0,.33-.27.59-.59.59s-.59-.27-.59-.59ZM105.15,78.4h0c0-.29-.23-.53-.52-.53-.29,0-.53.23-.53.52h0c0,.29.23.53.52.53.29,0,.53-.23.53-.52h0ZM104.4,78.09h.27c.13,0,.23.07.23.19,0,.09-.06.16-.14.18l.16.23h-.14l-.14-.21h-.13v.21h-.12v-.6ZM104.66,78.39c.08,0,.12-.04.12-.1s-.04-.1-.12-.1h-.15v.2h.15Z"/>
                </g>
                <g id="Group_3417419" data-name="Group 3417419">
                  <path id="Path_3640532" data-name="Path 3640532" class="cls-46" d="M18.88,77.73h.67l-.02,5.86h-.65v-5.86Z"/>
                  <path id="Path_3640533" data-name="Path 3640533" class="cls-46" d="M22.55,77.73h.63l3.69,4.68v-4.68h.64v5.86h-.52l-3.79-4.8-.02,4.8h-.63v-5.86Z"/>
                  <path id="Path_3640534" data-name="Path 3640534" class="cls-46" d="M32.03,78.35h-1.96v-.61h4.61v.61h-1.97v5.25h-.67v-5.25Z"/>
                  <path id="Path_3640535" data-name="Path 3640535" class="cls-46" d="M37.22,77.71h4.24v.6h-3.57v1.99h3.2v.61h-3.2v2.05h3.61v.6h-4.28v-5.86Z"/>
                  <path id="Path_3640536" data-name="Path 3640536" class="cls-46" d="M44.13,77.73h2.35c.68-.07,1.36.15,1.87.6.26.31.41.69.43,1.09h0c.04.92-.66,1.71-1.58,1.78l1.8,2.4h-.82l-1.71-2.27h-1.67v2.27h-.67v-5.87ZM46.43,80.73c1.26,0,1.67-.57,1.68-1.29h0c-.09-.58-.35-1.11-1.65-1.11h-1.67v2.38h1.64Z"/>
                  <path id="Path_3640537" data-name="Path 3640537" class="cls-46" d="M51.5,77.73h.63l3.69,4.7v-4.7h.65v5.86h-.53l-3.78-4.8v4.8h-.65v-5.86Z"/>
                  <path id="Path_3640538" data-name="Path 3640538" class="cls-46" d="M61.6,77.69h.62l2.67,5.9h-.71l-.68-1.54h-3.2s-.7,1.54-.7,1.54h-.68l2.68-5.9ZM63.23,81.44l-1.33-2.98-1.34,2.98h2.67Z"/>
                  <path id="Path_3640539" data-name="Path 3640539" class="cls-46" d="M68.14,78.34h-1.96s0-.61,0-.61h4.61v.61h-1.97v5.25h-.67v-5.25Z"/>
                  <path id="Path_3640540" data-name="Path 3640540" class="cls-46" d="M73.39,77.73h.66v5.86h-.66v-5.86Z"/>
                  <path id="Path_3640541" data-name="Path 3640541" class="cls-46" d="M76.82,80.68v-.02c-.03-1.64,1.27-3,2.91-3.03.01,0,.02,0,.03,0,1.62-.06,2.97,1.2,3.03,2.82,0,.06,0,.13,0,.19h0c.04,1.65-1.27,3.02-2.92,3.06-1.65.04-3.02-1.27-3.06-2.92,0-.03,0-.07,0-.1h0ZM82.12,80.66v-.02c.06-1.27-.92-2.35-2.19-2.41-1.27-.06-2.35.92-2.41,2.19,0,.07,0,.14,0,.21v.02c-.04,1.07.65,2.04,1.67,2.35,1.24.34,2.51-.39,2.85-1.63.06-.23.09-.47.08-.7h0Z"/>
                  <path id="Path_3640542" data-name="Path 3640542" class="cls-46" d="M85.5,77.73h.62l3.69,4.7v-4.7h.65v5.86h-.53l-3.78-4.8v4.8h-.64v-5.86Z"/>
                  <path id="Path_3640543" data-name="Path 3640543" class="cls-46" d="M95.6,77.69h.62l2.67,5.9h-.71l-.7-1.55h-3.18l-.7,1.55h-.67l2.67-5.9ZM97.23,81.43l-1.34-2.98-1.33,2.98h2.67Z"/>
                  <path id="Path_3640544" data-name="Path 3640544" class="cls-46" d="M101.35,77.73h.66v5.25h3.31v.6h-3.96v-5.85Z"/>
                </g>
                <g id="Group_3417420" data-name="Group 3417420">
                  <path id="Path_3640545" data-name="Path 3640545" class="cls-49" d="M8.94,68.29h-2.85v-1.81h7.77v1.81h-2.85v7.13h-2.06v-7.13Z"/>
                  <path id="Path_3640546" data-name="Path 3640546" class="cls-49" d="M14.62,70.97v-.03c.2-2.75,2.6-4.82,5.35-4.62,2.46.18,4.42,2.13,4.62,4.59v.03c-.2,2.75-2.6,4.82-5.35,4.62-2.46-.18-4.42-2.13-4.62-4.59h0ZM22.43,70.97v-.03c.02-1.54-1.21-2.79-2.75-2.81-.03,0-.06,0-.09,0-1.51-.04-2.77,1.15-2.81,2.66,0,.04,0,.09,0,.13v.03c-.02,1.54,1.21,2.79,2.75,2.81.03,0,.06,0,.09,0,1.51.04,2.77-1.15,2.81-2.66,0-.04,0-.08,0-.13Z"/>
                  <path id="Path_3640547" data-name="Path 3640547" class="cls-49" d="M29.04,66.41h1.9l4.02,9h-2.15l-.86-2.01h-3.97l-.86,2.01h-2.1l4.02-9ZM31.21,71.67l-1.25-2.9-1.25,2.9h2.49Z"/>
                  <path id="Path_3640548" data-name="Path 3640548" class="cls-49" d="M35.63,74.11l1.22-1.39c.78.68,1.77,1.06,2.8,1.09.84,0,1.35-.32,1.35-.84v-.03c0-.5-.32-.75-1.89-1.14-1.89-.46-3.11-.96-3.11-2.73v-.03c0-1.62,1.37-2.7,3.28-2.7,1.26-.02,2.48.38,3.48,1.14l-1.07,1.48c-.71-.52-1.56-.83-2.44-.88-.79,0-1.21.35-1.21.78v.03c0,.59.4.78,2.02,1.18,1.9.47,2.98,1.12,2.98,2.68v.03c0,1.77-1.42,2.77-3.44,2.77-1.45,0-2.86-.5-3.98-1.43Z"/>
                  <path id="Path_3640549" data-name="Path 3640549" class="cls-49" d="M46.83,68.29h-2.85v-1.81h7.77v1.81h-2.85v7.13h-2.06v-7.13Z"/>
                  <path id="Path_3640550" data-name="Path 3640550" class="cls-49" d="M53.33,66.47h2.23l2.47,3.78,2.47-3.78h2.23v8.94h-2.05v-5.84l-2.64,3.82h-.05l-2.61-3.78v5.8h-2.02v-8.94Z"/>
                  <path id="Path_3640551" data-name="Path 3640551" class="cls-49" d="M68.18,66.41h1.9l4.02,9h-2.16l-.86-2.01h-3.97l-.86,2.01h-2.1l4.02-9ZM70.35,71.67l-1.25-2.9-1.25,2.9h2.49Z"/>
                  <path id="Path_3640552" data-name="Path 3640552" class="cls-49" d="M74.78,74.11l1.22-1.39c.78.68,1.77,1.06,2.8,1.09.84,0,1.35-.32,1.35-.84v-.03c0-.5-.32-.75-1.89-1.14-1.89-.46-3.11-.96-3.11-2.73v-.03c0-1.62,1.37-2.7,3.28-2.7,1.26-.02,2.48.38,3.48,1.14l-1.07,1.48c-.71-.52-1.56-.83-2.44-.88-.79,0-1.21.35-1.21.78v.03c0,.59.4.78,2.02,1.18,1.9.47,2.98,1.12,2.98,2.68v.03c0,1.77-1.42,2.77-3.44,2.77-1.45,0-2.86-.5-3.98-1.43Z"/>
                  <path id="Path_3640553" data-name="Path 3640553" class="cls-49" d="M85.98,68.29h-2.85v-1.81h7.77v1.81h-2.85v7.13h-2.06v-7.13Z"/>
                  <path id="Path_3640554" data-name="Path 3640554" class="cls-49" d="M92.48,66.47h7.08v1.75h-5.02v1.81h4.42v1.75h-4.42v1.88h5.09v1.75h-7.14v-8.94Z"/>
                  <path id="Path_3640555" data-name="Path 3640555" class="cls-49" d="M101.46,66.47h4.29c.99-.06,1.97.26,2.73.91.54.54.83,1.28.8,2.04v.03c.04,1.28-.78,2.42-2.01,2.77l2.29,3.19h-2.41l-2.01-2.86h-1.62v2.86h-2.06v-8.94ZM105.62,70.82c1,0,1.58-.51,1.58-1.26v-.03c0-.84-.62-1.28-1.62-1.28h-2.05v2.57h2.09Z"/>
                  <path id="Path_3640556" data-name="Path 3640556" class="cls-49" d="M110.5,74.11l1.22-1.39c.78.68,1.77,1.06,2.8,1.09.85,0,1.35-.32,1.35-.84v-.03c0-.5-.32-.75-1.89-1.14-1.89-.46-3.11-.96-3.11-2.73v-.03c0-1.62,1.37-2.7,3.28-2.7,1.26-.02,2.48.38,3.48,1.14l-1.07,1.48c-.71-.52-1.56-.83-2.44-.88-.79,0-1.21.35-1.21.78v.03c0,.59.4.78,2.02,1.18,1.9.47,2.98,1.12,2.98,2.68v.03c0,1.77-1.42,2.77-3.44,2.77-1.45,0-2.86-.5-3.98-1.43Z"/>
                </g>
              </g>
            </g>
          </g>
        </g>
      </g>
    </g>
  </g>
</svg>