<?xml version="1.0" encoding="UTF-8"?>
<svg id="Layer_1" data-name="Layer 1" xmlns="http://www.w3.org/2000/svg" xmlns:xlink="http://www.w3.org/1999/xlink" viewBox="0 0 258.85 102.41">
  <defs>
    <style>
      .cls-1 {
        fill: none;
      }

      .cls-1, .cls-2, .cls-3, .cls-4, .cls-5, .cls-6, .cls-7, .cls-8, .cls-9, .cls-10, .cls-11, .cls-12, .cls-13, .cls-14, .cls-15, .cls-16, .cls-17, .cls-18, .cls-19, .cls-20, .cls-21, .cls-22, .cls-23, .cls-24, .cls-25, .cls-26, .cls-27, .cls-28, .cls-29, .cls-30, .cls-31, .cls-32, .cls-33, .cls-34, .cls-35, .cls-36, .cls-37, .cls-38, .cls-39, .cls-40, .cls-41, .cls-42, .cls-43, .cls-44, .cls-45, .cls-46, .cls-47 {
        stroke-width: 0px;
      }

      .cls-2 {
        fill: url(#linear-gradient);
      }

      .cls-3 {
        fill: url(#linear-gradient-38);
      }

      .cls-4 {
        fill: url(#linear-gradient-33);
      }

      .cls-5 {
        fill: url(#linear-gradient-29);
      }

      .cls-6 {
        fill: url(#linear-gradient-32);
      }

      .cls-7 {
        fill: url(#linear-gradient-30);
      }

      .cls-8 {
        fill: url(#linear-gradient-31);
      }

      .cls-9 {
        fill: url(#linear-gradient-36);
      }

      .cls-10 {
        fill: url(#linear-gradient-39);
      }

      .cls-11 {
        fill: url(#linear-gradient-34);
      }

      .cls-12 {
        fill: url(#linear-gradient-37);
      }

      .cls-13 {
        fill: url(#linear-gradient-35);
      }

      .cls-14 {
        fill: url(#linear-gradient-28);
      }

      .cls-15 {
        fill: url(#linear-gradient-25);
      }

      .cls-16 {
        fill: url(#linear-gradient-11);
      }

      .cls-17 {
        fill: url(#linear-gradient-12);
      }

      .cls-18 {
        fill: url(#linear-gradient-13);
      }

      .cls-19 {
        fill: url(#linear-gradient-10);
      }

      .cls-20 {
        fill: url(#linear-gradient-17);
      }

      .cls-21 {
        fill: url(#linear-gradient-16);
      }

      .cls-22 {
        fill: url(#linear-gradient-19);
      }

      .cls-23 {
        fill: url(#linear-gradient-15);
      }

      .cls-24 {
        fill: url(#linear-gradient-23);
      }

      .cls-25 {
        fill: url(#linear-gradient-21);
      }

      .cls-26 {
        fill: url(#linear-gradient-18);
      }

      .cls-27 {
        fill: url(#linear-gradient-14);
      }

      .cls-28 {
        fill: url(#linear-gradient-22);
      }

      .cls-29 {
        fill: url(#linear-gradient-20);
      }

      .cls-30 {
        fill: url(#linear-gradient-27);
      }

      .cls-31 {
        fill: url(#linear-gradient-24);
      }

      .cls-32 {
        fill: url(#linear-gradient-26);
      }

      .cls-33 {
        fill: url(#linear-gradient-40);
      }

      .cls-34 {
        fill: url(#linear-gradient-41);
      }

      .cls-35 {
        fill: url(#linear-gradient-4);
      }

      .cls-36 {
        fill: url(#linear-gradient-2);
      }

      .cls-37 {
        fill: url(#linear-gradient-3);
      }

      .cls-38 {
        fill: url(#linear-gradient-8);
      }

      .cls-39 {
        fill: url(#linear-gradient-9);
      }

      .cls-40 {
        fill: url(#linear-gradient-7);
      }

      .cls-41 {
        fill: url(#linear-gradient-5);
      }

      .cls-42 {
        fill: url(#linear-gradient-6);
      }

      .cls-43 {
        fill: #772433;
      }

      .cls-44 {
        fill: #064165;
      }

      .cls-45 {
        fill: #fdf16e;
      }

      .cls-46 {
        fill: #fff;
      }

      .cls-47 {
        fill: #f0de74;
      }
    </style>
    <linearGradient id="linear-gradient" x1="-478.34" y1="66.02" x2="-473.25" y2="66.02" gradientTransform="translate(9027.95 1137.47) scale(18.92 -15.89)" gradientUnits="userSpaceOnUse">
      <stop offset="0" stop-color="#fff"/>
      <stop offset="1" stop-color="#064165"/>
    </linearGradient>
    <linearGradient id="linear-gradient-2" x1="-488.51" y1="51.85" x2="-485.55" y2="51.85" gradientTransform="translate(15886.5 711.39) scale(32.56 -11.95)" xlink:href="#linear-gradient"/>
    <linearGradient id="linear-gradient-3" x1="45834.59" y1="-21221.63" x2="53834.59" y2="-21221.63" gradientTransform="translate(-479.9 -639.63) scale(0 -.03)" xlink:href="#linear-gradient"/>
    <linearGradient id="linear-gradient-4" x1="-479.2" y1="79.71" x2="-474.57" y2="79.71" gradientTransform="translate(9946.98 1939.09) scale(20.8 -23.32)" xlink:href="#linear-gradient"/>
    <linearGradient id="linear-gradient-5" x1="-480.73" y1="72.05" x2="-475.67" y2="72.05" gradientTransform="translate(9123.22 1405.42) scale(19.02 -18.48)" xlink:href="#linear-gradient"/>
    <linearGradient id="linear-gradient-6" x1="-463.42" y1="37.35" x2="-455.54" y2="37.35" gradientTransform="translate(5640.78 423.87) scale(12.22 -9.53)" xlink:href="#linear-gradient"/>
    <linearGradient id="linear-gradient-7" x1="-472.2" y1="73.71" x2="-465.94" y2="73.71" gradientTransform="translate(7242.49 1511.85) scale(15.38 -19.35)" xlink:href="#linear-gradient"/>
    <linearGradient id="linear-gradient-8" x1="-483.63" y1="52.32" x2="-479.62" y2="52.32" gradientTransform="translate(11600.29 721.56) scale(24.03 -12.05)" xlink:href="#linear-gradient"/>
    <linearGradient id="linear-gradient-9" x1="-476.8" y1="-115.38" x2="-470.72" y2="-115.38" gradientTransform="translate(7530.74 -286.23) scale(15.84 -3.04)" xlink:href="#linear-gradient"/>
    <linearGradient id="linear-gradient-10" x1="-470.4" y1="46.84" x2="-462.94" y2="46.84" gradientTransform="translate(6053.93 536.61) scale(12.91 -10.98)" xlink:href="#linear-gradient"/>
    <linearGradient id="linear-gradient-11" x1="-478.39" y1="78.48" x2="-472.72" y2="78.48" gradientTransform="translate(8111.73 1781.78) scale(17 -22.38)" xlink:href="#linear-gradient"/>
    <linearGradient id="linear-gradient-12" x1="-485.6" y1="77.38" x2="-482.04" y2="77.38" gradientTransform="translate(13110.15 1699.89) scale(27.04 -21.6)" xlink:href="#linear-gradient"/>
    <linearGradient id="linear-gradient-13" x1="-446.64" y1="9.47" x2="-433.38" y2="9.47" gradientTransform="translate(3221.33 77.61) scale(7.26 -6.86)" xlink:href="#linear-gradient"/>
    <linearGradient id="linear-gradient-14" x1="-464.43" y1="-84.04" x2="-455.94" y2="-84.04" gradientTransform="translate(5249.07 -232.15) scale(11.35 -3.54)" xlink:href="#linear-gradient"/>
    <linearGradient id="linear-gradient-15" x1="-364.18" y1="-1075.96" x2="-333.43" y2="-1075.96" gradientTransform="translate(1119.88 -580.61) scale(3.13 -.58)" xlink:href="#linear-gradient"/>
    <linearGradient id="linear-gradient-16" x1="-465.51" y1="-97.47" x2="-457.45" y2="-97.47" gradientTransform="translate(5540.1 -284.46) scale(11.94 -3.31)" xlink:href="#linear-gradient"/>
    <linearGradient id="linear-gradient-17" x1="-453.77" y1="-115.61" x2="-443.04" y2="-115.61" gradientTransform="translate(4046.31 -345.88) scale(8.96 -3.04)" xlink:href="#linear-gradient"/>
    <linearGradient id="linear-gradient-18" x1="-474.83" y1="63.78" x2="-469.3" y2="63.78" gradientTransform="translate(8251.15 991.31) scale(17.42 -15.1)" xlink:href="#linear-gradient"/>
    <linearGradient id="linear-gradient-19" x1="-470.87" y1="-104.23" x2="-464.54" y2="-104.23" gradientTransform="translate(7137.39 -295.83) scale(15.2 -3.2)" xlink:href="#linear-gradient"/>
    <linearGradient id="linear-gradient-20" x1="-472.68" y1="15.43" x2="-466.17" y2="15.43" gradientTransform="translate(6968.26 120.77) scale(14.79 -7.3)" xlink:href="#linear-gradient"/>
    <linearGradient id="linear-gradient-21" x1="-474.7" y1="47.32" x2="-468.53" y2="47.32" gradientTransform="translate(7385.39 534.81) scale(15.6 -11.07)" xlink:href="#linear-gradient"/>
    <linearGradient id="linear-gradient-22" x1="-473.24" y1="48.8" x2="-467.26" y2="48.8" gradientTransform="translate(7589.21 574.77) scale(16.08 -11.34)" xlink:href="#linear-gradient"/>
    <linearGradient id="linear-gradient-23" x1="-198.08" y1="-2447.33" x2="-126.78" y2="-2447.33" gradientTransform="translate(247.07 -590.04) scale(1.35 -.27)" xlink:href="#linear-gradient"/>
    <linearGradient id="linear-gradient-24" x1="-480.39" y1="37.44" x2="-475.88" y2="37.44" gradientTransform="translate(10219.72 366.72) scale(21.32 -9.54)" xlink:href="#linear-gradient"/>
    <linearGradient id="linear-gradient-25" x1="-465.68" y1="42.72" x2="-457.16" y2="42.72" gradientTransform="translate(5241.34 451.72) scale(11.3 -10.3)" xlink:href="#linear-gradient"/>
    <linearGradient id="linear-gradient-26" x1="-479.02" y1="37.21" x2="-473.75" y2="37.21" gradientTransform="translate(8722.33 422.99) scale(18.25 -9.51)" xlink:href="#linear-gradient"/>
    <linearGradient id="linear-gradient-27" x1="-477.38" y1="54.45" x2="-471.62" y2="54.45" gradientTransform="translate(7965.63 762.08) scale(16.73 -12.52)" xlink:href="#linear-gradient"/>
    <linearGradient id="linear-gradient-28" x1="-485.41" y1="76.77" x2="-481.88" y2="76.77" gradientTransform="translate(13214.91 1700.2) scale(27.27 -21.19)" xlink:href="#linear-gradient"/>
    <linearGradient id="linear-gradient-29" x1="-479.14" y1="-130.76" x2="-473.87" y2="-130.76" gradientTransform="translate(8743.52 -307.58) scale(18.29 -2.85)" xlink:href="#linear-gradient"/>
    <linearGradient id="linear-gradient-30" x1="-482.98" y1="73.28" x2="-478.72" y2="73.28" gradientTransform="translate(10890.75 1477.98) scale(22.59 -19.12)" xlink:href="#linear-gradient"/>
    <linearGradient id="linear-gradient-31" x1="-476.12" y1="67.46" x2="-470.06" y2="67.46" gradientTransform="translate(7541.44 1140.24) scale(15.88 -16.44)" xlink:href="#linear-gradient"/>
    <linearGradient id="linear-gradient-32" x1="-471.22" y1="47.89" x2="-463.71" y2="47.89" gradientTransform="translate(6018.11 568.97) scale(12.81 -11.17)" xlink:href="#linear-gradient"/>
    <linearGradient id="linear-gradient-33" x1="-472.23" y1="22.42" x2="-465.74" y2="22.42" gradientTransform="translate(6991.29 189.3) scale(14.85 -7.89)" xlink:href="#linear-gradient"/>
    <linearGradient id="linear-gradient-34" x1="-480.99" y1="71.66" x2="-476.56" y2="71.66" gradientTransform="translate(10419.14 1335.53) scale(21.7 -18.29)" xlink:href="#linear-gradient"/>
    <linearGradient id="linear-gradient-35" x1="-474.97" y1="21.12" x2="-469.27" y2="21.12" gradientTransform="translate(8000.46 197.48) scale(16.89 -7.77)" xlink:href="#linear-gradient"/>
    <linearGradient id="linear-gradient-36" x1="-479.21" y1="33.25" x2="-474.12" y2="33.25" gradientTransform="translate(9037.73 317.24) scale(18.9 -9.01)" xlink:href="#linear-gradient"/>
    <linearGradient id="linear-gradient-37" x1="-471.24" y1="64.74" x2="-464.81" y2="64.74" gradientTransform="translate(7031.28 1069.92) scale(14.96 -15.43)" xlink:href="#linear-gradient"/>
    <linearGradient id="linear-gradient-38" x1="-475.88" y1="-119.67" x2="-470.4" y2="-119.67" gradientTransform="translate(8334.27 -319.28) scale(17.56 -2.99)" xlink:href="#linear-gradient"/>
    <linearGradient id="linear-gradient-39" x1="-496" y1="101.35" x2="-496.95" y2="100.31" gradientTransform="translate(55976.62 8198.2) scale(112.34 -80.8)" gradientUnits="userSpaceOnUse">
      <stop offset="0" stop-color="#d1d1d1"/>
      <stop offset=".34" stop-color="#e2e1e0"/>
      <stop offset=".49" stop-color="#e4e3e1"/>
      <stop offset=".58" stop-color="#f3f3f3"/>
      <stop offset=".69" stop-color="#cdcdcd"/>
      <stop offset=".87" stop-color="#e4e3e1"/>
      <stop offset="1" stop-color="#d1d1d1"/>
    </linearGradient>
    <linearGradient id="linear-gradient-40" x1="219.33" y1="48.6" x2="185.23" y2="87.13" gradientUnits="userSpaceOnUse">
      <stop offset="0" stop-color="#d1d1d1"/>
      <stop offset=".11" stop-color="#f2f2f2"/>
      <stop offset=".34" stop-color="#e2e1e0"/>
      <stop offset=".38" stop-color="#d6d6d6"/>
      <stop offset=".49" stop-color="#e4e3e1"/>
      <stop offset=".58" stop-color="#f3f3f3"/>
      <stop offset=".69" stop-color="#cdcdcd"/>
      <stop offset=".85" stop-color="#f0f0ef"/>
      <stop offset=".92" stop-color="#e4e3e1"/>
      <stop offset="1" stop-color="#d1d1d1"/>
    </linearGradient>
    <linearGradient id="linear-gradient-41" x1="221.78" y1="18.66" x2="181.73" y2="63.91" xlink:href="#linear-gradient-40"/>
  </defs>
  <g id="globe-color">
    <g id="Group_3417420" data-name="Group 3417420">
      <path id="Path_3640150" data-name="Path 3640150" class="cls-43" d="M110.99,37.55C103.45,10.3,75.24-5.67,47.99,1.87,30.66,6.67,17.11,20.21,12.31,37.55H0v27.58h12.39c7.69,27.21,35.98,43.02,63.19,35.33,17.12-4.84,30.49-18.22,35.33-35.33h12.52v-27.58h-12.44ZM121.49,63.25h-12.18c-.01.06-.03.12-.04.17-6.76,26.25-33.52,42.04-59.77,35.28-.11-.03-.21-.06-.32-.08-12.62-3.31-23.38-11.55-29.86-22.86-2.27-3.91-3.99-8.12-5.12-12.5H1.89v-23.82h12.15c.09-.36.18-.73.27-1.09,3.31-12.66,11.53-23.48,22.83-30.06,23.25-13.69,53.19-5.94,66.88,17.31.08.14.16.28.24.41,2.43,4.19,4.23,8.71,5.35,13.42h11.87v23.82Z"/>
      <path id="Path_3640151" data-name="Path 3640151" class="cls-1" d="M79.61,16.92c-3-.3-5.97-.82-8.89-1.54h0c-2.5-.61-4.95-1.36-7.36-2.26-.77,1.11-1.54,2.32-2.3,3.6,2.83.64,5.76,1.37,8.71,2.2,3.5.99,6.93,2.07,10.19,3.21,0-.4-.02-.8-.04-1.19-.06-1.4-.17-2.75-.32-4.01Z"/>
      <path id="Path_3640152" data-name="Path 3640152" class="cls-1" d="M37.45,27.8h0c1.91,1.06,3.98,2.08,6.33,3.14,2.49,1.12,5.13,2.2,7.84,3.22,1.59-4.39,3.43-8.68,5.53-12.85.62-1.22,1.29-2.46,2-3.69-3.93-.71-7.77-1.25-11.43-1.59h0c-.51-.05-1.04-.1-1.74-.15-3.35,3.59-6.21,7.6-8.53,11.93Z"/>
      <path id="Path_3640153" data-name="Path 3640153" class="cls-1" d="M56.27,9.58c-.46-.32-.91-.66-1.33-1.02-2.72,1.64-5.24,3.59-7.5,5.81l.25.03.28.03c3.8.46,7.68,1.12,11.87,2.02l.05-.09c.2-.33.39-.65.59-.97.59-.94,1.2-1.85,1.8-2.7-.54-.22-.98-.4-1.4-.59-1.61-.7-3.15-1.55-4.62-2.52Z"/>
      <path id="Path_3640154" data-name="Path 3640154" class="cls-1" d="M34.19,34.79c1.65.15,3.44.35,5.47.62,3.49.49,7.04,1.11,10.85,1.91.19-.55.37-1.1.56-1.64-2.77-.95-5.44-1.96-7.93-3h0c-2.51-1.07-4.67-2.09-6.61-3.12-.84,1.68-1.63,3.44-2.35,5.24Z"/>
      <path id="Path_3640155" data-name="Path 3640155" class="cls-1" d="M90.7,26.39c.85.38,1.71.78,2.54,1.18l-.03-.12c-.06-.24-.12-.48-.2-.72-1-3.57-2.5-6.99-4.45-10.14-.79.23-1.6.37-2.42.44-1.73.14-3.48.14-5.21,0-.19-.01-.38-.03-.57-.05h-.04c.16,1.68.25,3.48.26,5.36,3.54,1.26,6.95,2.63,10.11,4.05Z"/>
      <path id="Path_3640156" data-name="Path 3640156" class="cls-1" d="M64.07,95.83c4.85-1.88,9.25-4.76,12.92-8.45.09-.08.17-.17.26-.26l.06-.06c-.88-.06-1.77-.14-2.64-.22-3.48-.33-7.12-.83-10.83-1.48-1.27,2.23-2.7,4.35-4.29,6.36-1.28,1.66-2.8,3.13-4.5,4.36-.56.38-1.15.7-1.77.96.75.14,1.5.26,2.24.36.46,0,.9-.01,1.33-.04,2.47-.16,4.91-.68,7.23-1.55Z"/>
      <path id="Path_3640157" data-name="Path 3640157" class="cls-1" d="M43.82,87.77c-.38-2.18-.62-4.38-.7-6.59,0-.19-.01-.38-.02-.57,0-.1,0-.2,0-.31-4.05-1.27-7.74-2.61-11.28-4.09l-.24-.1-.2-.08c1.29,4.57,3.47,8.84,6.4,12.57,1.54,1.92,3.35,3.61,5.38,5.01h0c.61.41,1.24.8,1.88,1.15.57.22,1.14.42,1.72.62-.39-.5-.74-1.04-1.03-1.6-.92-1.9-1.57-3.92-1.9-6Z"/>
      <path id="Path_3640158" data-name="Path 3640158" class="cls-1" d="M52.24,96.4c.85-.23,1.66-.6,2.39-1.1,1.65-1.14,3.12-2.52,4.37-4.08,1.37-1.66,2.62-3.42,3.75-5.25.11-.18.23-.36.34-.55l.09-.15c-3.37-.61-6.83-1.35-10.3-2.21-2.95-.74-5.85-1.54-8.62-2.38.03,2.21.21,4.42.54,6.61.27,1.98.82,3.9,1.65,5.72.55,1.29,1.49,2.37,2.68,3.1.22.06.44.12.66.18.36.1.73.19,1.09.27.46.01.92-.04,1.36-.16Z"/>
      <path id="Path_3640159" data-name="Path 3640159" class="cls-1" d="M36.9,89.57c-3.39-4.14-5.88-8.95-7.3-14.1l-.04-.16-.03-.1c-2.65-1.18-5.21-2.53-7.68-4.05-1.13-.71-2.21-1.48-3.25-2.31.81,1.97,1.75,3.87,2.81,5.71,4.26,7.41,10.48,13.51,17.99,17.61-.89-.81-1.72-1.67-2.5-2.59Z"/>
      <path id="Path_3640160" data-name="Path 3640160" class="cls-1" d="M85.72,87.18c-2.55.12-5.11.1-7.65-.06l-.22.23c-.12.13-.24.26-.37.39-3.68,3.81-8.11,6.82-13.02,8.82h0c-1.37.53-2.78.95-4.21,1.26,8.76.27,17.42-1.96,24.97-6.41,2.71-1.58,5.25-3.43,7.59-5.52-.52.21-1.06.39-1.6.53-1.8.44-3.64.69-5.49.76Z"/>
      <path id="Path_3640161" data-name="Path 3640161" class="cls-1" d="M102.22,66.19c-2.07.34-4.16.51-6.26.5-1.65,0-3.33-.03-5.15-.13-.98,2.58-2.13,5.09-3.42,7.53.58.35,1.09.66,1.54.95,1.57.98,3.04,2.11,4.39,3.38.68.64,1.27,1.37,1.76,2.16.49.75.7,1.64.59,2.53,4.96-5.25,8.64-11.57,10.74-18.48-.36.27-.75.5-1.16.68-.97.41-1.99.71-3.03.89Z"/>
      <path id="Path_3640162" data-name="Path 3640162" class="cls-1" d="M79.99,14.33c.11.66.2,1.37.29,2.22h.06c.17.03.35.05.53.07,1.71.18,3.43.22,5.14.1.8-.06,1.6-.19,2.38-.41-.74-1.16-1.55-2.26-2.43-3.31-1.59-1.9-3.45-3.56-5.52-4.92-.56-.36-1.14-.7-1.77-1.04-.5-.2-1.03-.39-1.59-.58.45.57.84,1.19,1.16,1.84.88,1.91,1.47,3.94,1.76,6.02Z"/>
      <path id="Path_3640163" data-name="Path 3640163" class="cls-1" d="M64.98,10.93c-.32.4-.66.84-1.02,1.35,2.25.91,4.54,1.7,6.88,2.36,2.86.82,5.78,1.44,8.73,1.83-.09-.71-.19-1.35-.3-1.95-.31-1.98-.91-3.9-1.78-5.71-.66-1.56-1.96-2.76-3.56-3.3-.77-.17-1.57-.14-2.33.09-.84.26-1.64.65-2.35,1.17-1.61,1.18-3.04,2.58-4.25,4.16Z"/>
      <path id="Path_3640164" data-name="Path 3640164" class="cls-1" d="M86.84,74.15l.05-.1c-2.63-1.49-5.34-2.82-8.13-3.98-2.12-.89-4.35-1.74-6.84-2.62l-.04.11c-.03.08-.06.16-.09.24-1.52,4.29-3.29,8.5-5.29,12.59-.73,1.47-1.47,2.88-2.21,4.19,3.61.74,6.95,1.28,10.19,1.67,1.04.12,2.13.23,3.31.32,3.49-3.62,6.48-7.7,8.88-12.12.05-.1.1-.2.15-.3Z"/>
      <path id="Path_3640165" data-name="Path 3640165" class="cls-1" d="M86.64,12.56c.9,1.11,1.73,2.28,2.47,3.5.23-.09.45-.21.66-.35.4-.24.7-.61.84-1.05.06-.27.06-.55-.02-.82-2.25-1.77-4.66-3.32-7.2-4.65,1.17,1.03,2.26,2.15,3.24,3.37Z"/>
      <path id="Path_3640166" data-name="Path 3640166" class="cls-1" d="M72.99,64.35c-.28.83-.57,1.68-.9,2.59,2.53.97,4.84,1.93,7.06,2.93,2.68,1.19,5.3,2.52,7.84,3.99,1.26-2.37,2.38-4.82,3.35-7.32-2.22-.13-4.54-.34-6.9-.62-3.37-.4-6.88-.92-10.46-1.56Z"/>
      <path id="Path_3640167" data-name="Path 3640167" class="cls-1" d="M87.2,74.46l-.08.14c-2.33,4.35-5.22,8.39-8.58,12.01,2.29.18,4.6.22,6.89.13,1.83-.06,3.65-.3,5.43-.72.89-.21,1.75-.54,2.55-.98,1.52-.62,2.25-2.36,1.63-3.88-.1-.26-.24-.5-.42-.71-.48-.78-1.07-1.49-1.74-2.11-1.34-1.24-2.8-2.35-4.37-3.31-.39-.25-.78-.48-1.24-.75l-.1.19Z"/>
      <path id="Path_3640168" data-name="Path 3640168" class="cls-2" d="M50.89,96.56c.46.01.92-.04,1.36-.16.85-.23,1.66-.6,2.39-1.1,1.65-1.14,3.12-2.52,4.37-4.08,1.37-1.66,2.62-3.42,3.75-5.25.11-.18.23-.36.34-.55l.09-.15c-3.37-.61-6.83-1.35-10.3-2.21-2.95-.74-5.85-1.54-8.62-2.38.03,2.21.21,4.42.54,6.61.27,1.98.82,3.9,1.65,5.72.55,1.29,1.49,2.37,2.68,3.1.22.06.44.12.66.18.36.09.73.18,1.09.27Z"/>
      <path id="Path_3640169" data-name="Path 3640169" class="cls-36" d="M85.22,91.4c2.71-1.58,5.25-3.43,7.59-5.52-.52.21-1.06.39-1.6.53-1.8.44-3.64.69-5.49.76-2.55.12-5.11.1-7.65-.06l-.22.23c-.12.13-.24.26-.37.39-3.68,3.81-8.11,6.82-13.02,8.82h0c-1.37.53-2.78.95-4.21,1.26,8.76.27,17.42-1.96,24.97-6.41Z"/>
      <path id="Path_3640170" data-name="Path 3640170" class="cls-37" d="M16.53,39.4v.03s0,0,0,0c0-.01,0-.02,0-.03Z"/>
      <path id="Path_3640171" data-name="Path 3640171" class="cls-35" d="M39.4,92.15c-.89-.81-1.72-1.67-2.5-2.58-3.39-4.14-5.88-8.95-7.3-14.1l-.04-.16-.03-.1c-2.65-1.18-5.21-2.53-7.68-4.05-1.13-.71-2.21-1.48-3.25-2.31.81,1.97,1.75,3.87,2.81,5.71,4.26,7.41,10.48,13.51,17.99,17.6Z"/>
      <path id="Path_3640172" data-name="Path 3640172" class="cls-41" d="M105.25,65.31c-.97.41-1.99.7-3.03.88-2.07.34-4.16.51-6.26.5-1.65,0-3.33-.03-5.15-.13-.98,2.58-2.13,5.09-3.42,7.53.58.35,1.09.66,1.54.95,1.57.98,3.04,2.11,4.39,3.38.68.64,1.27,1.37,1.76,2.16.49.75.7,1.64.59,2.53,4.96-5.25,8.64-11.57,10.74-18.48-.36.27-.75.5-1.16.68Z"/>
      <path id="Path_3640173" data-name="Path 3640173" class="cls-42" d="M17.07,64.21c.44.71.97,1.36,1.58,1.93,1.29,1.21,2.71,2.3,4.21,3.23,1.95,1.24,3.97,2.38,6.05,3.4-.71-3.13-1.16-6.32-1.32-9.53h-10.89c.05.17.1.34.15.51.07.15.14.3.23.45Z"/>
      <path id="Path_3640174" data-name="Path 3640174" class="cls-40" d="M45.72,93.77c-.92-1.9-1.56-3.92-1.9-6-.38-2.18-.62-4.38-.7-6.59,0-.19-.01-.38-.02-.57,0-.1,0-.2,0-.31-4.05-1.27-7.74-2.61-11.28-4.09l-.24-.1-.2-.08c1.29,4.57,3.47,8.84,6.4,12.57,1.54,1.92,3.35,3.61,5.38,5.01h0c.61.41,1.24.8,1.88,1.15.57.22,1.14.42,1.72.62-.4-.5-.74-1.04-1.04-1.6Z"/>
      <path id="Path_3640175" data-name="Path 3640175" class="cls-38" d="M56.84,97.38c2.47-.16,4.91-.68,7.23-1.55,4.85-1.88,9.25-4.76,12.92-8.45.09-.08.17-.17.26-.26l.06-.06c-.88-.06-1.77-.14-2.64-.22-3.48-.33-7.12-.83-10.83-1.48-1.27,2.23-2.7,4.35-4.29,6.36-1.28,1.66-2.8,3.13-4.5,4.36-.56.38-1.15.7-1.77.96.75.14,1.5.26,2.24.36.46,0,.9-.01,1.32-.04Z"/>
      <path id="Path_3640176" data-name="Path 3640176" class="cls-39" d="M91.98,63.26c-.32.96-.65,1.92-1.01,2.88,1.67.11,3.21.16,4.71.16,2.08.02,4.16-.14,6.21-.48,1.03-.16,2.03-.45,2.98-.85.48-.2.92-.47,1.32-.8.2-.17.38-.37.52-.58.03-.11.06-.21.09-.32h-14.83Z"/>
      <path id="Path_3640177" data-name="Path 3640177" class="cls-47" d="M109.04,63.26h-2.23c-.03.11-.06.22-.09.32-.1.35-.2.7-.31,1.05-2.1,6.91-5.78,13.23-10.74,18.48-.91.96-1.87,1.89-2.86,2.78-2.34,2.08-4.88,3.93-7.59,5.51-8.94,5.29-19.4,7.41-29.7,6.02-.75-.1-1.5-.22-2.25-.36-.8-.15-1.59-.31-2.39-.5-.36-.09-.73-.18-1.09-.27-.22-.06-.44-.12-.66-.18-.81-.23-1.6-.47-2.39-.74-.58-.2-1.15-.4-1.72-.62-9.97-3.8-18.32-10.94-23.62-20.2-1.06-1.84-2-3.75-2.81-5.71-.68-1.65-1.27-3.35-1.75-5.07-.05-.17-.1-.34-.15-.51h-2.5c1.13,4.38,2.85,8.59,5.12,12.5,13.43,23.38,43.26,31.44,66.63,18.01.16-.09.33-.19.49-.28,11.31-6.58,19.52-17.4,22.83-30.06.01-.06.03-.11.04-.17h-.27Z"/>
      <path id="Path_3640178" data-name="Path 3640178" class="cls-19" d="M90.7,26.39c.85.38,1.71.78,2.54,1.18l-.03-.12c-.06-.24-.12-.48-.2-.72-1-3.57-2.5-6.99-4.45-10.14-.79.23-1.6.37-2.42.44-1.73.14-3.48.14-5.21,0-.19-.01-.38-.03-.57-.05h-.04c.16,1.68.25,3.48.26,5.36,3.54,1.26,6.95,2.63,10.11,4.05Z"/>
      <path id="Path_3640179" data-name="Path 3640179" class="cls-16" d="M90.9,14.8c-.15.48-.47.89-.9,1.16-.23.15-.47.28-.72.38,1.9,3.23,3.36,6.71,4.33,10.33.09.33.17.67.26,1l.06.25c2.26,1.1,4.46,2.33,6.59,3.67,1.58.98,3.06,2.11,4.42,3.38.49.47.94.98,1.34,1.53-2.51-7.82-7.01-14.86-13.06-20.42-.26-.24-.53-.48-.8-.71l-.23-.2c-.39-.34-.79-.67-1.2-.99l-.06-.05c.04.23.03.47-.03.69Z"/>
      <path id="Path_3640180" data-name="Path 3640180" class="cls-17" d="M60.42,17.84c-.74,1.32-1.46,2.7-2.22,4.22-1.97,4.05-3.71,8.21-5.21,12.45-.01.03-.02.06-.03.1v.03c3.68,1.34,7.55,2.59,11.49,3.69,1.42.39,2.8.76,4.16,1.11h10.06c.61-3.92,1.02-7.87,1.23-11.83.08-1.57.11-3.19.09-4.8-3.34-1.07-6.82-2.06-10.63-3.01-2.96-.73-5.97-1.39-8.92-1.95Z"/>
      <path id="Path_3640181" data-name="Path 3640181" class="cls-18" d="M86.64,12.56c.9,1.11,1.73,2.28,2.47,3.5.23-.09.45-.21.66-.35.4-.24.7-.61.84-1.05.06-.27.06-.55-.02-.82-1.93-1.51-3.98-2.87-6.12-4.06l-.21-.12c-.16-.09-.32-.17-.47-.25-.13-.07-.26-.14-.39-.21,1.17,1.03,2.25,2.15,3.24,3.36Z"/>
      <path id="Path_3640182" data-name="Path 3640182" class="cls-27" d="M72.58,64.28c-1.74-.31-3.49-.65-5.26-1.02h-6.08c3.65,1.1,7.16,2.28,10.47,3.54.29-.81.58-1.64.87-2.51Z"/>
      <path id="Path_3640183" data-name="Path 3640183" class="cls-23" d="M51.33,39.43h3.13c-.99-.2-1.97-.39-2.95-.58-.06.19-.12.38-.18.58Z"/>
      <path id="Path_3640184" data-name="Path 3640184" class="cls-21" d="M63.86,39.43c-4.05-1.02-7.8-2.11-11.43-3.31l-.09.25c-.15.41-.29.83-.43,1.24,2.52.54,5.06,1.15,7.68,1.82h4.26Z"/>
      <path id="Path_3640185" data-name="Path 3640185" class="cls-20" d="M54.18,5.97c.19.36.43.69.71.98h0l.02.02c1.39-.75,2.83-1.4,4.31-1.95,1.22-.44,2.46-.8,3.73-1.07-.36,0-.72-.02-1.07-.02-2.55,0-5.1.21-7.62.64-.11.12-.2.27-.24.43-.06.33,0,.68.17.97Z"/>
      <path id="Path_3640186" data-name="Path 3640186" class="cls-26" d="M27.05,34.44c1.66,0,3.4.06,5.32.2.8-2.03,1.69-4.02,2.66-5.92-.69-.39-1.31-.75-1.89-1.12-1.63-1-3.17-2.16-4.57-3.46-.75-.69-1.39-1.48-1.93-2.34-.21-.36-.39-.74-.53-1.13-3.75,4.46-6.63,9.58-8.5,15.1.98-.39,2-.67,3.04-.84,2.12-.34,4.26-.5,6.41-.49Z"/>
      <path id="Path_3640187" data-name="Path 3640187" class="cls-22" d="M30.69,39.43c.32-1.04.68-2.07,1.05-3.09-1.4-.07-2.79-.1-4.11-.1h-.57c-2.03,0-4.06.16-6.06.5-.95.16-1.89.43-2.78.81-.59.23-1.11.62-1.49,1.13-.03.1-.06.2-.08.29-.04.15-.07.29-.11.44v.03h14.15Z"/>
      <path id="Path_3640188" data-name="Path 3640188" class="cls-29" d="M66.65,4.62c-2.45.22-4.86.79-7.15,1.7-1.2.47-2.38,1.02-3.51,1.64.26.2.53.41.82.61,1.41.96,2.89,1.8,4.43,2.51.5.24,1.05.49,1.66.75.51-.7.99-1.29,1.44-1.83,1.32-1.64,2.88-3.09,4.62-4.28.57-.37,1.18-.68,1.81-.93-.43-.08-.85-.16-1.28-.23-.95-.04-1.9-.03-2.85.05Z"/>
      <path id="Path_3640189" data-name="Path 3640189" class="cls-25" d="M71.59,5.6c-.84.26-1.64.65-2.35,1.17-1.61,1.18-3.04,2.58-4.26,4.16-.32.4-.66.84-1.02,1.35,2.25.91,4.54,1.7,6.88,2.36,2.86.82,5.78,1.44,8.73,1.83-.09-.71-.19-1.35-.3-1.95-.31-1.98-.91-3.9-1.78-5.71-.62-1.39-1.72-2.52-3.11-3.16-.2-.06-.39-.11-.59-.17h0l-.12-.03c-.69-.11-1.4-.06-2.07.14Z"/>
      <path id="Path_3640190" data-name="Path 3640190" class="cls-28" d="M28.33,20.66c.44.71.97,1.36,1.59,1.94,1.3,1.22,2.72,2.3,4.23,3.24.56.36,1.15.72,1.81,1.11l.03-.06c2.2-4.02,4.87-7.77,7.95-11.16-2.37-.14-4.74-.16-7.11-.04-1.78.07-3.55.31-5.28.73-.8.19-1.58.49-2.3.88-.45.43-.88.88-1.31,1.33-.02.04-.03.09-.04.13-.12.67.04,1.36.43,1.91Z"/>
      <path id="Path_3640191" data-name="Path 3640191" class="cls-24" d="M72.91,63.26h-1.35c.42.09.84.18,1.26.27.03-.09.06-.18.09-.27Z"/>
      <path id="Path_3640192" data-name="Path 3640192" class="cls-31" d="M45.43,14.17l.18-.19c.1-.1.19-.2.29-.3,2.41-2.37,5.1-4.44,8.01-6.16-.24-.28-.44-.59-.61-.91-.13-.26-.23-.53-.28-.82-.06-.33-.05-.67.03-1h0c-5.18,1.01-10.14,2.89-14.69,5.57-2.01,1.18-3.94,2.5-5.76,3.96,1.38-.23,2.77-.37,4.16-.43,2.89-.1,5.79-.01,8.67.27Z"/>
      <path id="Path_3640193" data-name="Path 3640193" class="cls-15" d="M80,14.33c.11.66.2,1.37.29,2.22h.06c.17.03.35.05.53.07,1.71.18,3.43.22,5.14.1.8-.06,1.6-.19,2.38-.41-.74-1.16-1.55-2.26-2.43-3.31-1.59-1.9-3.45-3.56-5.52-4.92-.53-.34-1.08-.67-1.67-.98-.55-.21-1.11-.42-1.67-.61.45.56.83,1.18,1.14,1.82.87,1.91,1.47,3.94,1.76,6.02Z"/>
      <path id="Path_3640194" data-name="Path 3640194" class="cls-32" d="M72.99,64.35c-.28.83-.57,1.68-.9,2.59,2.53.97,4.84,1.93,7.06,2.93,2.68,1.19,5.3,2.52,7.84,3.99,1.26-2.37,2.38-4.82,3.35-7.32-2.22-.13-4.54-.34-6.9-.62-3.37-.4-6.88-.92-10.46-1.56Z"/>
      <path id="Path_3640195" data-name="Path 3640195" class="cls-30" d="M87.2,74.46l-.08.14c-2.33,4.35-5.22,8.39-8.58,12.01,2.29.18,4.6.22,6.89.13,1.83-.06,3.65-.3,5.43-.72.89-.21,1.75-.54,2.55-.98,1.52-.62,2.25-2.36,1.63-3.88-.1-.26-.24-.5-.42-.71-.48-.78-1.07-1.49-1.74-2.11-1.34-1.24-2.8-2.35-4.37-3.31-.39-.25-.78-.48-1.24-.75l-.1.19Z"/>
      <path id="Path_3640196" data-name="Path 3640196" class="cls-14" d="M71.52,67.3c-4.23-1.47-8.68-2.78-13.6-4.01l-.15-.04h-12.13c-.62,3.94-1.02,7.56-1.22,11-.1,1.73-.15,3.31-.16,4.84,2.86.98,5.81,1.9,8.77,2.73,3.65,1.02,7.23,1.9,10.65,2.61.84-1.42,1.62-2.87,2.34-4.29,2.09-4.17,3.93-8.46,5.51-12.85Z"/>
      <path id="Path_3640197" data-name="Path 3640197" class="cls-5" d="M73.23,63.6c3.53.72,6.81,1.29,10.03,1.74,2.77.37,5.07.61,7.25.76.36-.95.69-1.9,1.01-2.85h-18.18c-.04.12-.07.23-.11.35Z"/>
      <path id="Path_3640198" data-name="Path 3640198" class="cls-7" d="M86.84,74.15l.05-.1c-2.63-1.49-5.34-2.82-8.13-3.98-2.12-.89-4.35-1.74-6.84-2.62l-.04.11c-.03.08-.06.16-.09.24-1.52,4.29-3.29,8.5-5.29,12.59-.73,1.47-1.47,2.88-2.21,4.19,3.61.74,6.95,1.28,10.19,1.67,1.04.12,2.13.23,3.31.32,3.49-3.62,6.48-7.7,8.88-12.12.05-.1.1-.2.15-.3Z"/>
      <path id="Path_3640199" data-name="Path 3640199" class="cls-8" d="M90.28,26.58c-3.06-1.28-6.23-2.45-9.69-3.58,0,1.42-.05,2.93-.14,4.64-.24,3.95-.68,7.89-1.33,11.8h15.88c-.15-3.88-.7-7.73-1.67-11.49-.95-.45-1.96-.9-3.05-1.37Z"/>
      <path id="Path_3640200" data-name="Path 3640200" class="cls-6" d="M104.48,34.87c-1.35-1.25-2.82-2.36-4.39-3.32-1.96-1.22-3.99-2.32-6.08-3.3.87,3.67,1.36,7.41,1.47,11.17h11.32c.11-.86-.09-1.73-.57-2.45-.49-.78-1.07-1.49-1.75-2.11Z"/>
      <path id="Path_3640201" data-name="Path 3640201" class="cls-4" d="M47.97,14.43c3.8.46,7.68,1.12,11.87,2.02l.05-.09c.2-.33.39-.65.59-.97.59-.94,1.2-1.85,1.8-2.7-.54-.22-.98-.4-1.4-.59-1.61-.7-3.16-1.54-4.62-2.52-.46-.32-.91-.66-1.33-1.02-2.72,1.64-5.24,3.59-7.5,5.81l.25.03.28.03Z"/>
      <path id="Path_3640202" data-name="Path 3640202" class="cls-11" d="M51.62,34.15c1.59-4.39,3.43-8.68,5.53-12.85.62-1.22,1.29-2.46,2-3.69-3.93-.71-7.77-1.25-11.43-1.59h0c-.51-.05-1.04-.1-1.74-.15-3.35,3.59-6.21,7.61-8.53,11.94h0c1.91,1.06,3.98,2.08,6.33,3.14,2.49,1.12,5.13,2.2,7.84,3.22Z"/>
      <path id="Path_3640203" data-name="Path 3640203" class="cls-13" d="M50.51,37.32c.19-.55.37-1.1.56-1.64-2.77-.95-5.44-1.96-7.93-3h0c-2.51-1.07-4.67-2.09-6.61-3.12-.84,1.68-1.63,3.44-2.35,5.24,1.65.15,3.44.35,5.47.62,3.49.49,7.05,1.11,10.85,1.91Z"/>
      <path id="Path_3640204" data-name="Path 3640204" class="cls-9" d="M69.78,18.92c3.5.99,6.93,2.07,10.19,3.21,0-.4-.02-.8-.04-1.19-.06-1.4-.17-2.75-.32-4.01-3-.3-5.97-.82-8.89-1.54h0c-2.5-.61-4.95-1.36-7.36-2.26-.77,1.11-1.54,2.32-2.3,3.6,2.84.64,5.77,1.38,8.71,2.2Z"/>
      <path id="Path_3640205" data-name="Path 3640205" class="cls-12" d="M30.74,73.67c.53.25,1.09.51,1.71.79,3.35,1.51,6.92,2.93,10.6,4.23-.01-1.46.01-2.9.08-4.29.17-3.58.54-7.32,1.1-11.14h-14.96c.15,3.51.65,7,1.48,10.41Z"/>
      <path id="Path_3640206" data-name="Path 3640206" class="cls-3" d="M50.09,38.6c-3.75-.67-7.26-1.2-10.71-1.6-2-.24-3.96-.42-5.83-.55-.37.99-.71,1.99-1.02,2.99h17.29c.09-.28.18-.56.27-.83Z"/>
      <path id="Path_3640207" data-name="Path 3640207" class="cls-46" d="M83.8,9.41c.16.08.32.17.47.25-.16-.09-.32-.17-.47-.25Z"/>
      <path id="Path_3640208" data-name="Path 3640208" class="cls-46" d="M89.14,12.74h-.01s.01,0,.01,0Z"/>
      <path id="Path_3640209" data-name="Path 3640209" class="cls-45" d="M90.93,14.11h0l.07.05-.07-.05Z"/>
      <path id="Path_3640210" data-name="Path 3640210" class="cls-45" d="M83.4,9.2h0c.13.08.26.15.39.21-.13-.07-.26-.14-.4-.21Z"/>
      <path id="Path_3640211" data-name="Path 3640211" class="cls-45" d="M84.27,9.67l.21.12-.21-.12Z"/>
      <g id="Group_3417415" data-name="Group 3417415">
        <path id="Path_3640212" data-name="Path 3640212" class="cls-1" d="M73.78,5.49l-.12-.03c-.69-.11-1.4-.06-2.07.14-.84.26-1.64.65-2.35,1.17-1.61,1.18-3.04,2.58-4.26,4.16-.32.4-.66.84-1.02,1.35,2.25.91,4.54,1.7,6.88,2.36,2.86.82,5.78,1.44,8.73,1.83-.09-.71-.19-1.35-.3-1.95-.31-1.98-.91-3.9-1.78-5.71-.62-1.39-1.72-2.52-3.11-3.16-.2-.06-.39-.11-.59-.17h0Z"/>
        <path id="Path_3640213" data-name="Path 3640213" class="cls-1" d="M72.58,64.28c-1.74-.31-3.49-.65-5.26-1.02h-6.08c3.65,1.1,7.16,2.28,10.47,3.54.29-.81.58-1.64.87-2.51Z"/>
        <path id="Path_3640214" data-name="Path 3640214" class="cls-1" d="M90.7,26.39c.85.38,1.71.78,2.54,1.18l-.03-.12c-.06-.24-.12-.48-.2-.72-1-3.57-2.5-6.99-4.45-10.14-.79.23-1.6.37-2.42.44-1.73.14-3.48.14-5.21,0-.19-.01-.38-.03-.57-.05h-.04c.16,1.68.25,3.48.26,5.36,3.54,1.26,6.95,2.63,10.11,4.05Z"/>
        <path id="Path_3640215" data-name="Path 3640215" class="cls-1" d="M60.42,17.84c-.74,1.32-1.46,2.7-2.22,4.22-1.97,4.05-3.71,8.21-5.21,12.45-.01.03-.02.06-.03.1v.03c3.68,1.34,7.55,2.59,11.49,3.69,1.42.39,2.8.76,4.16,1.11h10.06c.61-3.92,1.02-7.87,1.23-11.83.08-1.57.11-3.19.09-4.8-3.34-1.07-6.82-2.06-10.63-3.01-2.96-.73-5.97-1.39-8.92-1.95Z"/>
        <path id="Path_3640216" data-name="Path 3640216" class="cls-1" d="M51.33,39.43h3.13c-.99-.2-1.97-.39-2.95-.58-.06.19-.12.38-.18.58Z"/>
        <path id="Path_3640217" data-name="Path 3640217" class="cls-1" d="M63.86,39.43c-4.05-1.02-7.8-2.11-11.43-3.31l-.09.25c-.15.41-.29.83-.43,1.24,2.52.54,5.06,1.15,7.68,1.82h4.26Z"/>
        <path id="Path_3640218" data-name="Path 3640218" class="cls-1" d="M84.27,9.67c-.16-.09-.32-.17-.47-.25-.13-.07-.27-.14-.4-.21h0c1.17,1.03,2.25,2.16,3.24,3.37.9,1.11,1.73,2.28,2.47,3.5.23-.09.45-.21.66-.35.4-.24.7-.61.84-1.05.06-.27.06-.55-.02-.82h0c-1.93-1.52-3.97-2.88-6.12-4.07l-.21-.12Z"/>
        <path id="Path_3640219" data-name="Path 3640219" class="cls-1" d="M66.66,4.62c-2.45.22-4.86.79-7.15,1.7-1.2.47-2.38,1.02-3.51,1.64.26.2.53.41.82.61,1.41.96,2.89,1.8,4.43,2.51.5.24,1.05.49,1.66.75.51-.7.99-1.29,1.44-1.83,1.32-1.64,2.88-3.09,4.62-4.28.57-.37,1.18-.68,1.81-.93-.43-.08-.85-.16-1.28-.23-.95-.04-1.9-.03-2.85.05Z"/>
        <path id="Path_3640220" data-name="Path 3640220" class="cls-1" d="M78.23,8.31c.88,1.91,1.47,3.94,1.76,6.01.11.66.2,1.37.29,2.22h.06c.17.03.35.05.53.07,1.71.18,3.43.22,5.14.1.8-.06,1.6-.19,2.38-.41-.74-1.16-1.55-2.26-2.43-3.31-1.59-1.9-3.45-3.56-5.52-4.92-.53-.34-1.08-.67-1.67-.98-.55-.21-1.11-.42-1.67-.61.45.56.83,1.18,1.14,1.83Z"/>
        <path id="Path_3640221" data-name="Path 3640221" class="cls-1" d="M20.64,34.93c2.12-.34,4.26-.5,6.41-.48,1.66,0,3.4.06,5.32.2.8-2.03,1.69-4.02,2.66-5.92-.69-.39-1.31-.75-1.89-1.12-1.63-1-3.17-2.16-4.57-3.46-.75-.69-1.39-1.48-1.93-2.34-.21-.36-.39-.74-.53-1.13-3.75,4.46-6.63,9.58-8.5,15.1.98-.39,1.99-.67,3.03-.84Z"/>
        <path id="Path_3640222" data-name="Path 3640222" class="cls-1" d="M27.94,18.62s-.03.09-.04.13c-.12.67.04,1.36.43,1.91.44.71.97,1.36,1.59,1.94,1.3,1.22,2.72,2.3,4.23,3.24.56.36,1.15.72,1.81,1.11l.03-.06c2.2-4.02,4.87-7.77,7.95-11.16-2.37-.14-4.74-.16-7.11-.04-1.78.07-3.55.31-5.28.73-.8.19-1.58.49-2.3.88-.45.43-.89.88-1.31,1.33Z"/>
        <path id="Path_3640223" data-name="Path 3640223" class="cls-1" d="M32.6,14.33c1.38-.23,2.77-.37,4.16-.43,2.89-.1,5.79-.01,8.67.27l.18-.19c.1-.1.19-.2.29-.3,2.41-2.37,5.1-4.44,8.01-6.16-.24-.28-.44-.59-.61-.91-.13-.26-.23-.53-.28-.82-.06-.33-.05-.67.03-1h0c-5.18,1.01-10.14,2.89-14.69,5.57-2.01,1.18-3.94,2.51-5.76,3.97Z"/>
        <path id="Path_3640224" data-name="Path 3640224" class="cls-1" d="M16.53,39.4v.03s14.15,0,14.15,0c.32-1.04.68-2.07,1.05-3.09-1.4-.07-2.79-.1-4.11-.1h-.57c-2.03,0-4.06.16-6.06.5-.95.16-1.89.43-2.78.81-.59.23-1.11.62-1.49,1.13-.03.1-.06.2-.08.29-.04.14-.07.29-.11.43Z"/>
        <path id="Path_3640225" data-name="Path 3640225" class="cls-1" d="M54.26,4.57c-.11.12-.2.27-.24.43-.06.33,0,.68.17.97.19.36.43.69.71.98h0l.02.02c1.39-.75,2.83-1.4,4.31-1.95,1.22-.44,2.46-.8,3.73-1.07-.36,0-.72-.02-1.07-.02-2.55,0-5.1.21-7.62.64Z"/>
        <path id="Path_3640226" data-name="Path 3640226" class="cls-1" d="M87.2,74.46l-.08.14c-2.33,4.35-5.22,8.39-8.58,12.01,2.29.18,4.6.22,6.89.13,1.83-.06,3.65-.3,5.43-.72.89-.21,1.75-.54,2.55-.98,1.52-.62,2.25-2.36,1.63-3.88-.1-.26-.24-.5-.42-.71-.48-.78-1.07-1.49-1.74-2.11-1.34-1.24-2.8-2.35-4.37-3.31-.39-.25-.78-.48-1.24-.75l-.1.19Z"/>
        <path id="Path_3640227" data-name="Path 3640227" class="cls-1" d="M30.74,73.67c.53.25,1.09.51,1.71.79,3.35,1.51,6.92,2.93,10.6,4.23-.01-1.46.01-2.9.08-4.29.17-3.58.54-7.32,1.1-11.14h-14.96c.15,3.51.65,7,1.48,10.41Z"/>
        <path id="Path_3640228" data-name="Path 3640228" class="cls-1" d="M86.84,74.15l.05-.1c-2.63-1.49-5.34-2.82-8.13-3.98-2.12-.89-4.35-1.74-6.84-2.62l-.04.11c-.03.08-.06.16-.09.24-1.52,4.29-3.29,8.5-5.29,12.59-.73,1.47-1.47,2.88-2.21,4.19,3.61.74,6.95,1.28,10.19,1.67,1.04.12,2.13.23,3.31.32,3.49-3.62,6.48-7.7,8.88-12.12.05-.1.1-.2.15-.3Z"/>
        <path id="Path_3640229" data-name="Path 3640229" class="cls-1" d="M73.23,63.61c3.53.72,6.81,1.29,10.03,1.74,2.77.37,5.07.61,7.25.76.36-.95.69-1.9,1.01-2.85h-18.18c-.04.12-.07.23-.11.35Z"/>
        <path id="Path_3640230" data-name="Path 3640230" class="cls-1" d="M71.52,67.3c-4.23-1.47-8.68-2.78-13.6-4.01l-.15-.04h-12.13c-.62,3.94-1.02,7.56-1.22,11-.1,1.73-.15,3.31-.16,4.84,2.86.98,5.81,1.9,8.77,2.73,3.65,1.02,7.23,1.9,10.65,2.61.84-1.42,1.62-2.87,2.34-4.29,2.09-4.17,3.93-8.46,5.51-12.85Z"/>
        <path id="Path_3640231" data-name="Path 3640231" class="cls-1" d="M72.99,64.35c-.28.83-.57,1.68-.9,2.59,2.53.97,4.84,1.93,7.06,2.93,2.68,1.19,5.3,2.52,7.84,3.99,1.26-2.37,2.38-4.82,3.35-7.32-2.22-.13-4.54-.34-6.9-.62-3.37-.4-6.88-.92-10.46-1.56Z"/>
        <path id="Path_3640232" data-name="Path 3640232" class="cls-1" d="M72.91,63.26h-1.35c.42.09.84.18,1.26.27.03-.09.06-.18.09-.27Z"/>
        <path id="Path_3640233" data-name="Path 3640233" class="cls-1" d="M90.28,26.58c-3.06-1.28-6.23-2.45-9.69-3.58,0,1.42-.05,2.93-.14,4.64-.24,3.95-.68,7.89-1.33,11.8h15.88c-.15-3.88-.7-7.73-1.67-11.49-.95-.45-1.96-.9-3.05-1.37Z"/>
        <path id="Path_3640234" data-name="Path 3640234" class="cls-1" d="M104.48,34.88c-1.35-1.25-2.82-2.36-4.39-3.32-1.96-1.22-3.99-2.32-6.08-3.3.87,3.67,1.36,7.41,1.47,11.17h11.32c.11-.86-.09-1.73-.57-2.45-.49-.78-1.07-1.49-1.75-2.11Z"/>
        <path id="Path_3640235" data-name="Path 3640235" class="cls-1" d="M47.97,14.43c3.8.46,7.68,1.12,11.87,2.02l.05-.09c.2-.33.39-.65.59-.97.59-.94,1.2-1.85,1.8-2.7-.54-.22-.98-.4-1.4-.59-1.61-.7-3.16-1.54-4.62-2.52-.46-.32-.91-.66-1.33-1.02-2.72,1.64-5.24,3.59-7.5,5.81l.25.03.28.03Z"/>
        <path id="Path_3640236" data-name="Path 3640236" class="cls-1" d="M51.63,34.15c1.59-4.39,3.43-8.68,5.53-12.85.62-1.22,1.29-2.46,2-3.69-3.93-.71-7.77-1.25-11.43-1.59h0c-.51-.05-1.04-.1-1.74-.15-3.35,3.59-6.21,7.61-8.53,11.94h0c1.91,1.06,3.98,2.08,6.33,3.14,2.49,1.12,5.13,2.2,7.84,3.22Z"/>
        <path id="Path_3640237" data-name="Path 3640237" class="cls-1" d="M50.51,37.32c.19-.55.37-1.1.56-1.64-2.77-.95-5.44-1.96-7.93-3h0c-2.51-1.07-4.67-2.09-6.61-3.12-.84,1.68-1.63,3.44-2.35,5.24,1.65.15,3.44.35,5.47.62,3.49.49,7.05,1.11,10.85,1.91Z"/>
        <path id="Path_3640238" data-name="Path 3640238" class="cls-1" d="M50.09,38.6c-3.75-.67-7.26-1.2-10.71-1.6-2-.24-3.96-.42-5.83-.55-.37.99-.71,1.99-1.02,2.99h17.29c.09-.28.18-.56.27-.83Z"/>
        <path id="Path_3640239" data-name="Path 3640239" class="cls-1" d="M69.78,18.92c3.5.99,6.93,2.07,10.19,3.21,0-.4-.02-.8-.04-1.19-.06-1.4-.17-2.75-.32-4.01-3-.3-5.97-.82-8.89-1.54h0c-2.5-.61-4.95-1.36-7.36-2.26-.77,1.11-1.54,2.32-2.3,3.6,2.84.64,5.77,1.38,8.71,2.2Z"/>
        <path id="Path_3640240" data-name="Path 3640240" class="cls-46" d="M109.61,39.43h-2.49c-.25-.99-.53-1.97-.84-2.94-.4-.55-.85-1.06-1.34-1.53-1.36-1.27-2.84-2.4-4.42-3.38-2.13-1.34-4.33-2.57-6.59-3.67l-.06-.25c-.08-.33-.17-.67-.25-1-.97-3.62-2.43-7.09-4.33-10.33.25-.1.49-.23.72-.38.43-.26.75-.67.9-1.16.06-.23.07-.46.03-.69-.11-.09-.22-.17-.33-.26h0c.08.27.08.55.02.82-.14.44-.44.82-.84,1.05-.21.14-.43.25-.66.34-.74-1.22-1.57-2.39-2.47-3.5-.98-1.21-2.07-2.33-3.24-3.36-1.51-.78-3.06-1.49-4.65-2.1.6.32,1.14.64,1.67.98,2.07,1.36,3.93,3.02,5.53,4.92.88,1.05,1.7,2.15,2.43,3.31-.78.21-1.57.35-2.38.41-1.71.12-3.44.08-5.14-.1-.18-.02-.35-.04-.53-.06h-.06c-.09-.86-.18-1.57-.29-2.23-.29-2.08-.89-4.11-1.76-6.01-.31-.65-.7-1.26-1.14-1.82-.89-.31-1.8-.59-2.71-.84,1.38.64,2.49,1.76,3.11,3.16.87,1.81,1.47,3.73,1.78,5.71.11.61.21,1.25.3,1.95-2.95-.4-5.87-1.01-8.73-1.83-2.33-.66-4.63-1.44-6.88-2.36.37-.5.7-.94,1.03-1.35,1.21-1.58,2.65-2.99,4.26-4.16.72-.51,1.51-.91,2.35-1.17.67-.2,1.38-.25,2.07-.14-.96-.25-1.92-.47-2.88-.66-.63.25-1.24.56-1.81.93-1.74,1.19-3.3,2.64-4.62,4.28-.45.54-.92,1.14-1.44,1.83-.62-.27-1.16-.51-1.66-.75-1.54-.71-3.03-1.55-4.44-2.51-.29-.2-.57-.41-.82-.61,1.13-.62,2.3-1.17,3.51-1.64,2.29-.91,4.7-1.48,7.15-1.7.95-.08,1.9-.09,2.85-.05-2.17-.36-4.36-.57-6.55-.62-1.27.27-2.51.63-3.73,1.07-1.48.55-2.92,1.2-4.31,1.95l-.02-.02h0c-.28-.29-.52-.62-.71-.98-.17-.29-.23-.64-.17-.97.05-.16.13-.31.24-.43-.4.07-.81.15-1.21.22h0c-.08.34-.09.68-.03,1.01.06.28.15.56.28.82.17.33.38.63.61.91-2.91,1.72-5.6,3.78-8.01,6.16-.1.1-.19.2-.29.3l-.19.19c-2.88-.29-5.78-.38-8.67-.27-1.39.06-2.78.2-4.16.43-1.17.93-2.28,1.92-3.35,2.96.72-.39,1.5-.69,2.3-.88,1.73-.42,3.5-.66,5.28-.73,2.37-.11,4.74-.1,7.11.04-3.09,3.39-5.75,7.14-7.95,11.16l-.03.06c-.66-.39-1.25-.75-1.81-1.11-1.51-.94-2.93-2.03-4.23-3.24-.61-.57-1.14-1.23-1.59-1.94-.39-.55-.55-1.24-.43-1.91.01-.04.02-.09.04-.13-.63.67-1.24,1.35-1.83,2.05.14.4.31.77.53,1.13.54.86,1.19,1.65,1.93,2.34,1.41,1.3,2.94,2.46,4.57,3.46.58.36,1.2.73,1.89,1.12-.96,1.9-1.86,3.88-2.66,5.92-1.93-.14-3.67-.2-5.32-.2-2.15-.02-4.29.14-6.41.48-1.04.17-2.06.45-3.03.84-.32.95-.62,1.92-.88,2.9.38-.51.89-.9,1.49-1.13.89-.38,1.82-.65,2.78-.81,2-.34,4.03-.51,6.06-.5h.57c1.33,0,2.71.03,4.11.1-.37,1.02-.72,2.06-1.05,3.09H1.89v23.83h25.7c.17,3.21.61,6.4,1.33,9.53-2.08-1.03-4.1-2.16-6.05-3.4-1.51-.94-2.92-2.02-4.21-3.23-.61-.57-1.14-1.22-1.58-1.93-.08-.14-.16-.29-.23-.45.49,1.72,1.07,3.41,1.75,5.07,1.04.83,2.12,1.61,3.25,2.31,2.47,1.52,5.03,2.87,7.67,4.05l.03.1.04.17c1.42,5.16,3.91,9.96,7.3,14.11.78.91,1.61,1.78,2.5,2.58,1.82.99,3.7,1.86,5.64,2.59-.65-.35-1.27-.73-1.88-1.15h0c-2.03-1.4-3.84-3.09-5.38-5.01-2.93-3.73-5.11-8-6.4-12.57l.2.08.24.1c3.54,1.49,7.23,2.82,11.28,4.09,0,.1,0,.2,0,.31,0,.19.01.38.02.57.08,2.21.32,4.41.7,6.59.34,2.08.98,4.1,1.9,6,.29.56.64,1.1,1.03,1.6.79.27,1.58.51,2.39.74-1.2-.73-2.13-1.81-2.68-3.1-.82-1.82-1.37-3.75-1.65-5.72-.33-2.19-.51-4.4-.54-6.61,2.77.84,5.67,1.64,8.62,2.38,3.47.85,6.93,1.6,10.3,2.21l-.09.15c-.11.18-.22.37-.34.55-1.13,1.84-2.38,3.59-3.75,5.25-1.25,1.57-2.72,2.94-4.37,4.08-.73.5-1.54.87-2.39,1.1-.44.12-.9.17-1.36.16.79.19,1.59.36,2.38.5.62-.26,1.21-.58,1.77-.95,1.7-1.23,3.22-2.7,4.5-4.36,1.59-2.01,3.02-4.13,4.28-6.36,3.71.65,7.35,1.15,10.83,1.48.87.08,1.75.15,2.64.22l-.06.06c-.08.09-.17.17-.25.26-3.67,3.69-8.07,6.57-12.92,8.45-2.32.87-4.76,1.39-7.23,1.55-.42.03-.87.04-1.33.04,1.57.21,3.15.34,4.73.39,1.43-.31,2.84-.73,4.21-1.26h0c4.9-2,9.34-5.01,13.02-8.82.13-.13.25-.26.37-.39.07-.08.15-.15.22-.23,2.55.16,5.1.19,7.65.06,1.85-.07,3.69-.33,5.49-.76.54-.14,1.08-.32,1.6-.53,1-.89,1.95-1.81,2.86-2.78.11-.89-.1-1.78-.59-2.53-.49-.8-1.08-1.53-1.76-2.17-1.35-1.27-2.82-2.4-4.39-3.38-.45-.29-.96-.6-1.54-.95,1.29-2.44,2.44-4.95,3.42-7.53,1.82.1,3.5.14,5.15.13,2.1.01,4.19-.16,6.26-.5,1.04-.18,2.06-.47,3.03-.88.41-.18.8-.41,1.16-.68.11-.35.21-.7.31-1.05-.15.22-.32.41-.52.58-.4.33-.84.6-1.32.8-.96.4-1.96.69-2.99.85-2.05.33-4.13.49-6.21.48-1.5,0-3.04-.05-4.71-.16.36-.96.69-1.92,1.01-2.88h29.51v-23.82h-11.87ZM80.37,16.99c.19.02.38.03.57.05,1.73.14,3.48.14,5.21,0,.82-.07,1.63-.22,2.42-.44,1.95,3.15,3.45,6.56,4.45,10.14.07.24.14.49.2.72l.03.12c-.84-.4-1.69-.8-2.54-1.18-3.17-1.42-6.57-2.79-10.11-4.05,0-1.88-.09-3.68-.26-5.36h.03ZM79.9,27.6c-.2,3.96-.61,7.91-1.23,11.83h-10.05c-1.36-.34-2.74-.71-4.16-1.1-3.94-1.11-7.81-2.35-11.5-3.69v-.03s.03-.06.04-.1c1.5-4.24,3.24-8.4,5.21-12.45.75-1.52,1.48-2.9,2.22-4.22,2.96.56,5.96,1.22,8.93,1.95,3.81.95,7.29,1.94,10.63,3.01.02,1.61,0,3.22-.09,4.8ZM51.91,37.61c.14-.42.28-.83.43-1.24l.09-.24c3.63,1.2,7.37,2.28,11.43,3.31h-4.26c-2.62-.67-5.17-1.27-7.69-1.82ZM54.46,39.43h-3.13c.06-.19.12-.38.18-.58.97.18,1.96.37,2.95.58h0ZM67.31,63.26c1.77.37,3.52.71,5.26,1.02-.3.88-.58,1.7-.87,2.51-3.31-1.26-6.83-2.44-10.47-3.54h6.08ZM71.56,63.26h1.35c-.03.09-.06.18-.09.27-.42-.09-.84-.18-1.26-.27ZM63.36,13.11c2.41.9,4.86,1.66,7.36,2.26h0c2.92.73,5.89,1.25,8.89,1.55.15,1.26.26,2.61.32,4.01.01.4.03.79.04,1.19-3.26-1.15-6.68-2.23-10.19-3.21-2.95-.82-5.88-1.56-8.71-2.2.75-1.28,1.52-2.49,2.3-3.6h0ZM54.94,8.56c.42.37.87.71,1.33,1.02,1.46.97,3.01,1.81,4.62,2.51.42.18.87.37,1.4.59-.61.86-1.21,1.77-1.8,2.7-.2.32-.4.64-.59.97l-.05.09c-4.19-.9-8.07-1.56-11.87-2.02l-.28-.03-.25-.03c2.26-2.22,4.78-4.17,7.5-5.81ZM37.45,27.8c2.31-4.33,5.18-8.34,8.53-11.94.7.06,1.24.1,1.74.15h0c3.66.35,7.51.88,11.44,1.59-.71,1.23-1.38,2.47-2,3.69-2.1,4.17-3.95,8.46-5.53,12.85-2.71-1.01-5.35-2.1-7.84-3.22-2.35-1.05-4.42-2.08-6.33-3.13h0ZM36.53,29.56c1.94,1.03,4.11,2.05,6.62,3.12h0c2.49,1.04,5.15,2.05,7.92,3-.19.55-.38,1.09-.56,1.64-3.81-.8-7.36-1.42-10.85-1.91-2.03-.27-3.82-.47-5.47-.62.72-1.8,1.51-3.56,2.35-5.24h0ZM33.55,36.45c1.87.13,3.83.31,5.83.55,3.45.4,6.95.93,10.71,1.6-.09.28-.18.56-.27.83h-17.29c.32-1,.66-1.99,1.02-2.98ZM43.13,74.4c-.06,1.39-.09,2.83-.08,4.29-3.69-1.3-7.25-2.72-10.6-4.22-.62-.28-1.18-.54-1.71-.79-.83-3.42-1.32-6.9-1.48-10.41h14.97c-.56,3.83-.93,7.57-1.1,11.14ZM63.67,84.44c-3.42-.71-7-1.6-10.65-2.61-2.96-.83-5.91-1.75-8.77-2.73,0-1.53.06-3.11.16-4.84.2-3.44.6-7.07,1.22-11h12.14l.15.04c4.92,1.23,9.37,2.54,13.6,4.01-1.58,4.39-3.42,8.68-5.51,12.85-.72,1.43-1.5,2.87-2.34,4.3ZM77.8,86.56c-1.19-.1-2.27-.2-3.31-.32-3.25-.39-6.58-.93-10.19-1.67.73-1.31,1.48-2.72,2.21-4.19,2-4.09,3.77-8.3,5.29-12.59.03-.08.06-.16.09-.24l.04-.11c2.49.87,4.73,1.73,6.84,2.62,2.79,1.17,5.5,2.5,8.13,3.98l-.05.1c-.05.1-.1.2-.15.29-2.4,4.42-5.39,8.5-8.88,12.12ZM88.53,75.03c1.56.96,3.02,2.06,4.37,3.31.67.62,1.26,1.33,1.74,2.11,1.02,1.29.79,3.16-.5,4.18-.22.17-.46.31-.71.41-.8.44-1.66.77-2.56.98-1.78.42-3.6.66-5.43.72-2.3.09-4.6.05-6.89-.13,3.36-3.62,6.24-7.66,8.58-12.01l.07-.14.1-.19c.46.27.85.5,1.24.75ZM86.99,73.86c-2.54-1.47-5.15-2.81-7.84-3.99-2.22-1-4.53-1.96-7.06-2.92.32-.91.62-1.76.89-2.59,3.57.64,7.09,1.17,10.46,1.56,2.36.28,4.68.49,6.9.62-.97,2.51-2.09,4.95-3.35,7.32ZM90.51,66.1c-2.18-.15-4.49-.39-7.25-.76-3.22-.45-6.5-1.02-10.03-1.74.04-.12.07-.23.11-.35h18.18c-.32.95-.65,1.9-1.01,2.85ZM79.11,39.43c.64-3.91,1.09-7.85,1.33-11.8.09-1.7.14-3.22.14-4.64,3.46,1.13,6.63,2.3,9.69,3.58,1.1.47,2.1.92,3.06,1.37.96,3.76,1.52,7.61,1.66,11.49h-15.89ZM106.79,39.43h-11.31c-.11-3.76-.6-7.51-1.47-11.17,2.09.98,4.12,2.08,6.08,3.3,1.57.96,3.04,2.07,4.39,3.32.67.62,1.26,1.33,1.75,2.11.48.72.68,1.59.57,2.44h0Z"/>
        <path id="Path_3640241" data-name="Path 3640241" class="cls-47" d="M104.26,26.01C90.8,2.63,60.94-5.41,37.56,8.04c-.14.08-.28.16-.41.24-11.3,6.59-19.52,17.4-22.83,30.06-.1.36-.19.73-.27,1.09h2.49v-.03c.04-.15.08-.29.12-.44.03-.1.06-.2.08-.29.27-.98.56-1.95.88-2.9,1.87-5.52,4.75-10.64,8.5-15.1.59-.7,1.2-1.38,1.83-2.05.43-.45.87-.9,1.31-1.33,1.07-1.04,2.18-2.02,3.35-2.96,1.82-1.46,3.75-2.78,5.76-3.96,4.55-2.67,9.51-4.56,14.69-5.58.4-.08.8-.16,1.21-.22,2.52-.42,5.07-.64,7.62-.64.36,0,.72,0,1.07.02,2.2.05,4.38.26,6.55.62.43.07.86.15,1.28.23.96.19,1.92.41,2.88.66l.12.03h0c.2.05.4.11.59.16.92.25,1.82.53,2.71.84.56.19,1.12.4,1.67.61,1.59.61,3.14,1.32,4.65,2.1h0c.13.06.27.14.4.21.16.08.32.17.47.25l.21.12c2.14,1.19,4.19,2.55,6.12,4.07.11.09.22.17.33.26h0l.07.05c.4.33.81.66,1.2.99l.22.2c.27.23.53.47.8.71,6.05,5.56,10.55,12.6,13.06,20.42.31.97.6,1.96.84,2.94h2.49c-1.12-4.71-2.92-9.23-5.35-13.42Z"/>
      </g>
      <g id="Group_3417419" data-name="Group 3417419">
        <g id="Group_3417416" data-name="Group 3417416">
          <path id="Path_3640242" data-name="Path 3640242" class="cls-43" d="M103.54,54.61h0c0-.33.27-.59.59-.59s.59.27.59.59h0c0,.33-.27.59-.59.59s-.59-.27-.59-.59ZM104.66,54.61h0c0-.29-.23-.53-.52-.53-.29,0-.53.23-.53.52h0c0,.29.23.53.52.53.29,0,.53-.23.53-.52h0ZM103.9,54.29h.27c.13,0,.23.07.23.19,0,.09-.06.16-.14.18l.16.23h-.14l-.14-.21h-.13v.21h-.12v-.6ZM104.16,54.59c.08,0,.12-.04.12-.1s-.04-.1-.12-.1h-.15v.2h.15Z"/>
        </g>
        <g id="Group_3417417" data-name="Group 3417417">
          <path id="Path_3640243" data-name="Path 3640243" class="cls-43" d="M18.38,53.93h.67l-.02,5.86h-.65v-5.86Z"/>
          <path id="Path_3640244" data-name="Path 3640244" class="cls-43" d="M22.05,53.93h.63l3.69,4.68v-4.68h.64v5.86h-.52l-3.79-4.8-.02,4.8h-.63v-5.86Z"/>
          <path id="Path_3640245" data-name="Path 3640245" class="cls-43" d="M31.53,54.55h-1.96v-.61h4.61v.61h-1.97v5.25h-.67v-5.25Z"/>
          <path id="Path_3640246" data-name="Path 3640246" class="cls-43" d="M36.72,53.91h4.24v.6h-3.57v1.99h3.2v.61h-3.2v2.05h3.61v.6h-4.28v-5.86Z"/>
          <path id="Path_3640247" data-name="Path 3640247" class="cls-43" d="M43.63,53.93h2.35c.68-.07,1.36.15,1.87.6.26.31.41.69.43,1.09h0c.04.92-.66,1.71-1.58,1.78l1.8,2.4h-.82l-1.71-2.27h-1.67v2.27h-.67v-5.87ZM45.93,56.93c1.26,0,1.67-.57,1.68-1.29h0c-.09-.58-.35-1.11-1.65-1.11h-1.67v2.38h1.64Z"/>
          <path id="Path_3640248" data-name="Path 3640248" class="cls-43" d="M51,53.93h.63l3.69,4.7v-4.7h.65v5.86h-.53l-3.78-4.8v4.8h-.65v-5.86Z"/>
          <path id="Path_3640249" data-name="Path 3640249" class="cls-43" d="M61.1,53.89h.62l2.67,5.9h-.71l-.68-1.54h-3.2s-.7,1.54-.7,1.54h-.68l2.68-5.9ZM62.73,57.65l-1.33-2.98-1.34,2.98h2.67Z"/>
          <path id="Path_3640250" data-name="Path 3640250" class="cls-43" d="M67.64,54.54h-1.96s0-.61,0-.61h4.61v.61h-1.97v5.25h-.67v-5.25Z"/>
          <path id="Path_3640251" data-name="Path 3640251" class="cls-43" d="M72.89,53.93h.66v5.86h-.66v-5.86Z"/>
          <path id="Path_3640252" data-name="Path 3640252" class="cls-43" d="M76.32,56.88v-.02c-.03-1.64,1.27-3,2.91-3.03.01,0,.02,0,.03,0,1.62-.06,2.97,1.2,3.03,2.82,0,.06,0,.13,0,.19h0c.04,1.65-1.27,3.02-2.92,3.06-1.65.04-3.02-1.27-3.06-2.92,0-.03,0-.07,0-.1h0ZM81.62,56.87v-.02c.06-1.27-.92-2.35-2.19-2.41-1.27-.06-2.35.92-2.41,2.19,0,.07,0,.14,0,.21v.02c-.04,1.07.65,2.04,1.67,2.35,1.24.34,2.51-.39,2.85-1.63.06-.23.09-.47.08-.7h0Z"/>
          <path id="Path_3640253" data-name="Path 3640253" class="cls-43" d="M85,53.93h.62l3.69,4.7v-4.7h.65v5.86h-.53l-3.78-4.8v4.8h-.64v-5.86Z"/>
          <path id="Path_3640254" data-name="Path 3640254" class="cls-43" d="M95.1,53.89h.62l2.67,5.9h-.71l-.7-1.55h-3.18l-.7,1.55h-.67l2.67-5.9ZM96.73,57.64l-1.34-2.98-1.33,2.98h2.67Z"/>
          <path id="Path_3640255" data-name="Path 3640255" class="cls-43" d="M100.85,53.93h.66v5.25h3.31v.6h-3.96v-5.85Z"/>
        </g>
        <g id="Group_3417418" data-name="Group 3417418">
          <path id="Path_3640256" data-name="Path 3640256" class="cls-44" d="M8.44,44.49h-2.85v-1.81h7.77v1.81h-2.85v7.13h-2.06v-7.13Z"/>
          <path id="Path_3640257" data-name="Path 3640257" class="cls-44" d="M14.12,47.18v-.03c.2-2.75,2.6-4.82,5.35-4.62,2.46.18,4.42,2.13,4.62,4.59v.03c-.2,2.75-2.6,4.82-5.35,4.62-2.46-.18-4.42-2.13-4.62-4.59h0ZM21.93,47.18v-.03c.02-1.54-1.21-2.79-2.75-2.81-.03,0-.06,0-.09,0-1.51-.04-2.77,1.15-2.81,2.66,0,.04,0,.09,0,.13v.03c-.02,1.54,1.21,2.79,2.75,2.81.03,0,.06,0,.09,0,1.51.04,2.77-1.15,2.81-2.66,0-.04,0-.08,0-.13Z"/>
          <path id="Path_3640258" data-name="Path 3640258" class="cls-44" d="M28.54,42.62h1.9l4.02,9h-2.15l-.86-2.01h-3.97l-.86,2.01h-2.1l4.02-9ZM30.71,47.88l-1.25-2.9-1.25,2.9h2.49Z"/>
          <path id="Path_3640259" data-name="Path 3640259" class="cls-44" d="M35.13,50.32l1.22-1.39c.78.68,1.77,1.06,2.8,1.09.84,0,1.35-.32,1.35-.84v-.03c0-.5-.32-.75-1.89-1.14-1.89-.46-3.11-.96-3.11-2.73v-.03c0-1.62,1.37-2.7,3.28-2.7,1.26-.02,2.48.38,3.48,1.14l-1.07,1.48c-.71-.52-1.56-.83-2.44-.88-.79,0-1.21.35-1.21.78v.03c0,.59.4.78,2.02,1.18,1.9.47,2.98,1.12,2.98,2.68v.03c0,1.77-1.42,2.77-3.44,2.77-1.45,0-2.86-.5-3.98-1.43Z"/>
          <path id="Path_3640260" data-name="Path 3640260" class="cls-44" d="M46.34,44.49h-2.85v-1.81h7.77v1.81h-2.85v7.13h-2.06v-7.13Z"/>
          <path id="Path_3640261" data-name="Path 3640261" class="cls-44" d="M52.83,42.68h2.23l2.47,3.78,2.47-3.78h2.23v8.94h-2.05v-5.84l-2.64,3.82h-.05l-2.61-3.78v5.8h-2.02v-8.94Z"/>
          <path id="Path_3640262" data-name="Path 3640262" class="cls-44" d="M67.68,42.62h1.9l4.02,9h-2.16l-.86-2.01h-3.97l-.86,2.01h-2.1l4.02-9ZM69.85,47.88l-1.25-2.9-1.25,2.9h2.49Z"/>
          <path id="Path_3640263" data-name="Path 3640263" class="cls-44" d="M74.28,50.32l1.22-1.39c.78.68,1.77,1.06,2.8,1.09.84,0,1.35-.32,1.35-.84v-.03c0-.5-.32-.75-1.89-1.14-1.89-.46-3.11-.96-3.11-2.73v-.03c0-1.62,1.37-2.7,3.28-2.7,1.26-.02,2.48.38,3.48,1.14l-1.07,1.48c-.71-.52-1.56-.83-2.44-.88-.79,0-1.21.35-1.21.78v.03c0,.59.4.78,2.02,1.18,1.9.47,2.98,1.12,2.98,2.68v.03c0,1.77-1.42,2.77-3.44,2.77-1.45,0-2.86-.5-3.98-1.43Z"/>
          <path id="Path_3640264" data-name="Path 3640264" class="cls-44" d="M85.48,44.49h-2.85v-1.81h7.77v1.81h-2.85v7.13h-2.06v-7.13Z"/>
          <path id="Path_3640265" data-name="Path 3640265" class="cls-44" d="M91.98,42.68h7.08v1.75h-5.02v1.81h4.42v1.75h-4.42v1.88h5.09v1.75h-7.14v-8.94Z"/>
          <path id="Path_3640266" data-name="Path 3640266" class="cls-44" d="M100.96,42.68h4.29c.99-.06,1.97.26,2.73.91.54.54.83,1.28.8,2.04v.03c.04,1.28-.78,2.42-2.01,2.77l2.29,3.19h-2.41l-2.01-2.86h-1.62v2.86h-2.06v-8.94ZM105.12,47.02c1,0,1.58-.51,1.58-1.26v-.03c0-.84-.62-1.28-1.62-1.28h-2.05v2.57h2.09Z"/>
          <path id="Path_3640267" data-name="Path 3640267" class="cls-44" d="M110,50.32l1.22-1.39c.78.68,1.77,1.06,2.8,1.09.85,0,1.35-.32,1.35-.84v-.03c0-.5-.32-.75-1.89-1.14-1.89-.46-3.11-.96-3.11-2.73v-.03c0-1.62,1.37-2.7,3.28-2.7,1.26-.02,2.48.38,3.48,1.14l-1.07,1.48c-.71-.52-1.56-.83-2.44-.88-.79,0-1.21.35-1.21.78v.03c0,.59.4.78,2.02,1.18,1.9.47,2.98,1.12,2.98,2.68v.03c0,1.77-1.42,2.77-3.44,2.77-1.45,0-2.86-.5-3.98-1.43Z"/>
        </g>
      </g>
    </g>
  </g>
  <g id="Group_3258924" data-name="Group 3258924">
    <path id="Path_2922334" data-name="Path 2922334" class="cls-10" d="M152.51,16.81v68.8h100.34V16.81h-100.34M146.51,10.81h112.34v80.8h-112.34V10.81Z"/>
    <path class="cls-33" d="M186.24,73.79h6.54v2.1h-9.04v-13.82h8.99v2.1h-6.48v3.75h6.02v2.1h-6.02v3.77ZM173.85,68.19h-.13l-3.38-6.11h-2.83l5.02,8.66v5.15h2.5v-5.15l5.03-8.66h-2.83l-3.38,6.11ZM220.39,70.4l3,5.49h-2.79l-2.72-5.07h-2.54v5.07h-2.5v-13.82h5.18c.92-.03,1.84.16,2.67.55.69.34,1.26.88,1.64,1.55.38.71.58,1.51.56,2.32.02.8-.17,1.6-.56,2.3-.39.66-.96,1.18-1.66,1.5-.09.04-.19.07-.28.11ZM215.33,68.76h2.3c.52.02,1.04-.07,1.53-.26.37-.15.68-.42.88-.76.2-.38.3-.81.29-1.24.01-.44-.09-.87-.29-1.26-.2-.36-.51-.64-.88-.8-.49-.2-1.01-.29-1.53-.27h-2.29v4.59ZM204.24,62.08l4.87,13.82h-2.67l-1.14-3.41h-5.2l-1.14,3.41h-2.67l4.87-13.82h3.09ZM204.62,70.48l-1.87-5.57h-.11l-1.87,5.57h3.85ZM236.87,70.45c-.22-.44-.53-.83-.91-1.14-.39-.32-.83-.58-1.3-.78-.49-.21-.99-.37-1.51-.49l-1.3-.32c-.29-.07-.57-.15-.84-.25-.27-.09-.52-.22-.76-.37-.22-.14-.4-.32-.54-.54-.14-.23-.21-.49-.2-.75,0-.33.1-.66.3-.92.22-.29.52-.51.86-.64.43-.17.88-.25,1.34-.24.64-.03,1.27.14,1.81.49.46.32.75.82.79,1.38h2.41c0-.74-.23-1.46-.65-2.07-.44-.62-1.05-1.1-1.74-1.41-.81-.35-1.69-.53-2.58-.51-.89-.02-1.78.16-2.6.51-.72.31-1.35.8-1.82,1.43-.45.62-.68,1.37-.66,2.14-.04.9.32,1.77.99,2.38.78.66,1.71,1.11,2.7,1.33l1.57.4c.44.11.88.25,1.3.43.33.13.63.33.87.59.21.25.32.57.32.89,0,.38-.13.74-.36,1.03-.26.31-.59.55-.97.69-.46.17-.94.26-1.43.25-.48,0-.96-.07-1.41-.24-.4-.14-.75-.39-1.02-.72-.27-.34-.43-.76-.45-1.2h-2.46c0,.83.26,1.64.72,2.34.46.65,1.1,1.16,1.85,1.46.89.35,1.84.52,2.8.5.97.03,1.93-.15,2.83-.52.72-.3,1.35-.8,1.8-1.44.42-.63.64-1.38.62-2.14.01-.54-.1-1.08-.34-1.57Z"/>
    <path class="cls-34" d="M208.91,33.45c-.93-2.11-2.48-3.89-4.45-5.11-2.07-1.21-4.45-1.82-6.85-1.75-2.4-.06-4.76.54-6.84,1.75-1.96,1.21-3.5,2.99-4.43,5.1-1.1,2.57-1.64,5.35-1.57,8.15-.08,2.82.45,5.62,1.55,8.21.93,2.15,2.48,3.97,4.45,5.24,2.06,1.25,4.43,1.89,6.84,1.84,2.41.06,4.78-.57,6.84-1.82,1.97-1.26,3.51-3.09,4.44-5.23,1.1-2.6,1.64-5.41,1.56-8.24.09-2.79-.44-5.57-1.55-8.14ZM200.98,48.32c-.64,1.28-1.93,2.1-3.36,2.14h0c-.9,0-1.77-.33-2.43-.94-.81-.8-1.38-1.8-1.66-2.9-.44-1.64-.63-3.33-.58-5.02.02-2.99.46-5.18,1.32-6.56.65-1.25,1.93-2.05,3.34-2.07.89,0,1.75.32,2.41.92.8.77,1.37,1.75,1.65,2.82.44,1.59.64,3.25.6,4.9,0,3.06-.42,5.3-1.3,6.73ZM236.92,33.45c-.93-2.11-2.48-3.89-4.45-5.11-2.07-1.21-4.45-1.82-6.85-1.75-2.4-.06-4.77.54-6.84,1.75-1.96,1.21-3.5,2.99-4.43,5.1-1.1,2.57-1.64,5.35-1.57,8.15-.08,2.82.45,5.62,1.55,8.21.93,2.15,2.48,3.97,4.45,5.24,2.06,1.25,4.43,1.89,6.84,1.84h0c2.41.06,4.78-.57,6.84-1.82,1.97-1.26,3.51-3.09,4.44-5.23,1.11-2.6,1.64-5.41,1.56-8.24.09-2.79-.44-5.57-1.55-8.14ZM228.98,48.32c-.64,1.28-1.93,2.1-3.36,2.14h0c-.9,0-1.77-.33-2.43-.94-.81-.8-1.38-1.8-1.66-2.9-.44-1.64-.63-3.33-.58-5.02.02-2.99.46-5.18,1.32-6.56.65-1.25,1.93-2.05,3.34-2.07.89,0,1.75.32,2.41.92.8.77,1.37,1.75,1.65,2.82.44,1.59.64,3.25.6,4.9,0,3.06-.42,5.3-1.3,6.73ZM173.49,27.71h7.09v28.36h-7.7v-21.27h-.17l-6.2,3.71v-6.54l6.98-4.26Z"/>
  </g>
</svg>